
<svg xmlns="http://www.w3.org/2000/svg"
     viewBox="-73.90158671203926 -1634.7982559301222 177.03877673034862 1707.8512453379115"
     width="800" height="600"
     preserveAspectRatio="xMidYMid meet">

  <circle cx="3.728015348774902" cy="-1557.168653869308" r="7.7629602060814165"
          fill="black" stroke="none" />

  <circle cx="4.042081685885228" cy="-1527.6206094596898" r="7.7629602060814165"
          fill="black" stroke="none" />

  <circle cx="4.3496395524421505" cy="-1502.2824532727636" r="7.7629602060814165"
          fill="black" stroke="none" />

  <circle cx="4.671892631142809" cy="-1494.9350047481144" r="7.7629602060814165"
          fill="black" stroke="none" />

  <circle cx="5.012067268083518" cy="-1505.121363091822" r="7.7629602060814165"
          fill="black" stroke="none" />

  <circle cx="5.354018871133" cy="-1522.87273663869" r="7.7629602060814165"
          fill="black" stroke="none" />

  <circle cx="5.669190932630842" cy="-1536.4123827961398" r="7.7629602060814165"
          fill="black" stroke="none" />

  <circle cx="5.929204398051992" cy="-1538.813375127892" r="7.7629602060814165"
          fill="black" stroke="none" />

  <circle cx="6.119154285845709" cy="-1530.7131730384922" r="7.7629602060814165"
          fill="black" stroke="none" />

  <circle cx="6.246369758466539" cy="-1518.5336884327826" r="7.7629602060814165"
          fill="black" stroke="none" />

  <circle cx="6.341088132915018" cy="-1509.9407940747906" r="7.7629602060814165"
          fill="black" stroke="none" />

  <circle cx="6.448560066651705" cy="-1509.385615039621" r="7.7629602060814165"
          fill="black" stroke="none" />

  <circle cx="6.615362589441654" cy="-1516.0910418212145" r="7.7629602060814165"
          fill="black" stroke="none" />

  <circle cx="6.874887673069883" cy="-1525.217012814834" r="7.7629602060814165"
          fill="black" stroke="none" />

  <circle cx="7.2372504497730095" cy="-1531.1363731051533" r="7.7629602060814165"
          fill="black" stroke="none" />

  <circle cx="7.687130294001563" cy="-1530.743624559459" r="7.7629602060814165"
          fill="black" stroke="none" />

  <circle cx="8.190020629999719" cy="-1524.9487359673578" r="7.7629602060814165"
          fill="black" stroke="none" />

  <circle cx="8.704232768370748" cy="-1517.7201945034544" r="7.7629602060814165"
          fill="black" stroke="none" />

  <circle cx="9.194008254393983" cy="-1513.4760266173819" r="7.7629602060814165"
          fill="black" stroke="none" />

  <circle cx="9.63899292068514" cy="-1514.4700287553642" r="7.7629602060814165"
          fill="black" stroke="none" />

  <circle cx="10.037078291911959" cy="-1519.6682370491367" r="7.7629602060814165"
          fill="black" stroke="none" />

  <circle cx="10.400428538597595" cy="-1525.630765346104" r="7.7629602060814165"
          fill="black" stroke="none" />

  <circle cx="10.747180319732127" cy="-1528.7249572394073" r="7.7629602060814165"
          fill="black" stroke="none" />

  <circle cx="11.092734696210238" cy="-1527.28423179072" r="7.7629602060814165"
          fill="black" stroke="none" />

  <circle cx="11.4442357169154" cy="-1522.4605015603436" r="7.7629602060814165"
          fill="black" stroke="none" />

  <circle cx="11.800011781729287" cy="-1517.3609214915164" r="7.7629602060814165"
          fill="black" stroke="none" />

  <circle cx="12.15334565705749" cy="-1515.0829135268468" r="7.7629602060814165"
          fill="black" stroke="none" />

  <circle cx="12.498054088852815" cy="-1516.8664207259021" r="7.7629602060814165"
          fill="black" stroke="none" />

  <circle cx="12.832817236000182" cy="-1521.4452899197954" r="7.7629602060814165"
          fill="black" stroke="none" />

  <circle cx="13.162157278691542" cy="-1525.9204750673887" r="7.7629602060814165"
          fill="black" stroke="none" />

  <circle cx="13.493867725801053" cy="-1527.5681077691274" r="7.7629602060814165"
          fill="black" stroke="none" />

  <circle cx="13.834558192279026" cy="-1525.4709527187422" r="7.7629602060814165"
          fill="black" stroke="none" />

  <circle cx="14.18588165377076" cy="-1521.0108341119114" r="7.7629602060814165"
          fill="black" stroke="none" />

  <circle cx="14.54353871484814" cy="-1516.9680761310706" r="7.7629602060814165"
          fill="black" stroke="none" />

  <circle cx="14.899594933575155" cy="-1515.8070450223554" r="7.7629602060814165"
          fill="black" stroke="none" />

  <circle cx="15.246837883078477" cy="-1518.1925784366417" r="7.7629602060814165"
          fill="black" stroke="none" />

  <circle cx="15.582792724739718" cy="-1522.618442833259" r="7.7629602060814165"
          fill="black" stroke="none" />

  <circle cx="15.911189355090176" cy="-1526.3488746300936" r="7.7629602060814165"
          fill="black" stroke="none" />

  <circle cx="16.24003891663355" cy="-1527.0894769029424" r="7.7629602060814165"
          fill="black" stroke="none" />

  <circle cx="16.57731188667811" cy="-1524.3779293472508" r="7.7629602060814165"
          fill="black" stroke="none" />

  <circle cx="16.92653576337382" cy="-1519.862735673368" r="7.7629602060814165"
          fill="black" stroke="none" />

  <circle cx="17.284724777032302" cy="-1516.3068808778278" r="7.7629602060814165"
          fill="black" stroke="none" />

  <circle cx="17.643839434297085" cy="-1515.9141670947915" r="7.7629602060814165"
          fill="black" stroke="none" />

  <circle cx="17.995074927639457" cy="-1518.9804465663924" r="7.7629602060814165"
          fill="black" stroke="none" />

  <circle cx="18.333706285923345" cy="-1523.6828967226288" r="7.7629602060814165"
          fill="black" stroke="none" />

  <circle cx="18.661840166394867" cy="-1527.1487860749146" r="7.7629602060814165"
          fill="black" stroke="none" />

  <circle cx="18.98748460212443" cy="-1527.18379236359" r="7.7629602060814165"
          fill="black" stroke="none" />

  <circle cx="19.32031935249985" cy="-1523.635430609006" r="7.7629602060814165"
          fill="black" stroke="none" />

  <circle cx="19.666383745122275" cy="-1518.5611789275385" r="7.7629602060814165"
          fill="black" stroke="none" />

  <circle cx="20.02458223386067" cy="-1515.0596159858394" r="7.7629602060814165"
          fill="black" stroke="none" />

  <circle cx="20.387016674302703" cy="-1515.4142120066285" r="7.7629602060814165"
          fill="black" stroke="none" />

  <circle cx="20.74311423183863" cy="-1519.6350425535907" r="7.7629602060814165"
          fill="black" stroke="none" />

  <circle cx="21.085410561908873" cy="-1525.300017035282" r="7.7629602060814165"
          fill="black" stroke="none" />

  <circle cx="21.413837299119805" cy="-1528.8779580282462" r="7.7629602060814165"
          fill="black" stroke="none" />

  <circle cx="21.736063375759144" cy="-1527.850752232192" r="7.7629602060814165"
          fill="black" stroke="none" />

  <circle cx="22.06353872441022" cy="-1522.4241245582248" r="7.7629602060814165"
          fill="black" stroke="none" />

  <circle cx="22.4052743355646" cy="-1515.73733610744" r="7.7629602060814165"
          fill="black" stroke="none" />

  <circle cx="22.76273203965873" cy="-1512.2166215809116" r="7.7629602060814165"
          fill="black" stroke="none" />

  <circle cx="23.128675737660178" cy="-1514.6986154740648" r="7.7629602060814165"
          fill="black" stroke="none" />

  <circle cx="23.49064837088131" cy="-1521.6710758475356" r="7.7629602060814165"
          fill="black" stroke="none" />

  <circle cx="23.837046810975714" cy="-1526.0568803055241" r="7.7629602060814165"
          fill="black" stroke="none" />

  <circle cx="24.162103435940317" cy="-1516.3446706645345" r="7.7629602060814165"
          fill="black" stroke="none" />

  <circle cx="24.46650616080146" cy="-1479.8376130957527" r="7.7629602060814165"
          fill="black" stroke="none" />

  <circle cx="24.752836493304915" cy="-1406.8410450436259" r="7.7629602060814165"
          fill="black" stroke="none" />

  <circle cx="25.01823535737492" cy="-1294.1817699751923" r="7.7629602060814165"
          fill="black" stroke="none" />

  <circle cx="25.248897359076047" cy="-1146.726091139022" r="7.7629602060814165"
          fill="black" stroke="none" />

  <circle cx="25.420726553461705" cy="-976.385850940271" r="7.7629602060814165"
          fill="black" stroke="none" />

  <circle cx="25.507587957495204" cy="-799.0785971969292" r="7.7629602060814165"
          fill="black" stroke="none" />

  <circle cx="25.49435865282095" cy="-630.8111188264469" r="7.7629602060814165"
          fill="black" stroke="none" />

  <circle cx="25.388621518925802" cy="-484.22289620458747" r="7.7629602060814165"
          fill="black" stroke="none" />

  <circle cx="25.22433597600697" cy="-366.5624193039098" r="7.7629602060814165"
          fill="black" stroke="none" />

  <circle cx="25.053824276883475" cy="-279.40830664430644" r="7.7629602060814165"
          fill="black" stroke="none" />

  <circle cx="24.92978136229674" cy="-219.8092824833103" r="7.7629602060814165"
          fill="black" stroke="none" />

  <circle cx="24.884235855947935" cy="-182.14939599330663" r="7.7629602060814165"
          fill="black" stroke="none" />

  <circle cx="24.913777182135675" cy="-160.02340831365922" r="7.7629602060814165"
          fill="black" stroke="none" />

  <circle cx="24.978447554783628" cy="-147.6405341684412" r="7.7629602060814165"
          fill="black" stroke="none" />

  <circle cx="25.01605929480756" cy="-140.5879903125442" r="7.7629602060814165"
          fill="black" stroke="none" />

  <circle cx="24.96680897621529" cy="-136.02692789888943" r="7.7629602060814165"
          fill="black" stroke="none" />

  <circle cx="24.798145544894275" cy="-132.49985510725278" r="7.7629602060814165"
          fill="black" stroke="none" />

  <circle cx="24.519321052509547" cy="-129.52864204516754" r="7.7629602060814165"
          fill="black" stroke="none" />

  <circle cx="24.17929220393156" cy="-127.14393071120249" r="7.7629602060814165"
          fill="black" stroke="none" />

  <circle cx="23.848766643497168" cy="-125.4596396319916" r="7.7629602060814165"
          fill="black" stroke="none" />

  <circle cx="23.593937880025983" cy="-124.3923182921011" r="7.7629602060814165"
          fill="black" stroke="none" />

  <circle cx="23.452757032559578" cy="-123.5941429530736" r="7.7629602060814165"
          fill="black" stroke="none" />

  <circle cx="23.42304400167162" cy="-122.59777513657949" r="7.7629602060814165"
          fill="black" stroke="none" />

  <circle cx="23.466244805352886" cy="-121.07711192125407" r="7.7629602060814165"
          fill="black" stroke="none" />

  <circle cx="23.523893159124114" cy="-119.06185426318919" r="7.7629602060814165"
          fill="black" stroke="none" />

  <circle cx="23.538957235925004" cy="-116.95787728366204" r="7.7629602060814165"
          fill="black" stroke="none" />

  <circle cx="23.473275522192232" cy="-115.32972594410819" r="7.7629602060814165"
          fill="black" stroke="none" />

  <circle cx="23.315239119154896" cy="-114.54691258828215" r="7.7629602060814165"
          fill="black" stroke="none" />

  <circle cx="23.076937325605517" cy="-114.4966100794938" r="7.7629602060814165"
          fill="black" stroke="none" />

  <circle cx="22.78452829464163" cy="-114.55216150465117" r="7.7629602060814165"
          fill="black" stroke="none" />

  <circle cx="22.467583869743947" cy="-113.85370084371178" r="7.7629602060814165"
          fill="black" stroke="none" />

  <circle cx="22.152078255283516" cy="-111.77337577076231" r="7.7629602060814165"
          fill="black" stroke="none" />

  <circle cx="21.858640025608345" cy="-108.31145015180056" r="7.7629602060814165"
          fill="black" stroke="none" />

  <circle cx="21.60458849684089" cy="-104.18387972027944" r="7.7629602060814165"
          fill="black" stroke="none" />

  <circle cx="21.406742247226695" cy="-100.52071107555108" r="7.7629602060814165"
          fill="black" stroke="none" />

  <circle cx="21.28248892375739" cy="-98.31418511444551" r="7.7629602060814165"
          fill="black" stroke="none" />

  <circle cx="21.248373344269908" cy="-97.90935731474357" r="7.7629602060814165"
          fill="black" stroke="none" />

  <circle cx="21.317127346250107" cy="-98.82309408282799" r="7.7629602060814165"
          fill="black" stroke="none" />

  <circle cx="21.49459275507318" cy="-100.0043962475959" r="7.7629602060814165"
          fill="black" stroke="none" />

  <circle cx="21.777306974052465" cy="-100.40304018491727" r="7.7629602060814165"
          fill="black" stroke="none" />

  <circle cx="22.15047950797709" cy="-99.53472390201345" r="7.7629602060814165"
          fill="black" stroke="none" />

  <circle cx="22.58578735899643" cy="-97.7256997352529" r="7.7629602060814165"
          fill="black" stroke="none" />

  <circle cx="23.03935760284528" cy="-95.89682349534596" r="7.7629602060814165"
          fill="black" stroke="none" />

  <circle cx="23.451929231748533" cy="-95.00840575933773" r="7.7629602060814165"
          fill="black" stroke="none" />

  <circle cx="23.754148818972034" cy="-95.4835610315088" r="7.7629602060814165"
          fill="black" stroke="none" />

  <circle cx="23.87899743064675" cy="-96.94364431114357" r="7.7629602060814165"
          fill="black" stroke="none" />

  <circle cx="23.78024949870843" cy="-98.41229867064686" r="7.7629602060814165"
          fill="black" stroke="none" />

  <circle cx="23.451853513245233" cy="-98.87432799101599" r="7.7629602060814165"
          fill="black" stroke="none" />

  <circle cx="22.940395961489436" cy="-97.86786467573162" r="7.7629602060814165"
          fill="black" stroke="none" />

  <circle cx="22.34335734188547" cy="-95.76490905061762" r="7.7629602060814165"
          fill="black" stroke="none" />

  <circle cx="21.79024041357711" cy="-93.57232502959911" r="7.7629602060814165"
          fill="black" stroke="none" />

  <circle cx="21.410378126387332" cy="-92.36219091014385" r="7.7629602060814165"
          fill="black" stroke="none" />

  <circle cx="21.297342957510878" cy="-92.65699361795092" r="7.7629602060814165"
          fill="black" stroke="none" />

  <circle cx="21.482331124443732" cy="-94.12477542390866" r="7.7629602060814165"
          fill="black" stroke="none" />

  <circle cx="21.92616363835555" cy="-95.76290428349519" r="7.7629602060814165"
          fill="black" stroke="none" />

  <circle cx="22.532559200636182" cy="-96.4674596716847" r="7.7629602060814165"
          fill="black" stroke="none" />

  <circle cx="23.177145518152493" cy="-95.66133422269651" r="7.7629602060814165"
          fill="black" stroke="none" />

  <circle cx="23.74100562640115" cy="-93.61871062066817" r="7.7629602060814165"
          fill="black" stroke="none" />

  <circle cx="24.136927026836975" cy="-91.29839555028413" r="7.7629602060814165"
          fill="black" stroke="none" />

  <circle cx="24.320978645122267" cy="-89.78301875371474" r="7.7629602060814165"
          fill="black" stroke="none" />

  <circle cx="24.2891504504401" cy="-89.65023957427533" r="7.7629602060814165"
          fill="black" stroke="none" />

  <circle cx="24.064939479486362" cy="-90.64212395762377" r="7.7629602060814165"
          fill="black" stroke="none" />

  <circle cx="23.68606617493068" cy="-91.82561619914661" r="7.7629602060814165"
          fill="black" stroke="none" />

  <circle cx="23.19627832685469" cy="-92.1506574693286" r="7.7629602060814165"
          fill="black" stroke="none" />

  <circle cx="22.643235198594425" cy="-91.07961822055128" r="7.7629602060814165"
          fill="black" stroke="none" />

  <circle cx="22.07891686777072" cy="-88.91851874888118" r="7.7629602060814165"
          fill="black" stroke="none" />

  <circle cx="21.557561922472008" cy="-86.65314058569287" r="7.7629602060814165"
          fill="black" stroke="none" />

  <circle cx="21.12849153942345" cy="-85.3818342078348" r="7.7629602060814165"
          fill="black" stroke="none" />

  <circle cx="20.825663171549458" cy="-85.67358677540555" r="7.7629602060814165"
          fill="black" stroke="none" />

  <circle cx="20.659405829466603" cy="-87.22617047375111" r="7.7629602060814165"
          fill="black" stroke="none" />

  <circle cx="20.615989472297215" cy="-89.02685996969151" r="7.7629602060814165"
          fill="black" stroke="none" />

  <circle cx="20.666983033579115" cy="-89.92659751577281" r="7.7629602060814165"
          fill="black" stroke="none" />

  <circle cx="20.784705346459848" cy="-89.29699533796152" r="7.7629602060814165"
          fill="black" stroke="none" />

  <circle cx="20.955810537525664" cy="-87.38924015336855" r="7.7629602060814165"
          fill="black" stroke="none" />

  <circle cx="21.184985260967583" cy="-85.18514487278853" r="7.7629602060814165"
          fill="black" stroke="none" />

  <circle cx="21.48543445778352" cy="-83.82473545793718" r="7.7629602060814165"
          fill="black" stroke="none" />

  <circle cx="21.86010797907244" cy="-83.94127130371783" r="7.7629602060814165"
          fill="black" stroke="none" />

  <circle cx="22.283586329001537" cy="-85.28984528033806" r="7.7629602060814165"
          fill="black" stroke="none" />

  <circle cx="22.69570111164155" cy="-86.88672622002912" r="7.7629602060814165"
          fill="black" stroke="none" />

  <circle cx="23.013190723232253" cy="-87.58068713618616" r="7.7629602060814165"
          fill="black" stroke="none" />

  <circle cx="23.15700853303315" cy="-86.7261593718978" r="7.7629602060814165"
          fill="black" stroke="none" />

  <circle cx="23.084562656119544" cy="-84.56736957850552" r="7.7629602060814165"
          fill="black" stroke="none" />

  <circle cx="22.81249140632613" cy="-82.10857911697842" r="7.7629602060814165"
          fill="black" stroke="none" />

  <circle cx="22.41867866737502" cy="-80.54261357111838" r="7.7629602060814165"
          fill="black" stroke="none" />

  <circle cx="22.020838329836057" cy="-80.56614819072175" r="7.7629602060814165"
          fill="black" stroke="none" />

  <circle cx="21.73912296355417" cy="-81.97701932883732" r="7.7629602060814165"
          fill="black" stroke="none" />

  <circle cx="21.65707230109848" cy="-83.78698520822903" r="7.7629602060814165"
          fill="black" stroke="none" />

  <circle cx="21.795696700049703" cy="-84.78610813527604" r="7.7629602060814165"
          fill="black" stroke="none" />

  <circle cx="22.109624424737834" cy="-84.23409960710428" r="7.7629602060814165"
          fill="black" stroke="none" />

  <circle cx="22.505056964988626" cy="-82.28050268173699" r="7.7629602060814165"
          fill="black" stroke="none" />

  <circle cx="22.87112369324778" cy="-79.87210003542529" r="7.7629602060814165"
          fill="black" stroke="none" />

  <circle cx="23.11254065845943" cy="-78.20199084816045" r="7.7629602060814165"
          fill="black" stroke="none" />

  <circle cx="23.173181291685225" cy="-78.01920502446808" r="7.7629602060814165"
          fill="black" stroke="none" />

  <circle cx="23.04551622107586" cy="-79.19769310346548" r="7.7629602060814165"
          fill="black" stroke="none" />

  <circle cx="22.766721777093448" cy="-80.8129837668173" r="7.7629602060814165"
          fill="black" stroke="none" />

  <circle cx="22.405885848196256" cy="-81.68101427511388" r="7.7629602060814165"
          fill="black" stroke="none" />

  <circle cx="22.047265036810675" cy="-81.04661085862139" r="7.7629602060814165"
          fill="black" stroke="none" />

  <circle cx="21.773037289540323" cy="-79.02312346978735" r="7.7629602060814165"
          fill="black" stroke="none" />

  <circle cx="21.647426264556557" cy="-76.52919078170316" r="7.7629602060814165"
          fill="black" stroke="none" />

  <circle cx="21.7038343213884" cy="-74.75962179585528" r="7.7629602060814165"
          fill="black" stroke="none" />

  <circle cx="21.937548434176797" cy="-74.49648938036472" r="7.7629602060814165"
          fill="black" stroke="none" />

  <circle cx="22.30716488315202" cy="-75.65830891383443" r="7.7629602060814165"
          fill="black" stroke="none" />

  <circle cx="22.74646445869402" cy="-77.34701227097848" r="7.7629602060814165"
          fill="black" stroke="none" />

  <circle cx="23.184690783620397" cy="-78.36468436130454" r="7.7629602060814165"
          fill="black" stroke="none" />

  <circle cx="23.568589799506213" cy="-77.90124666155423" r="7.7629602060814165"
          fill="black" stroke="none" />

  <circle cx="23.876957433548863" cy="-75.99670219198009" r="7.7629602060814165"
          fill="black" stroke="none" />

  <circle cx="24.120178843360563" cy="-73.51293420747206" r="7.7629602060814165"
          fill="black" stroke="none" />

  <circle cx="24.323543758825068" cy="-71.63373797338285" r="7.7629602060814165"
          fill="black" stroke="none" />

  <circle cx="24.50143547902276" cy="-71.18348265717027" r="7.7629602060814165"
          fill="black" stroke="none" />

  <circle cx="24.63551221608947" cy="-72.1578286543843" r="7.7629602060814165"
          fill="black" stroke="none" />

  <circle cx="24.669934995639156" cy="-73.73556799477845" r="7.7629602060814165"
          fill="black" stroke="none" />

  <circle cx="24.529562186252875" cy="-74.76171709401984" r="7.7629602060814165"
          fill="black" stroke="none" />

  <circle cx="24.155631381566327" cy="-74.42016471441228" r="7.7629602060814165"
          fill="black" stroke="none" />

  <circle cx="23.54331149790396" cy="-72.70628383386104" r="7.7629602060814165"
          fill="black" stroke="none" />

  <circle cx="22.762158981837935" cy="-70.42738963140847" r="7.7629602060814165"
          fill="black" stroke="none" />

  <circle cx="21.946474663263153" cy="-68.73282133234517" r="7.7629602060814165"
          fill="black" stroke="none" />

  <circle cx="21.2557081499218" cy="-68.44688146576334" r="7.7629602060814165"
          fill="black" stroke="none" />

  <circle cx="20.81935881089481" cy="-69.59027968210036" r="7.7629602060814165"
          fill="black" stroke="none" />

  <circle cx="20.689209739775748" cy="-71.36513676144509" r="7.7629602060814165"
          fill="black" stroke="none" />

  <circle cx="20.819714891333895" cy="-72.61008097003088" r="7.7629602060814165"
          fill="black" stroke="none" />

  <circle cx="21.085472399083642" cy="-72.46131374439241" r="7.7629602060814165"
          fill="black" stroke="none" />

  <circle cx="21.328438102306578" cy="-70.8387973621278" r="7.7629602060814165"
          fill="black" stroke="none" />

  <circle cx="21.414640040427084" cy="-68.48017873558145" r="7.7629602060814165"
          fill="black" stroke="none" />

  <circle cx="21.276818683056284" cy="-66.50749861063336" r="7.7629602060814165"
          fill="black" stroke="none" />

  <circle cx="20.927066315674278" cy="-65.78064319213824" r="7.7629602060814165"
          fill="black" stroke="none" />

  <circle cx="20.438139466452903" cy="-66.41174000743027" r="7.7629602060814165"
          fill="black" stroke="none" />

  <circle cx="19.90627965662351" cy="-67.7180961485947" r="7.7629602060814165"
          fill="black" stroke="none" />

  <circle cx="19.415177125712447" cy="-68.63534660476233" r="7.7629602060814165"
          fill="black" stroke="none" />

  <circle cx="19.017231737771986" cy="-68.34632643512627" r="7.7629602060814165"
          fill="black" stroke="none" />

  <circle cx="18.7369825081026" cy="-66.7586844003518" r="7.7629602060814165"
          fill="black" stroke="none" />

  <circle cx="18.588899099294142" cy="-64.55511297102245" r="7.7629602060814165"
          fill="black" stroke="none" />

  <circle cx="18.594488680028938" cy="-62.79009956771351" r="7.7629602060814165"
          fill="black" stroke="none" />

  <circle cx="18.785487959237685" cy="-62.27044434781365" r="7.7629602060814165"
          fill="black" stroke="none" />

  <circle cx="19.189354404099372" cy="-63.080884974084356" r="7.7629602060814165"
          fill="black" stroke="none" />

  <circle cx="19.80479276939345" cy="-64.5300600268979" r="7.7629602060814165"
          fill="black" stroke="none" />

  <circle cx="20.58210954610984" cy="-65.54688875057764" r="7.7629602060814165"
          fill="black" stroke="none" />

  <circle cx="21.421833530057242" cy="-65.29614956592584" r="7.7629602060814165"
          fill="black" stroke="none" />

  <circle cx="22.19602582966133" cy="-63.65600700624455" r="7.7629602060814165"
          fill="black" stroke="none" />

  <circle cx="22.784965828594487" cy="-61.281724805502044" r="7.7629602060814165"
          fill="black" stroke="none" />

  <circle cx="23.11378703094154" cy="-59.22058649812286" r="7.7629602060814165"
          fill="black" stroke="none" />

  <circle cx="23.173417329312713" cy="-58.302996780026426" r="7.7629602060814165"
          fill="black" stroke="none" />

  <circle cx="23.017779085411757" cy="-58.66337452548869" r="7.7629602060814165"
          fill="black" stroke="none" />

  <circle cx="22.740380273483417" cy="-59.66798655719428" r="7.7629602060814165"
          fill="black" stroke="none" />

  <circle cx="22.442212619774928" cy="-60.29044131365528" r="7.7629602060814165"
          fill="black" stroke="none" />

  <circle cx="22.20490002109396" cy="-59.71648286487836" r="7.7629602060814165"
          fill="black" stroke="none" />

  <circle cx="22.077869754569683" cy="-57.827697199922184" r="7.7629602060814165"
          fill="black" stroke="none" />

  <circle cx="22.07949239834332" cy="-55.284369860365445" r="7.7629602060814165"
          fill="black" stroke="none" />

  <circle cx="22.204993230499063" cy="-53.1593461431623" r="7.7629602060814165"
          fill="black" stroke="none" />

  <circle cx="22.432472586774473" cy="-52.33313203806694" r="7.7629602060814165"
          fill="black" stroke="none" />

  <circle cx="22.72294890598272" cy="-52.996811135797174" r="7.7629602060814165"
          fill="black" stroke="none" />

  <circle cx="23.017563734989523" cy="-54.54600910737942" r="7.7629602060814165"
          fill="black" stroke="none" />

  <circle cx="23.23990992579469" cy="-55.92385219107183" r="7.7629602060814165"
          fill="black" stroke="none" />

  <circle cx="23.31024691059073" cy="-56.21415753446523" r="7.7629602060814165"
          fill="black" stroke="none" />

  <circle cx="23.171267836029354" cy="-55.14544533890544" r="7.7629602060814165"
          fill="black" stroke="none" />

  <circle cx="22.816063504312496" cy="-53.221292068795385" r="7.7629602060814165"
          fill="black" stroke="none" />

  <circle cx="22.303656037923265" cy="-51.40952429471418" r="7.7629602060814165"
          fill="black" stroke="none" />

  <circle cx="21.75000798163338" cy="-50.575585057538184" r="7.7629602060814165"
          fill="black" stroke="none" />

  <circle cx="21.292634216394312" cy="-50.98869158569434" r="7.7629602060814165"
          fill="black" stroke="none" />

  <circle cx="21.040243596122682" cy="-52.18231982173654" r="7.7629602060814165"
          fill="black" stroke="none" />

  <circle cx="21.028317662302758" cy="-53.24259136457427" r="7.7629602060814165"
          fill="black" stroke="none" />

  <circle cx="21.20164163970376" cy="-53.35089761771085" r="7.7629602060814165"
          fill="black" stroke="none" />

  <circle cx="21.43444524898218" cy="-52.26325687855181" r="7.7629602060814165"
          fill="black" stroke="none" />

  <circle cx="21.582245809592365" cy="-50.44988145342646" r="7.7629602060814165"
          fill="black" stroke="none" />

  <circle cx="21.544425721655834" cy="-48.818249536327755" r="7.7629602060814165"
          fill="black" stroke="none" />

  <circle cx="21.310415389878735" cy="-48.18448918236202" r="7.7629602060814165"
          fill="black" stroke="none" />

  <circle cx="20.968441530900314" cy="-48.8013576611961" r="7.7629602060814165"
          fill="black" stroke="none" />

  <circle cx="20.67168217707349" cy="-50.215001006337346" r="7.7629602060814165"
          fill="black" stroke="none" />

  <circle cx="20.57519082789714" cy="-51.529964522163425" r="7.7629602060814165"
          fill="black" stroke="none" />

  <circle cx="20.769693231035305" cy="-51.92557816345999" r="7.7629602060814165"
          fill="black" stroke="none" />

  <circle cx="21.23964823280869" cy="-51.12366443319762" r="7.7629602060814165"
          fill="black" stroke="none" />

  <circle cx="21.862481017160015" cy="-49.538972529687854" r="7.7629602060814165"
          fill="black" stroke="none" />

  <circle cx="22.448647057321754" cy="-48.02963158172979" r="7.7629602060814165"
          fill="black" stroke="none" />

  <circle cx="22.805941982491536" cy="-47.3962323242661" r="7.7629602060814165"
          fill="black" stroke="none" />

  <circle cx="22.803065935542513" cy="-47.921001113171684" r="7.7629602060814165"
          fill="black" stroke="none" />

  <circle cx="22.409745457519385" cy="-49.2116664011345" r="7.7629602060814165"
          fill="black" stroke="none" />

  <circle cx="21.70167604996892" cy="-50.435643116965934" r="7.7629602060814165"
          fill="black" stroke="none" />

  <circle cx="20.832658583678135" cy="-50.80418739722499" r="7.7629602060814165"
          fill="black" stroke="none" />

  <circle cx="19.98743732878338" cy="-50.02411052223813" r="7.7629602060814165"
          fill="black" stroke="none" />

  <circle cx="19.33296866970142" cy="-48.457339683671385" r="7.7629602060814165"
          fill="black" stroke="none" />

  <circle cx="18.982805636415193" cy="-46.90082890503436" r="7.7629602060814165"
          fill="black" stroke="none" />

  <circle cx="18.981729000450272" cy="-46.11969668165983" r="7.7629602060814165"
          fill="black" stroke="none" />

  <circle cx="19.30970805178037" cy="-46.40710469838871" r="7.7629602060814165"
          fill="black" stroke="none" />

  <circle cx="19.898927935032248" cy="-47.42505284548714" r="7.7629602060814165"
          fill="black" stroke="none" />

  <circle cx="20.65609877358009" cy="-48.41413785138624" r="7.7629602060814165"
          fill="black" stroke="none" />

  <circle cx="21.483676119779137" cy="-48.64529159105339" r="7.7629602060814165"
          fill="black" stroke="none" />

  <circle cx="22.296141618274955" cy="-47.847601036227715" r="7.7629602060814165"
          fill="black" stroke="none" />

  <circle cx="23.029627312933666" cy="-46.36309311991106" r="7.7629602060814165"
          fill="black" stroke="none" />

  <circle cx="23.644487734135286" cy="-44.9404828018683" r="7.7629602060814165"
          fill="black" stroke="none" />

  <circle cx="24.121403508376932" cy="-44.29058470095957" r="7.7629602060814165"
          fill="black" stroke="none" />

  <circle cx="24.45284818324327" cy="-44.66389442233633" r="7.7629602060814165"
          fill="black" stroke="none" />

  <circle cx="24.633266554288703" cy="-45.69660561049171" r="7.7629602060814165"
          fill="black" stroke="none" />

  <circle cx="24.652313193165078" cy="-46.614516997896146" r="7.7629602060814165"
          fill="black" stroke="none" />

  <circle cx="24.494935211581637" cy="-46.676650810640524" r="7.7629602060814165"
          fill="black" stroke="none" />

  <circle cx="24.149497263730066" cy="-45.60222262456391" r="7.7629602060814165"
          fill="black" stroke="none" />

  <circle cx="23.621263101520917" cy="-43.73503274079974" r="7.7629602060814165"
          fill="black" stroke="none" />

  <circle cx="22.94513395830596" cy="-41.85123726827954" r="7.7629602060814165"
          fill="black" stroke="none" />

  <circle cx="22.190544554230982" cy="-40.7213361336442" r="7.7629602060814165"
          fill="black" stroke="none" />

  <circle cx="21.453824270412618" cy="-40.67703898677985" r="7.7629602060814165"
          fill="black" stroke="none" />

  <circle cx="20.838455229228437" cy="-41.42895701536935" r="7.7629602060814165"
          fill="black" stroke="none" />

  <circle cx="20.429283455557055" cy="-42.23606540660028" r="7.7629602060814165"
          fill="black" stroke="none" />

  <circle cx="20.270141401964043" cy="-42.32708391391814" r="7.7629602060814165"
          fill="black" stroke="none" />

  <circle cx="20.353677567564404" cy="-41.33260797667245" r="7.7629602060814165"
          fill="black" stroke="none" />

  <circle cx="20.627510926426833" cy="-39.48462630442626" r="7.7629602060814165"
          fill="black" stroke="none" />

  <circle cx="21.014151180617887" cy="-37.475967903870696" r="7.7629602060814165"
          fill="black" stroke="none" />

  <circle cx="21.43650212948008" cy="-36.066452986127224" r="7.7629602060814165"
          fill="black" stroke="none" />

  <circle cx="21.838799765174144" cy="-35.66348585309529" r="7.7629602060814165"
          fill="black" stroke="none" />

  <circle cx="22.195408554755456" cy="-36.11346434371933" r="7.7629602060814165"
          fill="black" stroke="none" />

  <circle cx="22.505734043096588" cy="-36.81471508398366" r="7.7629602060814165"
          fill="black" stroke="none" />

  <circle cx="22.779810522721377" cy="-37.07738381394239" r="7.7629602060814165"
          fill="black" stroke="none" />

  <circle cx="23.022936197115037" cy="-36.517852740672524" r="7.7629602060814165"
          fill="black" stroke="none" />

  <circle cx="23.227362085935102" cy="-35.26227060249889" r="7.7629602060814165"
          fill="black" stroke="none" />

  <circle cx="23.374838149102295" cy="-33.84984421149078" r="7.7629602060814165"
          fill="black" stroke="none" />

  <circle cx="23.447942018325904" cy="-32.90183697067782" r="7.7629602060814165"
          fill="black" stroke="none" />

  <circle cx="23.443466108473253" cy="-32.75469793110726" r="7.7629602060814165"
          fill="black" stroke="none" />

  <circle cx="23.37996965021148" cy="-33.27046319635958" r="7.7629602060814165"
          fill="black" stroke="none" />

  <circle cx="23.294463571258994" cy="-33.929136904047866" r="7.7629602060814165"
          fill="black" stroke="none" />

  <circle cx="23.2287046163436" cy="-34.14179754012736" r="7.7629602060814165"
          fill="black" stroke="none" />

  <circle cx="23.21107767611729" cy="-33.59687407810667" r="7.7629602060814165"
          fill="black" stroke="none" />

  <circle cx="23.242854155733518" cy="-32.437380028425885" r="7.7629602060814165"
          fill="black" stroke="none" />

  <circle cx="23.296247788973854" cy="-31.169701224746653" r="7.7629602060814165"
          fill="black" stroke="none" />

  <circle cx="23.326573924118453" cy="-30.362593671144502" r="7.7629602060814165"
          fill="black" stroke="none" />

  <circle cx="23.294148761538246" cy="-30.315590354442797" r="7.7629602060814165"
          fill="black" stroke="none" />

  <circle cx="23.186379960677552" cy="-30.89003222280124" r="7.7629602060814165"
          fill="black" stroke="none" />

  <circle cx="23.029353359127686" cy="-31.59759739386144" r="7.7629602060814165"
          fill="black" stroke="none" />

  <circle cx="22.88200197388217" cy="-31.88987677561756" r="7.7629602060814165"
          fill="black" stroke="none" />

  <circle cx="22.81335893940957" cy="-31.47705523372242" r="7.7629602060814165"
          fill="black" stroke="none" />

  <circle cx="22.871373485699976" cy="-30.490315318230284" r="7.7629602060814165"
          fill="black" stroke="none" />

  <circle cx="23.056687098197962" cy="-29.39689463723044" r="7.7629602060814165"
          fill="black" stroke="none" />

  <circle cx="23.31404489347863" cy="-28.72194104317766" r="7.7629602060814165"
          fill="black" stroke="none" />

  <circle cx="23.54739751469645" cy="-28.742223519154038" r="7.7629602060814165"
          fill="black" stroke="none" />

  <circle cx="23.654660074522155" cy="-29.329782198777615" r="7.7629602060814165"
          fill="black" stroke="none" />

  <circle cx="23.568819106575386" cy="-30.033171879141378" r="7.7629602060814165"
          fill="black" stroke="none" />

  <circle cx="23.287963599839262" cy="-30.344571015891557" r="7.7629602060814165"
          fill="black" stroke="none" />

  <circle cx="22.880250791038243" cy="-29.994448996108275" r="7.7629602060814165"
          fill="black" stroke="none" />

  <circle cx="22.459904031449554" cy="-29.102776801927007" r="7.7629602060814165"
          fill="black" stroke="none" />

  <circle cx="22.14298516126884" cy="-28.10233950409905" r="7.7629602060814165"
          fill="black" stroke="none" />

  <circle cx="22.001229998869885" cy="-27.48332951613179" r="7.7629602060814165"
          fill="black" stroke="none" />

  <circle cx="22.034016514951126" cy="-27.51066896997755" r="7.7629602060814165"
          fill="black" stroke="none" />

  <circle cx="22.17120086197876" cy="-28.077864040857087" r="7.7629602060814165"
          fill="black" stroke="none" />

  <circle cx="22.30599625376348" cy="-28.77844064322864" r="7.7629602060814165"
          fill="black" stroke="none" />

  <circle cx="22.343339473368044" cy="-29.148203520638425" r="7.7629602060814165"
          fill="black" stroke="none" />

  <circle cx="22.241791039702147" cy="-28.933785093900667" r="7.7629602060814165"
          fill="black" stroke="none" />

  <circle cx="22.0297467536349" cy="-28.23122512027266" r="7.7629602060814165"
          fill="black" stroke="none" />

  <circle cx="21.788667876679906" cy="-27.41750605084267" r="7.7629602060814165"
          fill="black" stroke="none" />

  <circle cx="21.61169815681958" cy="-26.920054330945405" r="7.7629602060814165"
          fill="black" stroke="none" />

  <circle cx="21.55790816574556" cy="-26.962357184269713" r="7.7629602060814165"
          fill="black" stroke="none" />

  <circle cx="21.624567978138213" cy="-27.434595312419173" r="7.7629602060814165"
          fill="black" stroke="none" />

  <circle cx="21.75100432675017" cy="-27.96215503931852" r="7.7629602060814165"
          fill="black" stroke="none" />

  <circle cx="21.851913092683102" cy="-28.128177879003843" r="7.7629602060814165"
          fill="black" stroke="none" />

  <circle cx="21.8631864057879" cy="-27.71765350312171" r="7.7629602060814165"
          fill="black" stroke="none" />

  <circle cx="21.77684292158876" cy="-26.840847738123824" r="7.7629602060814165"
          fill="black" stroke="none" />

  <circle cx="21.646933939074934" cy="-25.86694796745657" r="7.7629602060814165"
          fill="black" stroke="none" />

  <circle cx="21.562847129035504" cy="-25.21036258539371" r="7.7629602060814165"
          fill="black" stroke="none" />

  <circle cx="21.602983994740065" cy="-25.09644975149761" r="7.7629602060814165"
          fill="black" stroke="none" />

  <circle cx="21.791942906363197" cy="-25.44223501974969" r="7.7629602060814165"
          fill="black" stroke="none" />

  <circle cx="22.08285219708724" cy="-25.917621109002024" r="7.7629602060814165"
          fill="black" stroke="none" />

  <circle cx="22.37403660342282" cy="-26.146321936180513" r="7.7629602060814165"
          fill="black" stroke="none" />

  <circle cx="22.552077469857792" cy="-25.92592026254236" r="7.7629602060814165"
          fill="black" stroke="none" />

  <circle cx="22.540282775237017" cy="-25.338791702969065" r="7.7629602060814165"
          fill="black" stroke="none" />

  <circle cx="22.329262805671718" cy="-24.692757220529515" r="7.7629602060814165"
          fill="black" stroke="none" />

  <circle cx="21.975793778100133" cy="-24.331216708221426" r="7.7629602060814165"
          fill="black" stroke="none" />

  <circle cx="21.572394120271067" cy="-24.427529996839528" r="7.7629602060814165"
          fill="black" stroke="none" />

  <circle cx="21.204512353719295" cy="-24.884492284603247" r="7.7629602060814165"
          fill="black" stroke="none" />

  <circle cx="20.917439865461503" cy="-25.395138614782326" r="7.7629602060814165"
          fill="black" stroke="none" />

  <circle cx="20.70852054007085" cy="-25.625345437306162" r="7.7629602060814165"
          fill="black" stroke="none" />

  <circle cx="20.545731617922677" cy="-25.408500388362516" r="7.7629602060814165"
          fill="black" stroke="none" />

  <circle cx="20.399273949107858" cy="-24.838229869815827" r="7.7629602060814165"
          fill="black" stroke="none" />

  <circle cx="20.266319448008925" cy="-24.207609197324086" r="7.7629602060814165"
          fill="black" stroke="none" />

  <circle cx="20.17398313017266" cy="-23.834217630383634" r="7.7629602060814165"
          fill="black" stroke="none" />

  <circle cx="20.159062733583465" cy="-23.875948911535687" r="7.7629602060814165"
          fill="black" stroke="none" />

  <circle cx="20.23748947251481" cy="-24.245007801104922" r="7.7629602060814165"
          fill="black" stroke="none" />

  <circle cx="20.38352033961646" cy="-24.667236688878265" r="7.7629602060814165"
          fill="black" stroke="none" />

  <circle cx="20.534180619410872" cy="-24.847788730050695" r="7.7629602060814165"
          fill="black" stroke="none" />

  <circle cx="20.62043765612084" cy="-24.64327936430962" r="7.7629602060814165"
          fill="black" stroke="none" />

  <circle cx="20.610545845970606" cy="-24.139794564401512" r="7.7629602060814165"
          fill="black" stroke="none" />

  <circle cx="20.541860637386925" cy="-23.59418822465218" r="7.7629602060814165"
          fill="black" stroke="none" />

  <circle cx="20.520687579532215" cy="-23.27720839990042" r="7.7629602060814165"
          fill="black" stroke="none" />

  <circle cx="20.684441585048027" cy="-23.312935434169717" r="7.7629602060814165"
          fill="black" stroke="none" />

  <circle cx="21.139426851869583" cy="-23.607815943506417" r="7.7629602060814165"
          fill="black" stroke="none" />

  <circle cx="21.901256476695433" cy="-23.906843506231372" r="7.7629602060814165"
          fill="black" stroke="none" />

  <circle cx="22.86610808785924" cy="-23.93880582283874" r="7.7629602060814165"
          fill="black" stroke="none" />

  <circle cx="23.828643413534365" cy="-23.562245454082163" r="7.7629602060814165"
          fill="black" stroke="none" />

  <circle cx="24.542225049019326" cy="-22.827645940838586" r="7.7629602060814165"
          fill="black" stroke="none" />

  <circle cx="24.798589244784445" cy="-21.9250780756825" r="7.7629602060814165"
          fill="black" stroke="none" />

  <circle cx="24.495953807928537" cy="-21.05630053806861" r="7.7629602060814165"
          fill="black" stroke="none" />

  <circle cx="23.67007767745828" cy="-20.31376143937781" r="7.7629602060814165"
          fill="black" stroke="none" />

  <circle cx="22.4788682050014" cy="-19.64080090807519" r="7.7629602060814165"
          fill="black" stroke="none" />

  <circle cx="21.14988817188822" cy="-18.89411371199895" r="7.7629602060814165"
          fill="black" stroke="none" />

  <circle cx="19.91310423524089" cy="-17.964819734614647" r="7.7629602060814165"
          fill="black" stroke="none" />

  <circle cx="18.94350915847104" cy="-16.87816339726011" r="7.7629602060814165"
          fill="black" stroke="none" />

  <circle cx="18.33040145543938" cy="-15.805760008961377" r="7.7629602060814165"
          fill="black" stroke="none" />

  <circle cx="18.077211922851053" cy="-14.979301078936006" r="7.7629602060814165"
          fill="black" stroke="none" />

  <circle cx="18.1243351939343" cy="-14.556598901449048" r="7.7629602060814165"
          fill="black" stroke="none" />

  <circle cx="18.381956527584364" cy="-14.521691958607917" r="7.7629602060814165"
          fill="black" stroke="none" />

  <circle cx="18.76097992881737" cy="-14.681555442736908" r="7.7629602060814165"
          fill="black" stroke="none" />

  <circle cx="19.19510280404184" cy="-14.764413130767835" r="7.7629602060814165"
          fill="black" stroke="none" />

  <circle cx="19.65198867143217" cy="-14.563659667375767" r="7.7629602060814165"
          fill="black" stroke="none" />

  <circle cx="20.133932614523008" cy="-14.043899786826572" r="7.7629602060814165"
          fill="black" stroke="none" />

  <circle cx="20.66860326585778" cy="-13.34815178944178" r="7.7629602060814165"
          fill="black" stroke="none" />

  <circle cx="21.290515000740758" cy="-12.704127118716196" r="7.7629602060814165"
          fill="black" stroke="none" />

  <circle cx="22.015880432317964" cy="-12.287123378040146" r="7.7629602060814165"
          fill="black" stroke="none" />

  <circle cx="22.81748904474195" cy="-12.121629370221672" r="7.7629602060814165"
          fill="black" stroke="none" />

  <circle cx="23.609918515647465" cy="-12.078776044462744" r="7.7629602060814165"
          fill="black" stroke="none" />

  <circle cx="24.2553521894013" cy="-11.967793471924697" r="7.7629602060814165"
          fill="black" stroke="none" />

  <circle cx="24.594537605818726" cy="-11.662609552549801" r="7.7629602060814165"
          fill="black" stroke="none" />

  <circle cx="24.497145402270792" cy="-11.184198741189693" r="7.7629602060814165"
          fill="black" stroke="none" />

  <circle cx="23.91533447160132" cy="-10.687478792474257" r="7.7629602060814165"
          fill="black" stroke="none" />

  <circle cx="22.91921584855768" cy="-10.361017503004314" r="7.7629602060814165"
          fill="black" stroke="none" />

  <circle cx="21.696774673294208" cy="-10.302100418595861" r="7.7629602060814165"
          fill="black" stroke="none" />

  <circle cx="20.513111054576594" cy="-10.445545102628918" r="7.7629602060814165"
          fill="black" stroke="none" />

  <circle cx="19.639703162719044" cy="-10.592178442782496" r="7.7629602060814165"
          fill="black" stroke="none" />

  <circle cx="19.27676687146929" cy="-10.521762764321572" r="7.7629602060814165"
          fill="black" stroke="none" />

  <circle cx="19.49504848156561" cy="-10.122654001541452" r="7.7629602060814165"
          fill="black" stroke="none" />

  <circle cx="20.216147137769667" cy="-9.45891157067582" r="7.7629602060814165"
          fill="black" stroke="none" />

  <circle cx="21.236228335345885" cy="-8.732552558947354" r="7.7629602060814165"
          fill="black" stroke="none" />

  <circle cx="22.2832471072828" cy="-8.162182156313207" r="7.7629602060814165"
          fill="black" stroke="none" />

  <circle cx="23.088608146151486" cy="-7.850870846848007" r="7.7629602060814165"
          fill="black" stroke="none" />

  <circle cx="23.453201116696295" cy="-7.724139579758003" r="7.7629602060814165"
          fill="black" stroke="none" />

  <circle cx="23.29330201208502" cy="-7.5776176341829835" r="7.7629602060814165"
          fill="black" stroke="none" />

  <circle cx="22.659538032874842" cy="-7.207606962753029" r="7.7629602060814165"
          fill="black" stroke="none" />

  <circle cx="21.727869391813297" cy="-6.546292421609955" r="7.7629602060814165"
          fill="black" stroke="none" />

  <circle cx="20.764054641471134" cy="-5.718258689235262" r="7.7629602060814165"
          fill="black" stroke="none" />

  <circle cx="20.064312530902292" cy="-4.980372598317189" r="7.7629602060814165"
          fill="black" stroke="none" />

  <circle cx="19.878203405778414" cy="-4.576612653024666" r="7.7629602060814165"
          fill="black" stroke="none" />

  <circle cx="20.326762633715514" cy="-4.5916983338572415" r="7.7629602060814165"
          fill="black" stroke="none" />

  <circle cx="21.33744017549684" cy="-4.890631041940054" r="7.7629602060814165"
          fill="black" stroke="none" />

  <circle cx="22.621840186311974" cy="-5.182581445281177" r="7.7629602060814165"
          fill="black" stroke="none" />

  <circle cx="23.71669649520644" cy="-5.175047041792224" r="7.7629602060814165"
          fill="black" stroke="none" />

</svg>
