
<svg xmlns="http://www.w3.org/2000/svg"
     viewBox="-0.41313197306891114 -18.481781111684956 6.640200457803479 20.755747370266945"
     width="800" height="600"
     preserveAspectRatio="xMidYMid meet">

  <circle cx="0.5303110892159499" cy="-17.538338049400096" r="0.09434430622848611"
          fill="black" stroke="none" />

  <circle cx="0.566001547672579" cy="-17.110261088253857" r="0.09434430622848611"
          fill="black" stroke="none" />

  <circle cx="0.5995537479799845" cy="-16.777010476762438" r="0.09434430622848611"
          fill="black" stroke="none" />

  <circle cx="0.6348794977287702" cy="-16.69013938355976" r="0.09434430622848611"
          fill="black" stroke="none" />

  <circle cx="0.6732667318890375" cy="-16.823369255166362" r="0.09434430622848611"
          fill="black" stroke="none" />

  <circle cx="0.7133241717430875" cy="-17.03620928688744" r="0.09434430622848611"
          fill="black" stroke="none" />

  <circle cx="0.7521778110639018" cy="-17.173636983974376" r="0.09434430622848611"
          fill="black" stroke="none" />

  <circle cx="0.7872390783327325" cy="-17.150542648756726" r="0.09434430622848611"
          fill="black" stroke="none" />

  <circle cx="0.8176288767312694" cy="-16.984114422645582" r="0.09434430622848611"
          fill="black" stroke="none" />

  <circle cx="0.8445677261470504" cy="-16.76750861601053" r="0.09434430622848611"
          fill="black" stroke="none" />

  <circle cx="0.8706068119029216" cy="-16.60775499064781" r="0.09434430622848611"
          fill="black" stroke="none" />

  <circle cx="0.8981809596150969" cy="-16.565424344138705" r="0.09434430622848611"
          fill="black" stroke="none" />

  <circle cx="0.9282968580581927" cy="-16.627530559136478" r="0.09434430622848611"
          fill="black" stroke="none" />

  <circle cx="0.960060827201521" cy="-16.723769308896603" r="0.09434430622848611"
          fill="black" stroke="none" />

  <circle cx="0.991269282671327" cy="-16.772102798405243" r="0.09434430622848611"
          fill="black" stroke="none" />

  <circle cx="1.0196989646108228" cy="-16.725657520743336" r="0.09434430622848611"
          fill="black" stroke="none" />

  <circle cx="1.044362336579848" cy="-16.595239503810795" r="0.09434430622848611"
          fill="black" stroke="none" />

  <circle cx="1.0660339530750795" cy="-16.437629310088546" r="0.09434430622848611"
          fill="black" stroke="none" />

  <circle cx="1.0867752455705004" cy="-16.319438737965953" r="0.09434430622848611"
          fill="black" stroke="none" />

  <circle cx="1.1087481718818593" cy="-16.278789598557324" r="0.09434430622848611"
          fill="black" stroke="none" />

  <circle cx="1.1329980909801636" cy="-16.306281847603294" r="0.09434430622848611"
          fill="black" stroke="none" />

  <circle cx="1.1588891950016738" cy="-16.354210732089342" r="0.09434430622848611"
          fill="black" stroke="none" />

  <circle cx="1.1844964924041728" cy="-16.366575235472112" r="0.09434430622848611"
          fill="black" stroke="none" />

  <circle cx="1.207715011024804" cy="-16.311430588473335" r="0.09434430622848611"
          fill="black" stroke="none" />

  <circle cx="1.227447117768802" cy="-16.197233147924017" r="0.09434430622848611"
          fill="black" stroke="none" />

  <circle cx="1.2441957075450125" cy="-16.06514142791343" r="0.09434430622848611"
          fill="black" stroke="none" />

  <circle cx="1.2597382266697887" cy="-15.963312171410621" r="0.09434430622848611"
          fill="black" stroke="none" />

  <circle cx="1.2760826497506654" cy="-15.918956054210561" r="0.09434430622848611"
          fill="black" stroke="none" />

  <circle cx="1.2943110587052622" cy="-15.924141092300143" r="0.09434430622848611"
          fill="black" stroke="none" />

  <circle cx="1.3139710803106674" cy="-15.94253625058159" r="0.09434430622848611"
          fill="black" stroke="none" />

  <circle cx="1.333353261755207" cy="-15.931976893341869" r="0.09434430622848611"
          fill="black" stroke="none" />

  <circle cx="1.3504816681218452" cy="-15.869054513154108" r="0.09434430622848611"
          fill="black" stroke="none" />

  <circle cx="1.3642396022499192" cy="-15.761574052816844" r="0.09434430622848611"
          fill="black" stroke="none" />

  <circle cx="1.3749833091686114" cy="-15.642417456112247" r="0.09434430622848611"
          fill="black" stroke="none" />

  <circle cx="1.3842998785192717" cy="-15.549302811905886" r="0.09434430622848611"
          fill="black" stroke="none" />

  <circle cx="1.3940631957987955" cy="-15.502749793396005" r="0.09434430622848611"
          fill="black" stroke="none" />

  <circle cx="1.4053452978573022" cy="-15.494972121456454" r="0.09434430622848611"
          fill="black" stroke="none" />

  <circle cx="1.417817850209054" cy="-15.495553650100117" r="0.09434430622848611"
          fill="black" stroke="none" />

  <circle cx="1.4299874939684105" cy="-15.469887577708166" r="0.09434430622848611"
          fill="black" stroke="none" />

  <circle cx="1.440120475605404" cy="-15.399238688550957" r="0.09434430622848611"
          fill="black" stroke="none" />

  <circle cx="1.4473105613082977" cy="-15.290858699347195" r="0.09434430622848611"
          fill="black" stroke="none" />

  <circle cx="1.4520623846718406" cy="-15.172787636351114" r="0.09434430622848611"
          fill="black" stroke="none" />

  <circle cx="1.45604650312141" cy="-15.076974347783107" r="0.09434430622848611"
          fill="black" stroke="none" />

  <circle cx="1.461166397440923" cy="-15.020883138591495" r="0.09434430622848611"
          fill="black" stroke="none" />

  <circle cx="1.4684796186610725" cy="-14.99819093969633" r="0.09434430622848611"
          fill="black" stroke="none" />

  <circle cx="1.4776015573053594" cy="-14.983525793493877" r="0.09434430622848611"
          fill="black" stroke="none" />

  <circle cx="1.4869408942458253" cy="-14.947940167434453" r="0.09434430622848611"
          fill="black" stroke="none" />

  <circle cx="1.4946332259351298" cy="-14.87578693825451" r="0.09434430622848611"
          fill="black" stroke="none" />

  <circle cx="1.4996340796508707" cy="-14.773236215953542" r="0.09434430622848611"
          fill="black" stroke="none" />

  <circle cx="1.5023398917337305" cy="-14.663863642861564" r="0.09434430622848611"
          fill="black" stroke="none" />

  <circle cx="1.5043790979316247" cy="-14.574357324349133" r="0.09434430622848611"
          fill="black" stroke="none" />

  <circle cx="1.5076961438952434" cy="-14.518964032397667" r="0.09434430622848611"
          fill="black" stroke="none" />

  <circle cx="1.5134597737998154" cy="-14.49169881529448" r="0.09434430622848611"
          fill="black" stroke="none" />

  <circle cx="1.5214264934242094" cy="-14.470533975149724" r="0.09434430622848611"
          fill="black" stroke="none" />

  <circle cx="1.530123612106396" cy="-14.43071949408515" r="0.09434430622848611"
          fill="black" stroke="none" />

  <circle cx="1.5377394644294493" cy="-14.359215783550805" r="0.09434430622848611"
          fill="black" stroke="none" />

  <circle cx="1.5431988507742123" cy="-14.261854918287021" r="0.09434430622848611"
          fill="black" stroke="none" />

  <circle cx="1.5467971606006299" cy="-14.159333594967773" r="0.09434430622848611"
          fill="black" stroke="none" />

  <circle cx="1.5500267644136974" cy="-14.074727717576419" r="0.09434430622848611"
          fill="black" stroke="none" />

  <circle cx="1.5547014063943485" cy="-14.02003347429211" r="0.09434430622848611"
          fill="black" stroke="none" />

  <circle cx="1.5618928453911614" cy="-13.989560422804495" r="0.09434430622848611"
          fill="black" stroke="none" />

  <circle cx="1.571301140498154" cy="-13.963787384875118" r="0.09434430622848611"
          fill="black" stroke="none" />

  <circle cx="1.581424431028204" cy="-13.921120988879695" r="0.09434430622848611"
          fill="black" stroke="none" />

  <circle cx="1.5904262333024586" cy="-13.850498356406892" r="0.09434430622848611"
          fill="black" stroke="none" />

  <circle cx="1.597192012838417" cy="-13.757500554023812" r="0.09434430622848611"
          fill="black" stroke="none" />

  <circle cx="1.6019591335566865" cy="-13.660623837187451" r="0.09434430622848611"
          fill="black" stroke="none" />

  <circle cx="1.6061570258207316" cy="-13.58016089136108" r="0.09434430622848611"
          fill="black" stroke="none" />

  <circle cx="1.611558332299485" cy="-13.526359042510508" r="0.09434430622848611"
          fill="black" stroke="none" />

  <circle cx="1.61924441439392" cy="-13.493750893247388" r="0.09434430622848611"
          fill="black" stroke="none" />

  <circle cx="1.6289940374869698" cy="-13.464775862436188" r="0.09434430622848611"
          fill="black" stroke="none" />

  <circle cx="1.6394512381468345" cy="-13.420330507940498" r="0.09434430622848611"
          fill="black" stroke="none" />

  <circle cx="1.6489667529717666" cy="-13.350926808814503" r="0.09434430622848611"
          fill="black" stroke="none" />

  <circle cx="1.6566090567535996" cy="-13.261956006173193" r="0.09434430622848611"
          fill="black" stroke="none" />

  <circle cx="1.66274087329771" cy="-13.170155085810695" r="0.09434430622848611"
          fill="black" stroke="none" />

  <circle cx="1.6688144263200657" cy="-13.093563559660282" r="0.09434430622848611"
          fill="black" stroke="none" />

  <circle cx="1.6765024389529035" cy="-13.040983578503447" r="0.09434430622848611"
          fill="black" stroke="none" />

  <circle cx="1.6866785625007332" cy="-13.007089776931524" r="0.09434430622848611"
          fill="black" stroke="none" />

  <circle cx="1.6988555847618223" cy="-12.975890404235642" r="0.09434430622848611"
          fill="black" stroke="none" />

  <circle cx="1.7114245071109382" cy="-12.930311262167661" r="0.09434430622848611"
          fill="black" stroke="none" />

  <circle cx="1.7225664206470794" cy="-12.862163975722288" r="0.09434430622848611"
          fill="black" stroke="none" />

  <circle cx="1.7313085070449885" cy="-12.776679269465156" r="0.09434430622848611"
          fill="black" stroke="none" />

  <circle cx="1.7381023697701856" cy="-12.689099910779966" r="0.09434430622848611"
          fill="black" stroke="none" />

  <circle cx="1.7445751249913772" cy="-12.615526206593357" r="0.09434430622848611"
          fill="black" stroke="none" />

  <circle cx="1.7525848878357997" cy="-12.563517353605523" r="0.09434430622848611"
          fill="black" stroke="none" />

  <circle cx="1.7631222393059143" cy="-12.52797203346558" r="0.09434430622848611"
          fill="black" stroke="none" />

  <circle cx="1.7756972608407091" cy="-12.49459824714075" r="0.09434430622848611"
          fill="black" stroke="none" />

  <circle cx="1.7885777168802324" cy="-12.448778076020961" r="0.09434430622848611"
          fill="black" stroke="none" />

  <circle cx="1.7997545892344915" cy="-12.384496162649398" r="0.09434430622848611"
          fill="black" stroke="none" />

  <circle cx="1.8080893496639328" cy="-12.308041754107057" r="0.09434430622848611"
          fill="black" stroke="none" />

  <circle cx="1.8139879124345453" cy="-12.23433623508903" r="0.09434430622848611"
          fill="black" stroke="none" />

  <circle cx="1.8192132950072888" cy="-12.178095739918348" r="0.09434430622848611"
          fill="black" stroke="none" />

  <circle cx="1.8259386988488204" cy="-12.145048022058543" r="0.09434430622848611"
          fill="black" stroke="none" />

  <circle cx="1.8355725406812353" cy="-12.128347252116484" r="0.09434430622848611"
          fill="black" stroke="none" />

  <circle cx="1.8480101835079517" cy="-12.112256832429004" r="0.09434430622848611"
          fill="black" stroke="none" />

  <circle cx="1.8617157599335397" cy="-12.080929059701033" r="0.09434430622848611"
          fill="black" stroke="none" />

  <circle cx="1.8745607164957303" cy="-12.027182655327508" r="0.09434430622848611"
          fill="black" stroke="none" />

  <circle cx="1.8849215208278474" cy="-11.956244624929862" r="0.09434430622848611"
          fill="black" stroke="none" />

  <circle cx="1.8924112299859315" cy="-11.882398193785196" r="0.09434430622848611"
          fill="black" stroke="none" />

  <circle cx="1.897856195197662" cy="-11.820594942410354" r="0.09434430622848611"
          fill="black" stroke="none" />

  <circle cx="1.902584174283474" cy="-11.77794671946397" r="0.09434430622848611"
          fill="black" stroke="none" />

  <circle cx="1.9074918081174714" cy="-11.749981697100113" r="0.09434430622848611"
          fill="black" stroke="none" />

  <circle cx="1.9124715778917083" cy="-11.723699791822785" r="0.09434430622848611"
          fill="black" stroke="none" />

  <circle cx="1.9165396084608188" cy="-11.685495090030297" r="0.09434430622848611"
          fill="black" stroke="none" />

  <circle cx="1.9185645101005009" cy="-11.629241444519572" r="0.09434430622848611"
          fill="black" stroke="none" />

  <circle cx="1.9181225210992263" cy="-11.55984074279805" r="0.09434430622848611"
          fill="black" stroke="none" />

  <circle cx="1.9159232817243512" cy="-11.490254971440327" r="0.09434430622848611"
          fill="black" stroke="none" />

  <circle cx="1.9135137742577937" cy="-11.433855805011984" r="0.09434430622848611"
          fill="black" stroke="none" />

  <circle cx="1.9124169992794882" cy="-11.396603227237275" r="0.09434430622848611"
          fill="black" stroke="none" />

  <circle cx="1.9132239999453624" cy="-11.373582756635278" r="0.09434430622848611"
          fill="black" stroke="none" />

  <circle cx="1.9152089456325196" cy="-11.351832912694864" r="0.09434430622848611"
          fill="black" stroke="none" />

  <circle cx="1.916737910633917" cy="-11.317735186301606" r="0.09434430622848611"
          fill="black" stroke="none" />

  <circle cx="1.916265027710152" cy="-11.264652514375552" r="0.09434430622848611"
          fill="black" stroke="none" />

  <circle cx="1.9133391063366254" cy="-11.19645677880304" r="0.09434430622848611"
          fill="black" stroke="none" />

  <circle cx="1.9090074657805438" cy="-11.125047937642202" r="0.09434430622848611"
          fill="black" stroke="none" />

  <circle cx="1.9053353725497106" cy="-11.063456142699494" r="0.09434430622848611"
          fill="black" stroke="none" />

  <circle cx="1.9042738569836115" cy="-11.018595444254622" r="0.09434430622848611"
          fill="black" stroke="none" />

  <circle cx="1.9065064327449532" cy="-10.987801176046696" r="0.09434430622848611"
          fill="black" stroke="none" />

  <circle cx="1.9109474018256383" cy="-10.960963548412224" r="0.09434430622848611"
          fill="black" stroke="none" />

  <circle cx="1.9152148619029004" cy="-10.926778093754127" r="0.09434430622848611"
          fill="black" stroke="none" />

  <circle cx="1.916852688533801" cy="-10.879307009606553" r="0.09434430622848611"
          fill="black" stroke="none" />

  <circle cx="1.9146407939719734" cy="-10.821009024108093" r="0.09434430622848611"
          fill="black" stroke="none" />

  <circle cx="1.9092654436314045" cy="-10.760604888028958" r="0.09434430622848611"
          fill="black" stroke="none" />

  <circle cx="1.902967064252552" cy="-10.707246390409278" r="0.09434430622848611"
          fill="black" stroke="none" />

  <circle cx="1.8983502890110528" cy="-10.664606203414118" r="0.09434430622848611"
          fill="black" stroke="none" />

  <circle cx="1.8970090745100725" cy="-10.628462464166978" r="0.09434430622848611"
          fill="black" stroke="none" />

  <circle cx="1.8987220439696468" cy="-10.589190172197458" r="0.09434430622848611"
          fill="black" stroke="none" />

  <circle cx="1.9016510584252484" cy="-10.537610697626889" r="0.09434430622848611"
          fill="black" stroke="none" />

  <circle cx="1.9034128144952633" cy="-10.47065625497473" r="0.09434430622848611"
          fill="black" stroke="none" />

  <circle cx="1.9024093826795174" cy="-10.393443179575193" r="0.09434430622848611"
          fill="black" stroke="none" />

  <circle cx="1.8986723580612472" cy="-10.316505868855806" r="0.09434430622848611"
          fill="black" stroke="none" />

  <circle cx="1.8937665454668948" cy="-10.249821633056794" r="0.09434430622848611"
          fill="black" stroke="none" />

  <circle cx="1.8898406961055638" cy="-10.197147493384133" r="0.09434430622848611"
          fill="black" stroke="none" />

  <circle cx="1.8883917861196897" cy="-10.153988430991935" r="0.09434430622848611"
          fill="black" stroke="none" />

  <circle cx="1.889453467785122" cy="-10.110362731823471" r="0.09434430622848611"
          fill="black" stroke="none" />

  <circle cx="1.8916534466783135" cy="-10.056710281053029" r="0.09434430622848611"
          fill="black" stroke="none" />

  <circle cx="1.893071052870418" cy="-9.989466731003603" r="0.09434430622848611"
          fill="black" stroke="none" />

  <circle cx="1.892367531063925" cy="-9.913058930076584" r="0.09434430622848611"
          fill="black" stroke="none" />

  <circle cx="1.8895221356015248" cy="-9.83720565631614" r="0.09434430622848611"
          fill="black" stroke="none" />

  <circle cx="1.8857603600066482" cy="-9.77116399656169" r="0.09434430622848611"
          fill="black" stroke="none" />

  <circle cx="1.8827490299600391" cy="-9.718324867999563" r="0.09434430622848611"
          fill="black" stroke="none" />

  <circle cx="1.8815641182441873" cy="-9.674311911932541" r="0.09434430622848611"
          fill="black" stroke="none" />

  <circle cx="1.882057675747633" cy="-9.62964769285842" r="0.09434430622848611"
          fill="black" stroke="none" />

  <circle cx="1.8829948590565149" cy="-9.575366295259965" r="0.09434430622848611"
          fill="black" stroke="none" />

  <circle cx="1.8828594794176121" cy="-9.508250202068522" r="0.09434430622848611"
          fill="black" stroke="none" />

  <circle cx="1.880822842406146" cy="-9.432633815517537" r="0.09434430622848611"
          fill="black" stroke="none" />

  <circle cx="1.8772775329269755" cy="-9.35776529548427" r="0.09434430622848611"
          fill="black" stroke="none" />

  <circle cx="1.8736084950384406" cy="-9.292329963976474" r="0.09434430622848611"
          fill="black" stroke="none" />

  <circle cx="1.8713423923756967" cy="-9.239377150188368" r="0.09434430622848611"
          fill="black" stroke="none" />

  <circle cx="1.8711982094789514" cy="-9.19461253515265" r="0.09434430622848611"
          fill="black" stroke="none" />

  <circle cx="1.872625393276881" cy="-9.14900931118355" r="0.09434430622848611"
          fill="black" stroke="none" />

  <circle cx="1.8741209906018599" cy="-9.094152244090921" r="0.09434430622848611"
          fill="black" stroke="none" />

  <circle cx="1.874141526372206" cy="-9.027151665150715" r="0.09434430622848611"
          fill="black" stroke="none" />

  <circle cx="1.8720570065127244" cy="-8.952259072931216" r="0.09434430622848611"
          fill="black" stroke="none" />

  <circle cx="1.8685591576740372" cy="-8.878284507963897" r="0.09434430622848611"
          fill="black" stroke="none" />

  <circle cx="1.8652599860563739" cy="-8.813383638392711" r="0.09434430622848611"
          fill="black" stroke="none" />

  <circle cx="1.8637083921582716" cy="-8.760298963489314" r="0.09434430622848611"
          fill="black" stroke="none" />

  <circle cx="1.864415558083418" cy="-8.71483075775922" r="0.09434430622848611"
          fill="black" stroke="none" />

  <circle cx="1.8664905279057473" cy="-8.66838567738945" r="0.09434430622848611"
          fill="black" stroke="none" />

  <circle cx="1.868131311526102" cy="-8.613055310148589" r="0.09434430622848611"
          fill="black" stroke="none" />

  <circle cx="1.867701157594245" cy="-8.546222051887304" r="0.09434430622848611"
          fill="black" stroke="none" />

  <circle cx="1.864752767898349" cy="-8.472013384846925" r="0.09434430622848611"
          fill="black" stroke="none" />

  <circle cx="1.8603712454490855" cy="-8.398812039885215" r="0.09434430622848611"
          fill="black" stroke="none" />

  <circle cx="1.8565955514395942" cy="-8.334350179796465" r="0.09434430622848611"
          fill="black" stroke="none" />

  <circle cx="1.8552255918578235" cy="-8.281303775822408" r="0.09434430622848611"
          fill="black" stroke="none" />

  <circle cx="1.8567043773758891" cy="-8.23595846805129" r="0.09434430622848611"
          fill="black" stroke="none" />

  <circle cx="1.8597485148905908" cy="-8.19066860175972" r="0.09434430622848611"
          fill="black" stroke="none" />

  <circle cx="1.8619831360901318" cy="-8.138585737723066" r="0.09434430622848611"
          fill="black" stroke="none" />

  <circle cx="1.861254595186529" cy="-8.077818327204938" r="0.09434430622848611"
          fill="black" stroke="none" />

  <circle cx="1.8568849958972526" cy="-8.012562016520086" r="0.09434430622848611"
          fill="black" stroke="none" />

  <circle cx="1.8501417369795496" cy="-7.95056577603399" r="0.09434430622848611"
          fill="black" stroke="none" />

  <circle cx="1.8436274196135725" cy="-7.898478060102395" r="0.09434430622848611"
          fill="black" stroke="none" />

  <circle cx="1.839907851527871" cy="-7.857858826754728" r="0.09434430622848611"
          fill="black" stroke="none" />

  <circle cx="1.8401364031601932" cy="-7.824223356170576" r="0.09434430622848611"
          fill="black" stroke="none" />

  <circle cx="1.8434443569213246" cy="-7.789665973401364" r="0.09434430622848611"
          fill="black" stroke="none" />

  <circle cx="1.8474379598741133" cy="-7.747482632499555" r="0.09434430622848611"
          fill="black" stroke="none" />

  <circle cx="1.84951757367538" cy="-7.69603262066644" r="0.09434430622848611"
          fill="black" stroke="none" />

  <circle cx="1.8482717725126045" cy="-7.639542778880214" r="0.09434430622848611"
          fill="black" stroke="none" />

  <circle cx="1.8441656630869714" cy="-7.58538010195524" r="0.09434430622848611"
          fill="black" stroke="none" />

  <circle cx="1.8391561532702316" cy="-7.539417088355901" r="0.09434430622848611"
          fill="black" stroke="none" />

  <circle cx="1.8354862988942084" cy="-7.5022480620023195" r="0.09434430622848611"
          fill="black" stroke="none" />

  <circle cx="1.8343762885940766" cy="-7.4685174605530005" r="0.09434430622848611"
          fill="black" stroke="none" />

  <circle cx="1.8353713551078916" cy="-7.429789773343332" r="0.09434430622848611"
          fill="black" stroke="none" />

  <circle cx="1.836706268849436" cy="-7.379306146498659" r="0.09434430622848611"
          fill="black" stroke="none" />

  <circle cx="1.8364410117752232" cy="-7.315860055194527" r="0.09434430622848611"
          fill="black" stroke="none" />

  <circle cx="1.833670356929577" cy="-7.244533834890584" r="0.09434430622848611"
          fill="black" stroke="none" />

  <circle cx="1.8290769152556858" cy="-7.173865698442765" r="0.09434430622848611"
          fill="black" stroke="none" />

  <circle cx="1.8244996455989047" cy="-7.111089339157403" r="0.09434430622848611"
          fill="black" stroke="none" />

  <circle cx="1.821786311675092" cy="-7.058194562353034" r="0.09434430622848611"
          fill="black" stroke="none" />

  <circle cx="1.821632106344606" cy="-7.011058921095158" r="0.09434430622848611"
          fill="black" stroke="none" />

  <circle cx="1.8231175107604396" cy="-6.962099626760943" r="0.09434430622848611"
          fill="black" stroke="none" />

  <circle cx="1.824238261987387" cy="-6.904851801740828" r="0.09434430622848611"
          fill="black" stroke="none" />

  <circle cx="1.8231190830341677" cy="-6.837785219616244" r="0.09434430622848611"
          fill="black" stroke="none" />

  <circle cx="1.8191811657173005" cy="-6.76515396645879" r="0.09434430622848611"
          fill="black" stroke="none" />

  <circle cx="1.8135477076744881" cy="-6.694433412105416" r="0.09434430622848611"
          fill="black" stroke="none" />

  <circle cx="1.8084197610937007" cy="-6.631895847865353" r="0.09434430622848611"
          fill="black" stroke="none" />

  <circle cx="1.8057734284810292" cy="-6.578942428691057" r="0.09434430622848611"
          fill="black" stroke="none" />

  <circle cx="1.8061495288167477" cy="-6.5313330716521545" r="0.09434430622848611"
          fill="black" stroke="none" />

  <circle cx="1.8082716179943938" cy="-6.481733585409293" r="0.09434430622848611"
          fill="black" stroke="none" />

  <circle cx="1.80974924311435" cy="-6.424051393699688" r="0.09434430622848611"
          fill="black" stroke="none" />

  <circle cx="1.8084779827644952" cy="-6.3569993845690895" r="0.09434430622848611"
          fill="black" stroke="none" />

  <circle cx="1.803918625464053" cy="-6.284805562380679" r="0.09434430622848611"
          fill="black" stroke="none" />

  <circle cx="1.7974861362749168" cy="-6.214679124779931" r="0.09434430622848611"
          fill="black" stroke="none" />

  <circle cx="1.791787244473557" cy="-6.152548935906694" r="0.09434430622848611"
          fill="black" stroke="none" />

  <circle cx="1.7891221142301874" cy="-6.0995917386867" r="0.09434430622848611"
          fill="black" stroke="none" />

  <circle cx="1.790113139628593" cy="-6.051587979043333" r="0.09434430622848611"
          fill="black" stroke="none" />

  <circle cx="1.7932724293612943" cy="-6.00147668184928" r="0.09434430622848611"
          fill="black" stroke="none" />

  <circle cx="1.7957885901153232" cy="-5.943611010421156" r="0.09434430622848611"
          fill="black" stroke="none" />

  <circle cx="1.7951057755743647" cy="-5.877234508369507" r="0.09434430622848611"
          fill="black" stroke="none" />

  <circle cx="1.7903959958934805" cy="-5.807166085541948" r="0.09434430622848611"
          fill="black" stroke="none" />

  <circle cx="1.7830703140893802" cy="-5.74131015625027" r="0.09434430622848611"
          fill="black" stroke="none" />

  <circle cx="1.7760180904905114" cy="-5.6864363582037285" r="0.09434430622848611"
          fill="black" stroke="none" />

  <circle cx="1.7719956136220563" cy="-5.644638220825652" r="0.09434430622848611"
          fill="black" stroke="none" />

  <circle cx="1.772081538688767" cy="-5.612437951748237" r="0.09434430622848611"
          fill="black" stroke="none" />

  <circle cx="1.7750848571825897" cy="-5.582938924530651" r="0.09434430622848611"
          fill="black" stroke="none" />

  <circle cx="1.7782453228378343" cy="-5.549671035838717" r="0.09434430622848611"
          fill="black" stroke="none" />

  <circle cx="1.7788204421259508" cy="-5.509852671788082" r="0.09434430622848611"
          fill="black" stroke="none" />

  <circle cx="1.7756406107536087" cy="-5.4652241818900755" r="0.09434430622848611"
          fill="black" stroke="none" />

  <circle cx="1.7697345560262505" cy="-5.420106571358369" r="0.09434430622848611"
          fill="black" stroke="none" />

  <circle cx="1.7636707225226202" cy="-5.377999187259864" r="0.09434430622848611"
          fill="black" stroke="none" />

  <circle cx="1.7600103791171415" cy="-5.338867073904323" r="0.09434430622848611"
          fill="black" stroke="none" />

  <circle cx="1.7597863910627918" cy="-5.2988013957678906" r="0.09434430622848611"
          fill="black" stroke="none" />

  <circle cx="1.7619034990486084" cy="-5.252263996758995" r="0.09434430622848611"
          fill="black" stroke="none" />

  <circle cx="1.7638110924010855" cy="-5.195541861438286" r="0.09434430622848611"
          fill="black" stroke="none" />

  <circle cx="1.7630472244622197" cy="-5.12928870390621" r="0.09434430622848611"
          fill="black" stroke="none" />

  <circle cx="1.7587358633471317" cy="-5.058562789355159" r="0.09434430622848611"
          fill="black" stroke="none" />

  <circle cx="1.7521441708995527" cy="-4.990260939281154" r="0.09434430622848611"
          fill="black" stroke="none" />

  <circle cx="1.7459608646517983" cy="-4.929407835535756" r="0.09434430622848611"
          fill="black" stroke="none" />

  <circle cx="1.7427153046690722" cy="-4.876458706515072" r="0.09434430622848611"
          fill="black" stroke="none" />

  <circle cx="1.7432716751558495" cy="-4.827196191532332" r="0.09434430622848611"
          fill="black" stroke="none" />

  <circle cx="1.7462964167589492" cy="-4.775289189586353" r="0.09434430622848611"
          fill="black" stroke="none" />

  <circle cx="1.7490267762067848" cy="-4.716025812885269" r="0.09434430622848611"
          fill="black" stroke="none" />

  <circle cx="1.7488975669289601" cy="-4.6490503963430045" r="0.09434430622848611"
          fill="black" stroke="none" />

  <circle cx="1.7450675777081546" cy="-4.578524978443019" r="0.09434430622848611"
          fill="black" stroke="none" />

  <circle cx="1.7389353702899817" cy="-4.5106479132480635" r="0.09434430622848611"
          fill="black" stroke="none" />

  <circle cx="1.7333240612073717" cy="-4.450005377968008" r="0.09434430622848611"
          fill="black" stroke="none" />

  <circle cx="1.7308022208142795" cy="-4.3969010043717" r="0.09434430622848611"
          fill="black" stroke="none" />

  <circle cx="1.7321282092492971" cy="-4.347218013357171" r="0.09434430622848611"
          fill="black" stroke="none" />

  <circle cx="1.7357461334579565" cy="-4.294872074275174" r="0.09434430622848611"
          fill="black" stroke="none" />

  <circle cx="1.7386508711456403" cy="-4.2353950753543375" r="0.09434430622848611"
          fill="black" stroke="none" />

  <circle cx="1.7381322470287663" cy="-4.168539866590358" r="0.09434430622848611"
          fill="black" stroke="none" />

  <circle cx="1.7333803306296351" cy="-4.098387895145657" r="0.09434430622848611"
          fill="black" stroke="none" />

  <circle cx="1.7260013341904252" cy="-4.03091834485806" r="0.09434430622848611"
          fill="black" stroke="none" />

  <circle cx="1.7191243554473636" cy="-3.9704858002510903" r="0.09434430622848611"
          fill="black" stroke="none" />

  <circle cx="1.715607050721483" cy="-3.917280820842569" r="0.09434430622848611"
          fill="black" stroke="none" />

  <circle cx="1.7163859493008542" cy="-3.8672536526333445" r="0.09434430622848611"
          fill="black" stroke="none" />

  <circle cx="1.719943071388199" cy="-3.814524534979852" r="0.09434430622848611"
          fill="black" stroke="none" />

  <circle cx="1.7232114019431022" cy="-3.7548462958810003" r="0.09434430622848611"
          fill="black" stroke="none" />

  <circle cx="1.7233949231007162" cy="-3.6880807488925633" r="0.09434430622848611"
          fill="black" stroke="none" />

  <circle cx="1.7196331270316314" cy="-3.6182462613712074" r="0.09434430622848611"
          fill="black" stroke="none" />

  <circle cx="1.7135217290972737" cy="-3.551129566703455" r="0.09434430622848611"
          fill="black" stroke="none" />

  <circle cx="1.7081695117532212" cy="-3.490881418698302" r="0.09434430622848611"
          fill="black" stroke="none" />

  <circle cx="1.7063368967654464" cy="-3.4375976290453227" r="0.09434430622848611"
          fill="black" stroke="none" />

  <circle cx="1.7087542685035788" cy="-3.3872921742818614" r="0.09434430622848611"
          fill="black" stroke="none" />

  <circle cx="1.7136257804086945" cy="-3.334257937302087" r="0.09434430622848611"
          fill="black" stroke="none" />

  <circle cx="1.7176337630851541" cy="-3.274417843424252" r="0.09434430622848611"
          fill="black" stroke="none" />

  <circle cx="1.7178715672613982" cy="-3.207708897131189" r="0.09434430622848611"
          fill="black" stroke="none" />

  <circle cx="1.7135722976262837" cy="-3.138130792075926" r="0.09434430622848611"
          fill="black" stroke="none" />

  <circle cx="1.7066043034637282" cy="-3.07146908636529" r="0.09434430622848611"
          fill="black" stroke="none" />

  <circle cx="1.7004195267009714" cy="-3.0120527663134253" r="0.09434430622848611"
          fill="black" stroke="none" />

  <circle cx="1.698052552989679" cy="-2.960438035573757" r="0.09434430622848611"
          fill="black" stroke="none" />

  <circle cx="1.7003388962800337" cy="-2.913326433978708" r="0.09434430622848611"
          fill="black" stroke="none" />

  <circle cx="1.7054076844948178" cy="-2.8656877826639553" r="0.09434430622848611"
          fill="black" stroke="none" />

  <circle cx="1.709764049883499" cy="-2.813766667557478" r="0.09434430622848611"
          fill="black" stroke="none" />

  <circle cx="1.7103397700425285" cy="-2.7571656490611796" r="0.09434430622848611"
          fill="black" stroke="none" />

  <circle cx="1.7063094064368372" cy="-2.6987922373790787" r="0.09434430622848611"
          fill="black" stroke="none" />

  <circle cx="1.6995928556067446" cy="-2.6427606817743663" r="0.09434430622848611"
          fill="black" stroke="none" />

  <circle cx="1.6937304756214826" cy="-2.5915686146715116" r="0.09434430622848611"
          fill="black" stroke="none" />

  <circle cx="1.6917790897889438" cy="-2.544291427403426" r="0.09434430622848611"
          fill="black" stroke="none" />

  <circle cx="1.6944682666215145" cy="-2.496909987641133" r="0.09434430622848611"
          fill="black" stroke="none" />

  <circle cx="1.6997200704927025" cy="-2.4445934390039064" r="0.09434430622848611"
          fill="black" stroke="none" />

  <circle cx="1.7038418415401495" cy="-2.3845761057240846" r="0.09434430622848611"
          fill="black" stroke="none" />

  <circle cx="1.7037115572140424" cy="-2.3179025691087225" r="0.09434430622848611"
          fill="black" stroke="none" />

  <circle cx="1.698673765972228" cy="-2.2489833539786472" r="0.09434430622848611"
          fill="black" stroke="none" />

  <circle cx="1.69101452382732" cy="-2.1832042787355266" r="0.09434430622848611"
          fill="black" stroke="none" />

  <circle cx="1.6847092336030485" cy="-2.123989068531267" r="0.09434430622848611"
          fill="black" stroke="none" />

  <circle cx="1.683158745726772" cy="-2.071038915621433" r="0.09434430622848611"
          fill="black" stroke="none" />

  <circle cx="1.6872429966358369" cy="-2.020772751368867" r="0.09434430622848611"
          fill="black" stroke="none" />

  <circle cx="1.6948558583312212" cy="-1.9686856698599837" r="0.09434430622848611"
          fill="black" stroke="none" />

  <circle cx="1.702224068291629" cy="-1.9122072159585555" r="0.09434430622848611"
          fill="black" stroke="none" />

  <circle cx="1.7062557079093383" cy="-1.8523502646157772" r="0.09434430622848611"
          fill="black" stroke="none" />

  <circle cx="1.7065341739639326" cy="-1.7931663633810768" r="0.09434430622848611"
          fill="black" stroke="none" />

  <circle cx="1.7057541446591826" cy="-1.7393326960197737" r="0.09434430622848611"
          fill="black" stroke="none" />

  <circle cx="1.7082955230196535" cy="-1.693311274070651" r="0.09434430622848611"
          fill="black" stroke="none" />

  <circle cx="1.71773052673861" cy="-1.6537804927747182" r="0.09434430622848611"
          fill="black" stroke="none" />

  <circle cx="1.734710447203689" cy="-1.6162888311346397" r="0.09434430622848611"
          fill="black" stroke="none" />

  <circle cx="1.7564874563388782" cy="-1.5757648525086607" r="0.09434430622848611"
          fill="black" stroke="none" />

  <circle cx="1.7783897790249674" cy="-1.529415891625248" r="0.09434430622848611"
          fill="black" stroke="none" />

  <circle cx="1.7964252826599014" cy="-1.478312003382432" r="0.09434430622848611"
          fill="black" stroke="none" />

  <circle cx="1.8095106646090688" cy="-1.4267215187614286" r="0.09434430622848611"
          fill="black" stroke="none" />

  <circle cx="1.8200195632200256" cy="-1.379585323001947" r="0.09434430622848611"
          fill="black" stroke="none" />

  <circle cx="1.8323123792902947" cy="-1.3396095116599729" r="0.09434430622848611"
          fill="black" stroke="none" />

  <circle cx="1.8500939241012544" cy="-1.3056771336616115" r="0.09434430622848611"
          fill="black" stroke="none" />

  <circle cx="1.8741468262803584" cy="-1.2735011332802377" r="0.09434430622848611"
          fill="black" stroke="none" />

  <circle cx="1.9017865055696044" cy="-1.238123363332075" r="0.09434430622848611"
          fill="black" stroke="none" />

  <circle cx="1.9283825455976502" cy="-1.1967851857882845" r="0.09434430622848611"
          fill="black" stroke="none" />

  <circle cx="1.9500709631815918" cy="-1.15048706724567" r="0.09434430622848611"
          fill="black" stroke="none" />

  <circle cx="1.9660612758000973" cy="-1.103335472569348" r="0.09434430622848611"
          fill="black" stroke="none" />

  <circle cx="1.9791567752670427" cy="-1.060080477134723" r="0.09434430622848611"
          fill="black" stroke="none" />

  <circle cx="1.9941448074283672" cy="-1.0233062091029144" r="0.09434430622848611"
          fill="black" stroke="none" />

  <circle cx="2.0149745127678127" cy="-0.9919275115295838" r="0.09434430622848611"
          fill="black" stroke="none" />

  <circle cx="2.042378113065097" cy="-0.961863649350033" r="0.09434430622848611"
          fill="black" stroke="none" />

  <circle cx="2.0733601634511554" cy="-0.9284711860240173" r="0.09434430622848611"
          fill="black" stroke="none" />

  <circle cx="2.1028963749328025" cy="-0.8892859605457941" r="0.09434430622848611"
          fill="black" stroke="none" />

  <circle cx="2.1268763364758394" cy="-0.8454545711677075" r="0.09434430622848611"
          fill="black" stroke="none" />

  <circle cx="2.14456493630656" cy="-0.8010222615022085" r="0.09434430622848611"
          fill="black" stroke="none" />

  <circle cx="2.159107817786356" cy="-0.7605155399284548" r="0.09434430622848611"
          fill="black" stroke="none" />

  <circle cx="2.1757386162068153" cy="-0.7262605252031944" r="0.09434430622848611"
          fill="black" stroke="none" />

  <circle cx="2.198705393343367" cy="-0.6970222755802863" r="0.09434430622848611"
          fill="black" stroke="none" />

  <circle cx="2.2287173475132773" cy="-0.6687576274116953" r="0.09434430622848611"
          fill="black" stroke="none" />

  <circle cx="2.262442445778807" cy="-0.6370196154277464" r="0.09434430622848611"
          fill="black" stroke="none" />

  <circle cx="2.2944000238955105" cy="-0.5995798857757714" r="0.09434430622848611"
          fill="black" stroke="none" />

  <circle cx="2.320174936269515" cy="-0.557718576992538" r="0.09434430622848611"
          fill="black" stroke="none" />

  <circle cx="2.3390691453015435" cy="-0.515431438556198" r="0.09434430622848611"
          fill="black" stroke="none" />

  <circle cx="2.35459849102555" cy="-0.47704120274506223" r="0.09434430622848611"
          fill="black" stroke="none" />

  <circle cx="2.372488468118651" cy="-0.44463928444668954" r="0.09434430622848611"
          fill="black" stroke="none" />

  <circle cx="2.3973041658354965" cy="-0.41687154640050517" r="0.09434430622848611"
          fill="black" stroke="none" />

  <circle cx="2.4296904138440776" cy="-0.3897730234999629" r="0.09434430622848611"
          fill="black" stroke="none" />

  <circle cx="2.465882938192509" cy="-0.359137250642773" r="0.09434430622848611"
          fill="black" stroke="none" />

  <circle cx="2.4998393495640885" cy="-0.3230017712983402" r="0.09434430622848611"
          fill="black" stroke="none" />

  <circle cx="2.526786143002578" cy="-0.28277586273035693" r="0.09434430622848611"
          fill="black" stroke="none" />

  <circle cx="2.546102632896897" cy="-0.24235567853042972" r="0.09434430622848611"
          fill="black" stroke="none" />

  <circle cx="2.561803217673739" cy="-0.20577284953213218" r="0.09434430622848611"
          fill="black" stroke="none" />

  <circle cx="2.580264544666325" cy="-0.17478902762167567" r="0.09434430622848611"
          fill="black" stroke="none" />

  <circle cx="2.6064770702613327" cy="-0.14786854891784973" r="0.09434430622848611"
          fill="black" stroke="none" />

  <circle cx="2.641015751732697" cy="-0.12112884309141433" r="0.09434430622848611"
          fill="black" stroke="none" />

  <circle cx="2.6795577660875995" cy="-0.09068488616850276" r="0.09434430622848611"
          fill="black" stroke="none" />

  <circle cx="2.7153091788611734" cy="-0.05497690673827734" r="0.09434430622848611"
          fill="black" stroke="none" />

  <circle cx="2.74297925746069" cy="-0.0156902478944533" r="0.09434430622848611"
          fill="black" stroke="none" />

  <circle cx="2.7619791015357515" cy="0.023274130111467627" r="0.09434430622848611"
          fill="black" stroke="none" />

  <circle cx="2.776914931297076" cy="0.05815211276014649" r="0.09434430622848611"
          fill="black" stroke="none" />

  <circle cx="2.795000794271376" cy="0.08757799319602178" r="0.09434430622848611"
          fill="black" stroke="none" />

  <circle cx="2.8218395014340656" cy="0.113402498791465" r="0.09434430622848611"
          fill="black" stroke="none" />

  <circle cx="2.8580365487918242" cy="0.1395839486002821" r="0.09434430622848611"
          fill="black" stroke="none" />

  <circle cx="2.8986905417874134" cy="0.1698234573670759" r="0.09434430622848611"
          fill="black" stroke="none" />

  <circle cx="2.9361522223769323" cy="0.2053631000863713" r="0.09434430622848611"
          fill="black" stroke="none" />

  <circle cx="2.9645079010394912" cy="0.24426211710650073" r="0.09434430622848611"
          fill="black" stroke="none" />

  <circle cx="2.9831660461171485" cy="0.28257614977968804" r="0.09434430622848611"
          fill="black" stroke="none" />

  <circle cx="2.9973767251210273" cy="0.3167239555345527" r="0.09434430622848611"
          fill="black" stroke="none" />

  <circle cx="3.0152731402454287" cy="0.3456189435347121" r="0.09434430622848611"
          fill="black" stroke="none" />

  <circle cx="3.04308713727658" cy="0.37129119014762174" r="0.09434430622848611"
          fill="black" stroke="none" />

  <circle cx="3.0813371713647464" cy="0.39763727382571035" r="0.09434430622848611"
          fill="black" stroke="none" />

  <circle cx="3.124303269081579" cy="0.4280606427969914" r="0.09434430622848611"
          fill="black" stroke="none" />

  <circle cx="3.1632212555012904" cy="0.4634278316877938" r="0.09434430622848611"
          fill="black" stroke="none" />

  <circle cx="3.191421139751046" cy="0.5015688652929498" r="0.09434430622848611"
          fill="black" stroke="none" />

  <circle cx="3.208406931892352" cy="0.5386145263258211" r="0.09434430622848611"
          fill="black" stroke="none" />

  <circle cx="3.220395384281794" cy="0.571354108476631" r="0.09434430622848611"
          fill="black" stroke="none" />

  <circle cx="3.2368538999320347" cy="0.5991838463396534" r="0.09434430622848611"
          fill="black" stroke="none" />

  <circle cx="3.264953099245085" cy="0.6244679536739484" r="0.09434430622848611"
          fill="black" stroke="none" />

  <circle cx="3.3051732428412803" cy="0.6510981720572964" r="0.09434430622848611"
          fill="black" stroke="none" />

  <circle cx="3.350744107583622" cy="0.6821304278246971" r="0.09434430622848611"
          fill="black" stroke="none" />

  <circle cx="3.391413213300388" cy="0.7179366554984663" r="0.09434430622848611"
          fill="black" stroke="none" />

  <circle cx="3.4194654065804557" cy="0.7559960981668015" r="0.09434430622848611"
          fill="black" stroke="none" />

  <circle cx="3.4344779469359983" cy="0.7924523598659476" r="0.09434430622848611"
          fill="black" stroke="none" />

  <circle cx="3.443898145228595" cy="0.8244853125125398" r="0.09434430622848611"
          fill="black" stroke="none" />

  <circle cx="3.4589051158146153" cy="0.8520463953811694" r="0.09434430622848611"
          fill="black" stroke="none" />

  <circle cx="3.48782383712053" cy="0.8778897920173481" r="0.09434430622848611"
          fill="black" stroke="none" />

  <circle cx="3.5309400053034237" cy="0.9058708551532726" r="0.09434430622848611"
          fill="black" stroke="none" />

  <circle cx="3.5799142142771654" cy="0.9385459448717763" r="0.09434430622848611"
          fill="black" stroke="none" />

  <circle cx="3.6223932350078774" cy="0.9755438648728781" r="0.09434430622848611"
          fill="black" stroke="none" />

  <circle cx="3.6493224565393922" cy="1.0137154896728353" r="0.09434430622848611"
          fill="black" stroke="none" />

  <circle cx="3.6607026670217833" cy="1.0489809955053235" r="0.09434430622848611"
          fill="black" stroke="none" />

  <circle cx="3.666231029433024" cy="1.0787455766760758" r="0.09434430622848611"
          fill="black" stroke="none" />

  <circle cx="3.6801379131926493" cy="1.1033916789812088" r="0.09434430622848611"
          fill="black" stroke="none" />

  <circle cx="3.712981992961007" cy="1.1259123437999043" r="0.09434430622848611"
          fill="black" stroke="none" />

  <circle cx="3.765164266476759" cy="1.1498959005351947" r="0.09434430622848611"
          fill="black" stroke="none" />

  <circle cx="3.826185109784057" cy="1.1771061437558887" r="0.09434430622848611"
          fill="black" stroke="none" />

  <circle cx="3.880469931532017" cy="1.2061787466978466" r="0.09434430622848611"
          fill="black" stroke="none" />

  <circle cx="3.9166859651145405" cy="1.2332848094075661" r="0.09434430622848611"
          fill="black" stroke="none" />

  <circle cx="3.935153522923687" cy="1.2543919086922681" r="0.09434430622848611"
          fill="black" stroke="none" />

  <circle cx="3.9487129973283785" cy="1.2677323121975714" r="0.09434430622848611"
          fill="black" stroke="none" />

  <circle cx="3.9760052875096203" cy="1.2749152993794535" r="0.09434430622848611"
          fill="black" stroke="none" />

  <circle cx="4.030614261243878" cy="1.2799335179628446" r="0.09434430622848611"
          fill="black" stroke="none" />

  <circle cx="4.112291364437839" cy="1.2866345874839191" r="0.09434430622848611"
          fill="black" stroke="none" />

  <circle cx="4.2057497182335455" cy="1.2962409549469396" r="0.09434430622848611"
          fill="black" stroke="none" />

  <circle cx="4.2884363349296795" cy="1.3065438809243666" r="0.09434430622848611"
          fill="black" stroke="none" />

  <circle cx="4.3434189866180475" cy="1.3133928773025394" r="0.09434430622848611"
          fill="black" stroke="none" />

  <circle cx="4.370091096788235" cy="1.3136325604639683" r="0.09434430622848611"
          fill="black" stroke="none" />

  <circle cx="4.386004164452297" cy="1.3076192843294288" r="0.09434430622848611"
          fill="black" stroke="none" />

  <circle cx="4.4177943215312085" cy="1.2995703320788954" r="0.09434430622848611"
          fill="black" stroke="none" />

  <circle cx="4.48551067910285" cy="1.2952737767442728" r="0.09434430622848611"
          fill="black" stroke="none" />

  <circle cx="4.589105512312563" cy="1.2983972267539294" r="0.09434430622848611"
          fill="black" stroke="none" />

  <circle cx="4.705595869713617" cy="1.3077176692256458" r="0.09434430622848611"
          fill="black" stroke="none" />

  <circle cx="4.800088495255883" cy="1.3172873784918444" r="0.09434430622848611"
          fill="black" stroke="none" />

  <circle cx="4.845995332293862" cy="1.3198880034260752" r="0.09434430622848611"
          fill="black" stroke="none" />

  <circle cx="4.843595675111203" cy="1.3119974448280576" r="0.09434430622848611"
          fill="black" stroke="none" />

  <circle cx="4.825351392584673" cy="1.2971839853090241" r="0.09434430622848611"
          fill="black" stroke="none" />

  <circle cx="4.842135076521485" cy="1.2852785340124266" r="0.09434430622848611"
          fill="black" stroke="none" />

  <circle cx="4.934376223128071" cy="1.2868356942088122" r="0.09434430622848611"
          fill="black" stroke="none" />

  <circle cx="5.101165665952922" cy="1.305215916572858" r="0.09434430622848611"
          fill="black" stroke="none" />

  <circle cx="5.283625422449707" cy="1.3305231962971242" r="0.09434430622848611"
          fill="black" stroke="none" />

</svg>
