
<svg xmlns="http://www.w3.org/2000/svg"
     viewBox="-1.0008678182214787 -20.386588783908554 8.364693928901284 22.875753880030334"
     width="800" height="600"
     preserveAspectRatio="xMidYMid meet">

  <circle cx="0.038939176325354735" cy="-13.502964373529196" r="0.10398069945468334"
          fill="black" stroke="none" />

  <circle cx="0.08482778604206195" cy="-16.847440213926966" r="0.10398069945468334"
          fill="black" stroke="none" />

  <circle cx="0.14199756102680317" cy="-18.808921378074757" r="0.10398069945468334"
          fill="black" stroke="none" />

  <circle cx="0.20204705772430062" cy="-19.34678178936172" r="0.10398069945468334"
          fill="black" stroke="none" />

  <circle cx="0.2572430410513886" cy="-18.848191738909332" r="0.10398069945468334"
          fill="black" stroke="none" />

  <circle cx="0.3038472072497437" cy="-17.9310196492952" r="0.10398069945468334"
          fill="black" stroke="none" />

  <circle cx="0.3433905852554969" cy="-17.17838968223519" r="0.10398069945468334"
          fill="black" stroke="none" />

  <circle cx="0.3812697570215803" cy="-16.923292022291747" r="0.10398069945468334"
          fill="black" stroke="none" />

  <circle cx="0.4234481882773754" cy="-17.169728060267268" r="0.10398069945468334"
          fill="black" stroke="none" />

  <circle cx="0.4730357509302813" cy="-17.66761892883954" r="0.10398069945468334"
          fill="black" stroke="none" />

  <circle cx="0.5285519243095094" cy="-18.087183993434724" r="0.10398069945468334"
          fill="black" stroke="none" />

  <circle cx="0.5847398156074426" cy="-18.198823586981213" r="0.10398069945468334"
          fill="black" stroke="none" />

  <circle cx="0.6354085431761833" cy="-17.97317975886004" r="0.10398069945468334"
          fill="black" stroke="none" />

  <circle cx="0.6767040975541604" cy="-17.564722022491488" r="0.10398069945468334"
          fill="black" stroke="none" />

  <circle cx="0.709026527794634" cy="-17.203569144049094" r="0.10398069945468334"
          fill="black" stroke="none" />

  <circle cx="0.7366053334926828" cy="-17.0628383329434" r="0.10398069945468334"
          fill="black" stroke="none" />

  <circle cx="0.7650559089203066" cy="-17.17311100910269" r="0.10398069945468334"
          fill="black" stroke="none" />

  <circle cx="0.7983317082173922" cy="-17.423085328555047" r="0.10398069945468334"
          fill="black" stroke="none" />

  <circle cx="0.8367618193282451" cy="-17.636253312812258" r="0.10398069945468334"
          fill="black" stroke="none" />

  <circle cx="0.8771937305230286" cy="-17.674480785160277" r="0.10398069945468334"
          fill="black" stroke="none" />

  <circle cx="0.9150493166841102" cy="-17.510049577951023" r="0.10398069945468334"
          fill="black" stroke="none" />

  <circle cx="0.9470441228855363" cy="-17.230281860821336" r="0.10398069945468334"
          fill="black" stroke="none" />

  <circle cx="0.973005148303966" cy="-16.978553638721763" r="0.10398069945468334"
          fill="black" stroke="none" />

  <circle cx="0.995803010192556" cy="-16.86966597656104" r="0.10398069945468334"
          fill="black" stroke="none" />

  <circle cx="1.019530930000335" cy="-16.928269131501352" r="0.10398069945468334"
          fill="black" stroke="none" />

  <circle cx="1.047061416041981" cy="-17.08239572371572" r="0.10398069945468334"
          fill="black" stroke="none" />

  <circle cx="1.0784243757887548" cy="-17.21130869451959" r="0.10398069945468334"
          fill="black" stroke="none" />

  <circle cx="1.1109196455762491" cy="-17.216951624417025" r="0.10398069945468334"
          fill="black" stroke="none" />

  <circle cx="1.1408346075873759" cy="-17.07748653401495" r="0.10398069945468334"
          fill="black" stroke="none" />

  <circle cx="1.1657025176929205" cy="-16.854313750836184" r="0.10398069945468334"
          fill="black" stroke="none" />

  <circle cx="1.1857505019095347" cy="-16.651844693486996" r="0.10398069945468334"
          fill="black" stroke="none" />

  <circle cx="1.2036991145377307" cy="-16.555716731850087" r="0.10398069945468334"
          fill="black" stroke="none" />

  <circle cx="1.2230693641745942" cy="-16.58552957239818" r="0.10398069945468334"
          fill="black" stroke="none" />

  <circle cx="1.2460347666308789" cy="-16.68777005747068" r="0.10398069945468334"
          fill="black" stroke="none" />

  <circle cx="1.2721086350503605" cy="-16.77045772920296" r="0.10398069945468334"
          fill="black" stroke="none" />

  <circle cx="1.2984418354276803" cy="-16.757495470203516" r="0.10398069945468334"
          fill="black" stroke="none" />

  <circle cx="1.321538602956775" cy="-16.630901172872797" r="0.10398069945468334"
          fill="black" stroke="none" />

  <circle cx="1.3393551525676917" cy="-16.43774814879653" r="0.10398069945468334"
          fill="black" stroke="none" />

  <circle cx="1.3525248600361743" cy="-16.259863051773458" r="0.10398069945468334"
          fill="black" stroke="none" />

  <circle cx="1.363979903974574" cy="-16.16548879075017" r="0.10398069945468334"
          fill="black" stroke="none" />

  <circle cx="1.3771955668041993" cy="-16.17128988616465" r="0.10398069945468334"
          fill="black" stroke="none" />

  <circle cx="1.3941015008191475" cy="-16.235709183607867" r="0.10398069945468334"
          fill="black" stroke="none" />

  <circle cx="1.4139011557589711" cy="-16.28579522665872" r="0.10398069945468334"
          fill="black" stroke="none" />

  <circle cx="1.4335026603102106" cy="-16.2604886864323" r="0.10398069945468334"
          fill="black" stroke="none" />

  <circle cx="1.4493122319808323" cy="-16.14484743274342" r="0.10398069945468334"
          fill="black" stroke="none" />

  <circle cx="1.459337872522369" cy="-15.976121378812918" r="0.10398069945468334"
          fill="black" stroke="none" />

  <circle cx="1.4643695608817162" cy="-15.819591189435716" r="0.10398069945468334"
          fill="black" stroke="none" />

  <circle cx="1.4675468870461015" cy="-15.729480521435182" r="0.10398069945468334"
          fill="black" stroke="none" />

  <circle cx="1.4725725249178192" cy="-15.718097039084714" r="0.10398069945468334"
          fill="black" stroke="none" />

  <circle cx="1.481621104548851" cy="-15.750595004131533" r="0.10398069945468334"
          fill="black" stroke="none" />

  <circle cx="1.4941636670671632" cy="-15.767268140310131" r="0.10398069945468334"
          fill="black" stroke="none" />

  <circle cx="1.5073812953167636" cy="-15.719355270381389" r="0.10398069945468334"
          fill="black" stroke="none" />

  <circle cx="1.5179036480997286" cy="-15.597123593313299" r="0.10398069945468334"
          fill="black" stroke="none" />

  <circle cx="1.523833413137872" cy="-15.43427989677718" r="0.10398069945468334"
          fill="black" stroke="none" />

  <circle cx="1.525861226852948" cy="-15.287025015559728" r="0.10398069945468334"
          fill="black" stroke="none" />

  <circle cx="1.5268253730228223" cy="-15.200769091996651" r="0.10398069945468334"
          fill="black" stroke="none" />

  <circle cx="1.5299973247086989" cy="-15.1841893576425" r="0.10398069945468334"
          fill="black" stroke="none" />

  <circle cx="1.5371277253195113" cy="-15.205390723299946" r="0.10398069945468334"
          fill="black" stroke="none" />

  <circle cx="1.5474225134266684" cy="-15.21166338442259" r="0.10398069945468334"
          fill="black" stroke="none" />

  <circle cx="1.558058233759779" cy="-15.160650653725892" r="0.10398069945468334"
          fill="black" stroke="none" />

  <circle cx="1.565924301177196" cy="-15.04454370452283" r="0.10398069945468334"
          fill="black" stroke="none" />

  <circle cx="1.5695463338138418" cy="-14.893534612060854" r="0.10398069945468334"
          fill="black" stroke="none" />

  <circle cx="1.5700347941568789" cy="-14.757175382418907" r="0.10398069945468334"
          fill="black" stroke="none" />

  <circle cx="1.5704826700259722" cy="-14.675099492479696" r="0.10398069945468334"
          fill="black" stroke="none" />

  <circle cx="1.5741609347855907" cy="-14.654361232726846" r="0.10398069945468334"
          fill="black" stroke="none" />

  <circle cx="1.5825813706859" cy="-14.666304739033453" r="0.10398069945468334"
          fill="black" stroke="none" />

  <circle cx="1.594583278437366" cy="-14.664201485645686" r="0.10398069945468334"
          fill="black" stroke="none" />

  <circle cx="1.6069990194937596" cy="-14.610849104523112" r="0.10398069945468334"
          fill="black" stroke="none" />

  <circle cx="1.6165172777902295" cy="-14.49987309134538" r="0.10398069945468334"
          fill="black" stroke="none" />

  <circle cx="1.621646628888157" cy="-14.358575543764527" r="0.10398069945468334"
          fill="black" stroke="none" />

  <circle cx="1.6236122827355208" cy="-14.231190785058965" r="0.10398069945468334"
          fill="black" stroke="none" />

  <circle cx="1.625641704826995" cy="-14.152778072849948" r="0.10398069945468334"
          fill="black" stroke="none" />

  <circle cx="1.6310462348504373" cy="-14.129124940245049" r="0.10398069945468334"
          fill="black" stroke="none" />

  <circle cx="1.6412249628094724" cy="-14.134146331111896" r="0.10398069945468334"
          fill="black" stroke="none" />

  <circle cx="1.654776632247074" cy="-14.125833733262885" r="0.10398069945468334"
          fill="black" stroke="none" />

  <circle cx="1.6682644284541956" cy="-14.071038957278912" r="0.10398069945468334"
          fill="black" stroke="none" />

  <circle cx="1.6782092175539576" cy="-13.96450646412728" r="0.10398069945468334"
          fill="black" stroke="none" />

  <circle cx="1.6831571491809618" cy="-13.831262995201298" r="0.10398069945468334"
          fill="black" stroke="none" />

  <circle cx="1.6846083764628803" cy="-13.711380883028404" r="0.10398069945468334"
          fill="black" stroke="none" />

  <circle cx="1.6862448406171668" cy="-13.636366171503635" r="0.10398069945468334"
          fill="black" stroke="none" />

  <circle cx="1.6918803649449372" cy="-13.611055515612044" r="0.10398069945468334"
          fill="black" stroke="none" />

  <circle cx="1.7033022607126624" cy="-13.61139153740272" r="0.10398069945468334"
          fill="black" stroke="none" />

  <circle cx="1.7192445884869423" cy="-13.59901142800833" r="0.10398069945468334"
          fill="black" stroke="none" />

  <circle cx="1.7360860432892404" cy="-13.543824297271886" r="0.10398069945468334"
          fill="black" stroke="none" />

  <circle cx="1.7498750052028205" cy="-13.441320734582943" r="0.10398069945468334"
          fill="black" stroke="none" />

  <circle cx="1.7585246478843315" cy="-13.3146940527263" r="0.10398069945468334"
          fill="black" stroke="none" />

  <circle cx="1.7629306305656978" cy="-13.200852696317082" r="0.10398069945468334"
          fill="black" stroke="none" />

  <circle cx="1.766391145164288" cy="-13.128740206380822" r="0.10398069945468334"
          fill="black" stroke="none" />

  <circle cx="1.7726860466603975" cy="-13.10265360002253" r="0.10398069945468334"
          fill="black" stroke="none" />

  <circle cx="1.7839310824877344" cy="-13.100109095104123" r="0.10398069945468334"
          fill="black" stroke="none" />

  <circle cx="1.7994295857005929" cy="-13.085223605692416" r="0.10398069945468334"
          fill="black" stroke="none" />

  <circle cx="1.8161461010437474" cy="-13.029628109779605" r="0.10398069945468334"
          fill="black" stroke="none" />

  <circle cx="1.8304823492624176" cy="-12.928766556663184" r="0.10398069945468334"
          fill="black" stroke="none" />

  <circle cx="1.84029915644455" cy="-12.804342243851057" r="0.10398069945468334"
          fill="black" stroke="none" />

  <circle cx="1.846021460123238" cy="-12.691810073874663" r="0.10398069945468334"
          fill="black" stroke="none" />

  <circle cx="1.85023433650429" cy="-12.62037619556088" r="0.10398069945468334"
          fill="black" stroke="none" />

  <circle cx="1.8560757841736808" cy="-12.5970344433103" r="0.10398069945468334"
          fill="black" stroke="none" />

  <circle cx="1.8654215030158918" cy="-12.603534162187692" r="0.10398069945468334"
          fill="black" stroke="none" />

  <circle cx="1.8779369123354677" cy="-12.607539340543642" r="0.10398069945468334"
          fill="black" stroke="none" />

  <circle cx="1.891510442149847" cy="-12.58112937873025" r="0.10398069945468334"
          fill="black" stroke="none" />

  <circle cx="1.9037306847413242" cy="-12.51587009314883" r="0.10398069945468334"
          fill="black" stroke="none" />

  <circle cx="1.9134470343748466" cy="-12.426062275845482" r="0.10398069945468334"
          fill="black" stroke="none" />

  <circle cx="1.92143223721547" cy="-12.338876086088263" r="0.10398069945468334"
          fill="black" stroke="none" />

  <circle cx="1.929750034161968" cy="-12.277655972500657" r="0.10398069945468334"
          fill="black" stroke="none" />

  <circle cx="1.9402566731019775" cy="-12.248350645743635" r="0.10398069945468334"
          fill="black" stroke="none" />

  <circle cx="1.9532197691229678" cy="-12.236804637606363" r="0.10398069945468334"
          fill="black" stroke="none" />

  <circle cx="1.966975228014687" cy="-12.218032745757231" r="0.10398069945468334"
          fill="black" stroke="none" />

  <circle cx="1.9788941828335287" cy="-12.171575707508826" r="0.10398069945468334"
          fill="black" stroke="none" />

  <circle cx="1.9870914205681556" cy="-12.09369988222036" r="0.10398069945468334"
          fill="black" stroke="none" />

  <circle cx="1.991795631595541" cy="-11.999372948596754" r="0.10398069945468334"
          fill="black" stroke="none" />

  <circle cx="1.995451062810813" cy="-11.913173690967994" r="0.10398069945468334"
          fill="black" stroke="none" />

  <circle cx="2.001363895566574" cy="-11.854807172999745" r="0.10398069945468334"
          fill="black" stroke="none" />

  <circle cx="2.0116115433129185" cy="-11.827876385376495" r="0.10398069945468334"
          fill="black" stroke="none" />

  <circle cx="2.0254507888011943" cy="-11.818372223709659" r="0.10398069945468334"
          fill="black" stroke="none" />

  <circle cx="2.039256166552847" cy="-11.80342979324622" r="0.10398069945468334"
          fill="black" stroke="none" />

  <circle cx="2.048179895198941" cy="-11.764850539779408" r="0.10398069945468334"
          fill="black" stroke="none" />

  <circle cx="2.0487192064004804" cy="-11.699273395631895" r="0.10398069945468334"
          fill="black" stroke="none" />

  <circle cx="2.0407925150630013" cy="-11.619138481412481" r="0.10398069945468334"
          fill="black" stroke="none" />

  <circle cx="2.0281223093054814" cy="-11.544248659270036" r="0.10398069945468334"
          fill="black" stroke="none" />

  <circle cx="2.0166157734210772" cy="-11.489345753237064" r="0.10398069945468334"
          fill="black" stroke="none" />

  <circle cx="2.0115342243987264" cy="-11.455340696964111" r="0.10398069945468334"
          fill="black" stroke="none" />

  <circle cx="2.014929526433045" cy="-11.429421855538322" r="0.10398069945468334"
          fill="black" stroke="none" />

  <circle cx="2.024704820224092" cy="-11.39375508738581" r="0.10398069945468334"
          fill="black" stroke="none" />

  <circle cx="2.0357873431194324" cy="-11.337246467672767" r="0.10398069945468334"
          fill="black" stroke="none" />

  <circle cx="2.0427653932313783" cy="-11.263015680039693" r="0.10398069945468334"
          fill="black" stroke="none" />

  <circle cx="2.0425715921493" cy="-11.186887432547884" r="0.10398069945468334"
          fill="black" stroke="none" />

  <circle cx="2.035812493916021" cy="-11.127713832893242" r="0.10398069945468334"
          fill="black" stroke="none" />

  <circle cx="2.026124651444513" cy="-11.09536122823249" r="0.10398069945468334"
          fill="black" stroke="none" />

  <circle cx="2.0180267349577354" cy="-11.083706128499628" r="0.10398069945468334"
          fill="black" stroke="none" />

  <circle cx="2.0145208219201507" cy="-11.07307138277331" r="0.10398069945468334"
          fill="black" stroke="none" />

  <circle cx="2.0157488565364736" cy="-11.040925903329693" r="0.10398069945468334"
          fill="black" stroke="none" />

  <circle cx="2.019335529798245" cy="-10.974706191699614" r="0.10398069945468334"
          fill="black" stroke="none" />

  <circle cx="2.022062848034291" cy="-10.879254084824858" r="0.10398069945468334"
          fill="black" stroke="none" />

  <circle cx="2.021801585347151" cy="-10.774429158707765" r="0.10398069945468334"
          fill="black" stroke="none" />

  <circle cx="2.018569506626235" cy="-10.684155707933456" r="0.10398069945468334"
          fill="black" stroke="none" />

  <circle cx="2.01419061952525" cy="-10.62315702883004" r="0.10398069945468334"
          fill="black" stroke="none" />

  <circle cx="2.010902276977025" cy="-10.588985759104032" r="0.10398069945468334"
          fill="black" stroke="none" />

  <circle cx="2.009864683164111" cy="-10.563887532696453" r="0.10398069945468334"
          fill="black" stroke="none" />

  <circle cx="2.010517814531884" cy="-10.525338672559323" r="0.10398069945468334"
          fill="black" stroke="none" />

  <circle cx="2.0111379592387237" cy="-10.459105320243946" r="0.10398069945468334"
          fill="black" stroke="none" />

  <circle cx="2.0101589769198327" cy="-10.36728067170254" r="0.10398069945468334"
          fill="black" stroke="none" />

  <circle cx="2.007340050518316" cy="-10.266748855401222" r="0.10398069945468334"
          fill="black" stroke="none" />

  <circle cx="2.003980905426107" cy="-10.179120089400264" r="0.10398069945468334"
          fill="black" stroke="none" />

  <circle cx="2.0020241428709653" cy="-10.118104326852338" r="0.10398069945468334"
          fill="black" stroke="none" />

  <circle cx="2.002631746517449" cy="-10.081687270014667" r="0.10398069945468334"
          fill="black" stroke="none" />

  <circle cx="2.005197645808244" cy="-10.053574450465659" r="0.10398069945468334"
          fill="black" stroke="none" />

  <circle cx="2.0075105259546335" cy="-10.01291610186625" r="0.10398069945468334"
          fill="black" stroke="none" />

  <circle cx="2.0070529692997385" cy="-9.946524235114733" r="0.10398069945468334"
          fill="black" stroke="none" />

  <circle cx="2.002666910380536" cy="-9.856430106838934" r="0.10398069945468334"
          fill="black" stroke="none" />

  <circle cx="1.995516817403831" cy="-9.758452120494562" r="0.10398069945468334"
          fill="black" stroke="none" />

  <circle cx="1.9886549844751489" cy="-9.67274849414062" r="0.10398069945468334"
          fill="black" stroke="none" />

  <circle cx="1.9853363521339977" cy="-9.61198809592914" r="0.10398069945468334"
          fill="black" stroke="none" />

  <circle cx="1.9870364582493236" cy="-9.574077695324366" r="0.10398069945468334"
          fill="black" stroke="none" />

  <circle cx="1.992386643889479" cy="-9.543620246369251" r="0.10398069945468334"
          fill="black" stroke="none" />

  <circle cx="1.9977607870777643" cy="-9.501118026408237" r="0.10398069945468334"
          fill="black" stroke="none" />

  <circle cx="1.9992815788213698" cy="-9.434425296604518" r="0.10398069945468334"
          fill="black" stroke="none" />

  <circle cx="1.9951285902225926" cy="-9.345723621873983" r="0.10398069945468334"
          fill="black" stroke="none" />

  <circle cx="1.9867720318745852" cy="-9.250012461234126" r="0.10398069945468334"
          fill="black" stroke="none" />

  <circle cx="1.9783175875335766" cy="-9.166131023087935" r="0.10398069945468334"
          fill="black" stroke="none" />

  <circle cx="1.9742338055295083" cy="-9.105681943030461" r="0.10398069945468334"
          fill="black" stroke="none" />

  <circle cx="1.976717845626092" cy="-9.066372839188823" r="0.10398069945468334"
          fill="black" stroke="none" />

  <circle cx="1.9842426885570272" cy="-9.033602804164389" r="0.10398069945468334"
          fill="black" stroke="none" />

  <circle cx="1.9922133354112614" cy="-8.989228260232714" r="0.10398069945468334"
          fill="black" stroke="none" />

  <circle cx="1.9954637242045683" cy="-8.922247827603467" r="0.10398069945468334"
          fill="black" stroke="none" />

  <circle cx="1.991230771787933" cy="-8.835102232329422" r="0.10398069945468334"
          fill="black" stroke="none" />

  <circle cx="1.9808964665786952" cy="-8.741962988988348" r="0.10398069945468334"
          fill="black" stroke="none" />

  <circle cx="1.9694268544815525" cy="-8.660157673755359" r="0.10398069945468334"
          fill="black" stroke="none" />

  <circle cx="1.962723859356172" cy="-8.5999114560462" r="0.10398069945468334"
          fill="black" stroke="none" />

  <circle cx="1.9643172608003932" cy="-8.55850613166685" r="0.10398069945468334"
          fill="black" stroke="none" />

  <circle cx="1.9732556364976053" cy="-8.522261088665202" r="0.10398069945468334"
          fill="black" stroke="none" />

  <circle cx="1.9844338721304662" cy="-8.475057643351562" r="0.10398069945468334"
          fill="black" stroke="none" />

  <circle cx="1.9912491876368796" cy="-8.408248540173904" r="0.10398069945468334"
          fill="black" stroke="none" />

  <circle cx="1.9891608645158934" cy="-8.326008757204196" r="0.10398069945468334"
          fill="black" stroke="none" />

  <circle cx="1.9781931863624977" cy="-8.242935472694274" r="0.10398069945468334"
          fill="black" stroke="none" />

  <circle cx="1.9629841466219946" cy="-8.17534154779192" r="0.10398069945468334"
          fill="black" stroke="none" />

  <circle cx="1.950338101838141" cy="-8.131449118460026" r="0.10398069945468334"
          fill="black" stroke="none" />

  <circle cx="1.9456271385480899" cy="-8.106348622019189" r="0.10398069945468334"
          fill="black" stroke="none" />

  <circle cx="1.9500190456514068" cy="-8.084759235389878" r="0.10398069945468334"
          fill="black" stroke="none" />

  <circle cx="1.960031612137899" cy="-8.049989807605092" r="0.10398069945468334"
          fill="black" stroke="none" />

  <circle cx="1.9695986759192086" cy="-7.993802127503789" r="0.10398069945468334"
          fill="black" stroke="none" />

  <circle cx="1.9734336955381977" cy="-7.9213107466308985" r="0.10398069945468334"
          fill="black" stroke="none" />

  <circle cx="1.9697863040619157" cy="-7.847957454261133" r="0.10398069945468334"
          fill="black" stroke="none" />

  <circle cx="1.9610882871604431" cy="-7.790268192958232" r="0.10398069945468334"
          fill="black" stroke="none" />

  <circle cx="1.952229745190516" cy="-7.755788131613801" r="0.10398069945468334"
          fill="black" stroke="none" />

  <circle cx="1.9475641506308876" cy="-7.73812353327186" r="0.10398069945468334"
          fill="black" stroke="none" />

  <circle cx="1.9484279083464582" cy="-7.7200741472275975" r="0.10398069945468334"
          fill="black" stroke="none" />

  <circle cx="1.9525923232722673" cy="-7.683133075154702" r="0.10398069945468334"
          fill="black" stroke="none" />

  <circle cx="1.9558804391544915" cy="-7.617910530622221" r="0.10398069945468334"
          fill="black" stroke="none" />

  <circle cx="1.9548902500304344" cy="-7.529475413365466" r="0.10398069945468334"
          fill="black" stroke="none" />

  <circle cx="1.9491338196605343" cy="-7.434532140411635" r="0.10398069945468334"
          fill="black" stroke="none" />

  <circle cx="1.9412942320001654" cy="-7.352056992395284" r="0.10398069945468334"
          fill="black" stroke="none" />

  <circle cx="1.9354716439790034" cy="-7.29277329631897" r="0.10398069945468334"
          fill="black" stroke="none" />

  <circle cx="1.9345261040183577" cy="-7.25347652324106" r="0.10398069945468334"
          fill="black" stroke="none" />

  <circle cx="1.9381807658148213" cy="-7.219380675492207" r="0.10398069945468334"
          fill="black" stroke="none" />

  <circle cx="1.9430872090951115" cy="-7.173013259397238" r="0.10398069945468334"
          fill="black" stroke="none" />

  <circle cx="1.9448510372994439" cy="-7.104438668758057" r="0.10398069945468334"
          fill="black" stroke="none" />

  <circle cx="1.940797876319479" cy="-7.0168982768086545" r="0.10398069945468334"
          fill="black" stroke="none" />

  <circle cx="1.9317708046429274" cy="-6.924688786188122" r="0.10398069945468334"
          fill="black" stroke="none" />

  <circle cx="1.9218014052714132" cy="-6.844638371395804" r="0.10398069945468334"
          fill="black" stroke="none" />

  <circle cx="1.915773207087914" cy="-6.7862327062343795" r="0.10398069945468334"
          fill="black" stroke="none" />

  <circle cx="1.9164371831816336" cy="-6.74615827154355" r="0.10398069945468334"
          fill="black" stroke="none" />

  <circle cx="1.922587964487199" cy="-6.7103874748969545" r="0.10398069945468334"
          fill="black" stroke="none" />

  <circle cx="1.9295713232015834" cy="-6.662502272195342" r="0.10398069945468334"
          fill="black" stroke="none" />

  <circle cx="1.9319221699528575" cy="-6.593333157598245" r="0.10398069945468334"
          fill="black" stroke="none" />

  <circle cx="1.926633194631803" cy="-6.506274142319608" r="0.10398069945468334"
          fill="black" stroke="none" />

  <circle cx="1.9151119045210294" cy="-6.4152075553844545" r="0.10398069945468334"
          fill="black" stroke="none" />

  <circle cx="1.9025913667801277" cy="-6.3363055470017855" r="0.10398069945468334"
          fill="black" stroke="none" />

  <circle cx="1.8952314226401086" cy="-6.278532281121203" r="0.10398069945468334"
          fill="black" stroke="none" />

  <circle cx="1.896529885164696" cy="-6.238393757878683" r="0.10398069945468334"
          fill="black" stroke="none" />

  <circle cx="1.9051331859036815" cy="-6.201979799582572" r="0.10398069945468334"
          fill="black" stroke="none" />

  <circle cx="1.9153872559076333" cy="-6.15309835900974" r="0.10398069945468334"
          fill="black" stroke="none" />

  <circle cx="1.9204083552104945" cy="-6.082791056028457" r="0.10398069945468334"
          fill="black" stroke="none" />

  <circle cx="1.9159756022975913" cy="-5.994760525829291" r="0.10398069945468334"
          fill="black" stroke="none" />

  <circle cx="1.903020548962957" cy="-5.903635752649448" r="0.10398069945468334"
          fill="black" stroke="none" />

  <circle cx="1.8872446326761585" cy="-5.82712468967606" r="0.10398069945468334"
          fill="black" stroke="none" />

  <circle cx="1.876020159318072" cy="-5.776554213076463" r="0.10398069945468334"
          fill="black" stroke="none" />

  <circle cx="1.8742965783939016" cy="-5.751106933760363" r="0.10398069945468334"
          fill="black" stroke="none" />

  <circle cx="1.8818311227440552" cy="-5.738825836034626" r="0.10398069945468334"
          fill="black" stroke="none" />

  <circle cx="1.8933308080725615" cy="-5.723531632352812" r="0.10398069945468334"
          fill="black" stroke="none" />

  <circle cx="1.9014384350308717" cy="-5.693487585771104" r="0.10398069945468334"
          fill="black" stroke="none" />

  <circle cx="1.9008661649228067" cy="-5.646842622027063" r="0.10398069945468334"
          fill="black" stroke="none" />

  <circle cx="1.8913189272614161" cy="-5.590974070096461" r="0.10398069945468334"
          fill="black" stroke="none" />

  <circle cx="1.8775451293643561" cy="-5.536530891955891" r="0.10398069945468334"
          fill="black" stroke="none" />

  <circle cx="1.8665078220758247" cy="-5.490048500823041" r="0.10398069945468334"
          fill="black" stroke="none" />

  <circle cx="1.8633294154917728" cy="-5.449682909623804" r="0.10398069945468334"
          fill="black" stroke="none" />

  <circle cx="1.868364153231102" cy="-5.406562922504037" r="0.10398069945468334"
          fill="black" stroke="none" />

  <circle cx="1.8770861779063752" cy="-5.3507698120208484" r="0.10398069945468334"
          fill="black" stroke="none" />

  <circle cx="1.8828340315275236" cy="-5.27813722904874" r="0.10398069945468334"
          fill="black" stroke="none" />

  <circle cx="1.880784866574266" cy="-5.1935950952111485" r="0.10398069945468334"
          fill="black" stroke="none" />

  <circle cx="1.8708178305619492" cy="-5.108910348059018" r="0.10398069945468334"
          fill="black" stroke="none" />

  <circle cx="1.857584511405485" cy="-5.036100370790578" r="0.10398069945468334"
          fill="black" stroke="none" />

  <circle cx="1.847750290340228" cy="-4.980445937427389" r="0.10398069945468334"
          fill="black" stroke="none" />

  <circle cx="1.846038575120267" cy="-4.937318915778771" r="0.10398069945468334"
          fill="black" stroke="none" />

  <circle cx="1.8524187133874017" cy="-4.894794032954274" r="0.10398069945468334"
          fill="black" stroke="none" />

  <circle cx="1.8621073633202698" cy="-4.840575194456574" r="0.10398069945468334"
          fill="black" stroke="none" />

  <circle cx="1.868392862033234" cy="-4.769185544898766" r="0.10398069945468334"
          fill="black" stroke="none" />

  <circle cx="1.8666186907848594" cy="-4.685185292200125" r="0.10398069945468334"
          fill="black" stroke="none" />

  <circle cx="1.856964765640907" cy="-4.600507200297824" r="0.10398069945468334"
          fill="black" stroke="none" />

  <circle cx="1.8443628028631915" cy="-4.527462560302852" r="0.10398069945468334"
          fill="black" stroke="none" />

  <circle cx="1.835571490274099" cy="-4.471523542435115" r="0.10398069945468334"
          fill="black" stroke="none" />

  <circle cx="1.8351258527262884" cy="-4.42812293646578" r="0.10398069945468334"
          fill="black" stroke="none" />

  <circle cx="1.8425624745299265" cy="-4.385349738629755" r="0.10398069945468334"
          fill="black" stroke="none" />

  <circle cx="1.852591364258933" cy="-4.330952036521043" r="0.10398069945468334"
          fill="black" stroke="none" />

  <circle cx="1.8581550038503147" cy="-4.259529058043318" r="0.10398069945468334"
          fill="black" stroke="none" />

  <circle cx="1.8546000575731547" cy="-4.175688678668444" r="0.10398069945468334"
          fill="black" stroke="none" />

  <circle cx="1.8425033607321246" cy="-4.0913229676190035" r="0.10398069945468334"
          fill="black" stroke="none" />

  <circle cx="1.8274577056511097" cy="-4.018611358003461" r="0.10398069945468334"
          fill="black" stroke="none" />

  <circle cx="1.8168990424004114" cy="-3.9628661909627105" r="0.10398069945468334"
          fill="black" stroke="none" />

  <circle cx="1.815805938039889" cy="-3.919420416748875" r="0.10398069945468334"
          fill="black" stroke="none" />

  <circle cx="1.823789859379433" cy="-3.8763781708071448" r="0.10398069945468334"
          fill="black" stroke="none" />

  <circle cx="1.835302651438746" cy="-3.821607156509046" r="0.10398069945468334"
          fill="black" stroke="none" />

  <circle cx="1.842867328397972" cy="-3.749867272349859" r="0.10398069945468334"
          fill="black" stroke="none" />

  <circle cx="1.8414544208795252" cy="-3.665895498541425" r="0.10398069945468334"
          fill="black" stroke="none" />

  <circle cx="1.8314330915595343" cy="-3.581639778993776" r="0.10398069945468334"
          fill="black" stroke="none" />

  <circle cx="1.8183450586173997" cy="-3.5092599802144027" r="0.10398069945468334"
          fill="black" stroke="none" />

  <circle cx="1.8096118247697377" cy="-3.4539874711414593" r="0.10398069945468334"
          fill="black" stroke="none" />

  <circle cx="1.8101014338882226" cy="-3.411015839465698" r="0.10398069945468334"
          fill="black" stroke="none" />

  <circle cx="1.819175386503996" cy="-3.3682449883085175" r="0.10398069945468334"
          fill="black" stroke="none" />

  <circle cx="1.8309863564648827" cy="-3.313297168224673" r="0.10398069945468334"
          fill="black" stroke="none" />

  <circle cx="1.8378889628096418" cy="-3.2407493428357927" r="0.10398069945468334"
          fill="black" stroke="none" />

  <circle cx="1.834976964913253" cy="-3.15541155986674" r="0.10398069945468334"
          fill="black" stroke="none" />

  <circle cx="1.8230664959276117" cy="-3.0697755876248136" r="0.10398069945468334"
          fill="black" stroke="none" />

  <circle cx="1.8083310698820079" cy="-2.997115006385707" r="0.10398069945468334"
          fill="black" stroke="none" />

  <circle cx="1.7987546224281776" cy="-2.9441888205346025" r="0.10398069945468334"
          fill="black" stroke="none" />

  <circle cx="1.7994561085702783" cy="-2.907672128536891" r="0.10398069945468334"
          fill="black" stroke="none" />

  <circle cx="1.8096348250891228" cy="-2.876243659691971" r="0.10398069945468334"
          fill="black" stroke="none" />

  <circle cx="1.822962912520751" cy="-2.837002619301554" r="0.10398069945468334"
          fill="black" stroke="none" />

  <circle cx="1.831236394279568" cy="-2.7824608465496916" r="0.10398069945468334"
          fill="black" stroke="none" />

  <circle cx="1.8291677373793" cy="-2.714141051157795" r="0.10398069945468334"
          fill="black" stroke="none" />

  <circle cx="1.8175036229653112" cy="-2.6408825572092307" r="0.10398069945468334"
          fill="black" stroke="none" />

  <circle cx="1.8026102582637251" cy="-2.5730622136357173" r="0.10398069945468334"
          fill="black" stroke="none" />

  <circle cx="1.7927377136778937" cy="-2.5162560676020975" r="0.10398069945468334"
          fill="black" stroke="none" />

  <circle cx="1.7931426738135514" cy="-2.4680715742742416" r="0.10398069945468334"
          fill="black" stroke="none" />

  <circle cx="1.8029489251189732" cy="-2.419905239450057" r="0.10398069945468334"
          fill="black" stroke="none" />

  <circle cx="1.815626923615694" cy="-2.3624337539510067" r="0.10398069945468334"
          fill="black" stroke="none" />

  <circle cx="1.8228488728134065" cy="-2.291475947326285" r="0.10398069945468334"
          fill="black" stroke="none" />

  <circle cx="1.8194701828375361" cy="-2.2107232478280596" r="0.10398069945468334"
          fill="black" stroke="none" />

  <circle cx="1.8066933212730856" cy="-2.1297640289531246" r="0.10398069945468334"
          fill="black" stroke="none" />

  <circle cx="1.7915148422002172" cy="-2.0586426682546333" r="0.10398069945468334"
          fill="black" stroke="none" />

  <circle cx="1.782742494065988" cy="-2.0022190837336376" r="0.10398069945468334"
          fill="black" stroke="none" />

  <circle cx="1.7859123304383528" cy="-1.9576495933817772" r="0.10398069945468334"
          fill="black" stroke="none" />

  <circle cx="1.8001184389805918" cy="-1.9164008764125993" r="0.10398069945468334"
          fill="black" stroke="none" />

  <circle cx="1.8186646409364788" cy="-1.8695019036318796" r="0.10398069945468334"
          fill="black" stroke="none" />

  <circle cx="1.8331892782836414" cy="-1.8128515104273206" r="0.10398069945468334"
          fill="black" stroke="none" />

  <circle cx="1.838829667751621" cy="-1.7494359326835536" r="0.10398069945468334"
          fill="black" stroke="none" />

  <circle cx="1.8373288451689742" cy="-1.6872158627462541" r="0.10398069945468334"
          fill="black" stroke="none" />

  <circle cx="1.8361652506347916" cy="-1.6340522697666788" r="0.10398069945468334"
          fill="black" stroke="none" />

  <circle cx="1.8441365880653728" cy="-1.592788745529076" r="0.10398069945468334"
          fill="black" stroke="none" />

  <circle cx="1.8659709263914646" cy="-1.5594646550731543" r="0.10398069945468334"
          fill="black" stroke="none" />

  <circle cx="1.899187359708392" cy="-1.5257085277236861" r="0.10398069945468334"
          fill="black" stroke="none" />

  <circle cx="1.9351652890985176" cy="-1.4838276351439266" r="0.10398069945468334"
          fill="black" stroke="none" />

  <circle cx="1.9639168121452402" cy="-1.4314916407074099" r="0.10398069945468334"
          fill="black" stroke="none" />

  <circle cx="1.9798328149971929" cy="-1.3731681057788307" r="0.10398069945468334"
          fill="black" stroke="none" />

  <circle cx="1.9850202429938135" cy="-1.3174366465949972" r="0.10398069945468334"
          fill="black" stroke="none" />

  <circle cx="1.9881906040099313" cy="-1.2717959065073419" r="0.10398069945468334"
          fill="black" stroke="none" />

  <circle cx="1.9996461098937945" cy="-1.2380888830881536" r="0.10398069945468334"
          fill="black" stroke="none" />

  <circle cx="2.0252327960225465" cy="-1.2113042591910224" r="0.10398069945468334"
          fill="black" stroke="none" />

  <circle cx="2.062805641432318" cy="-1.1824888695674787" r="0.10398069945468334"
          fill="black" stroke="none" />

  <circle cx="2.103342316334877" cy="-1.1440429223396293" r="0.10398069945468334"
          fill="black" stroke="none" />

  <circle cx="2.1361389772149693" cy="-1.0942394080451168" r="0.10398069945468334"
          fill="black" stroke="none" />

  <circle cx="2.155096813476134" cy="-1.0382663723346406" r="0.10398069945468334"
          fill="black" stroke="none" />

  <circle cx="2.1624032541004" cy="-0.9851613032239068" r="0.10398069945468334"
          fill="black" stroke="none" />

  <circle cx="2.1673797359993525" cy="-0.9424545922646705" r="0.10398069945468334"
          fill="black" stroke="none" />

  <circle cx="2.1810842994387336" cy="-0.9117044722791012" r="0.10398069945468334"
          fill="black" stroke="none" />

  <circle cx="2.20978218572139" cy="-0.8875763163140624" r="0.10398069945468334"
          fill="black" stroke="none" />

  <circle cx="2.2511301314171757" cy="-0.8610114392590082" r="0.10398069945468334"
          fill="black" stroke="none" />

  <circle cx="2.2953898084701185" cy="-0.8246001481147271" r="0.10398069945468334"
          fill="black" stroke="none" />

  <circle cx="2.331052818844012" cy="-0.7769664230847252" r="0.10398069945468334"
          fill="black" stroke="none" />

  <circle cx="2.3516323303298083" cy="-0.7235629356682536" r="0.10398069945468334"
          fill="black" stroke="none" />

  <circle cx="2.3596176628902947" cy="-0.6734108729070676" r="0.10398069945468334"
          fill="black" stroke="none" />

  <circle cx="2.365186417157034" cy="-0.6337278309147485" r="0.10398069945468334"
          fill="black" stroke="none" />

  <circle cx="2.380326456902015" cy="-0.6056375983310638" r="0.10398069945468334"
          fill="black" stroke="none" />

  <circle cx="2.411755968452447" cy="-0.5835074331169339" r="0.10398069945468334"
          fill="black" stroke="none" />

  <circle cx="2.456815497339572" cy="-0.5583000117509428" r="0.10398069945468334"
          fill="black" stroke="none" />

  <circle cx="2.5048336880898514" cy="-0.5229430748848842" r="0.10398069945468334"
          fill="black" stroke="none" />

  <circle cx="2.543276475298664" cy="-0.47652564961640637" r="0.10398069945468334"
          fill="black" stroke="none" />

  <circle cx="2.5651369344708357" cy="-0.424831842714494" r="0.10398069945468334"
          fill="black" stroke="none" />

  <circle cx="2.573208725750835" cy="-0.37690078826283757" r="0.10398069945468334"
          fill="black" stroke="none" />

  <circle cx="2.5786381387170887" cy="-0.33965905573751376" r="0.10398069945468334"
          fill="black" stroke="none" />

  <circle cx="2.5944864707680035" cy="-0.3138106595881737" r="0.10398069945468334"
          fill="black" stroke="none" />

  <circle cx="2.62801236585096" cy="-0.29341743120514374" r="0.10398069945468334"
          fill="black" stroke="none" />

  <circle cx="2.676227909629246" cy="-0.26941016923059746" r="0.10398069945468334"
          fill="black" stroke="none" />

  <circle cx="2.7274426620244245" cy="-0.2349425753883531" r="0.10398069945468334"
          fill="black" stroke="none" />

  <circle cx="2.768015775068461" cy="-0.1894160279137235" r="0.10398069945468334"
          fill="black" stroke="none" />

  <circle cx="2.7904232052585254" cy="-0.1388017786526957" r="0.10398069945468334"
          fill="black" stroke="none" />

  <circle cx="2.797872557508327" cy="-0.0920878117578577" r="0.10398069945468334"
          fill="black" stroke="none" />

  <circle cx="2.8026359913993204" cy="-0.0559705448959178" r="0.10398069945468334"
          fill="black" stroke="none" />

  <circle cx="2.8189397066189663" cy="-0.03093763994783428" r="0.10398069945468334"
          fill="black" stroke="none" />

  <circle cx="2.854510051873728" cy="-0.011045494482725543" r="0.10398069945468334"
          fill="black" stroke="none" />

  <circle cx="2.9057818996815783" cy="0.012507193746001753" r="0.10398069945468334"
          fill="black" stroke="none" />

  <circle cx="2.9597248610486178" cy="0.04615667888571468" r="0.10398069945468334"
          fill="black" stroke="none" />

  <circle cx="3.001378319493445" cy="0.09020946502592261" r="0.10398069945468334"
          fill="black" stroke="none" />

  <circle cx="3.022757398506948" cy="0.13875300463222373" r="0.10398069945468334"
          fill="black" stroke="none" />

  <circle cx="3.0278512954730217" cy="0.18325898754981002" r="0.10398069945468334"
          fill="black" stroke="none" />

  <circle cx="3.030612756126968" cy="0.21770178577717153" r="0.10398069945468334"
          fill="black" stroke="none" />

  <circle cx="3.046926174796634" cy="0.24213084027190115" r="0.10398069945468334"
          fill="black" stroke="none" />

  <circle cx="3.0851637082484684" cy="0.26258081861548566" r="0.10398069945468334"
          fill="black" stroke="none" />

  <circle cx="3.140923666663932" cy="0.2874031639799931" r="0.10398069945468334"
          fill="black" stroke="none" />

  <circle cx="3.1992269076992326" cy="0.3222382590983782" r="0.10398069945468334"
          fill="black" stroke="none" />

  <circle cx="3.2431034171294764" cy="0.36664489319308957" r="0.10398069945468334"
          fill="black" stroke="none" />

  <circle cx="3.2636552047404854" cy="0.414394053078865" r="0.10398069945468334"
          fill="black" stroke="none" />

  <circle cx="3.265638903906566" cy="0.45722991673722374" r="0.10398069945468334"
          fill="black" stroke="none" />

  <circle cx="3.2650839920177406" cy="0.48982626780791017" r="0.10398069945468334"
          fill="black" stroke="none" />

  <circle cx="3.280094392775495" cy="0.5129623550374187" r="0.10398069945468334"
          fill="black" stroke="none" />

  <circle cx="3.3200871784008914" cy="0.5330242419162221" r="0.10398069945468334"
          fill="black" stroke="none" />

  <circle cx="3.3798395239812393" cy="0.558150158611107" r="0.10398069945468334"
          fill="black" stroke="none" />

  <circle cx="3.442074747569302" cy="0.5933500989356439" r="0.10398069945468334"
          fill="black" stroke="none" />

  <circle cx="3.487359248255431" cy="0.6375343729999718" r="0.10398069945468334"
          fill="black" stroke="none" />

  <circle cx="3.505673400217916" cy="0.6842249316018283" r="0.10398069945468334"
          fill="black" stroke="none" />

  <circle cx="3.5028058930525265" cy="0.7255006436847863" r="0.10398069945468334"
          fill="black" stroke="none" />

  <circle cx="3.4975442912468333" cy="0.7567837944433592" r="0.10398069945468334"
          fill="black" stroke="none" />

  <circle cx="3.5109674177038466" cy="0.7795796911193879" r="0.10398069945468334"
          fill="black" stroke="none" />

  <circle cx="3.553910440555758" cy="0.8005291842577205" r="0.10398069945468334"
          fill="black" stroke="none" />

  <circle cx="3.6200130696426234" cy="0.8273677243450444" r="0.10398069945468334"
          fill="black" stroke="none" />

  <circle cx="3.688741087085404" cy="0.8642521325360943" r="0.10398069945468334"
          fill="black" stroke="none" />

  <circle cx="3.7370112244602174" cy="0.9092877511798947" r="0.10398069945468334"
          fill="black" stroke="none" />

  <circle cx="3.752862405306017" cy="0.9557405485060001" r="0.10398069945468334"
          fill="black" stroke="none" />

  <circle cx="3.743111605584227" cy="0.996170795829269" r="0.10398069945468334"
          fill="black" stroke="none" />

  <circle cx="3.7301619345530503" cy="1.0269449568178373" r="0.10398069945468334"
          fill="black" stroke="none" />

  <circle cx="3.7393790957010635" cy="1.0503565514584627" r="0.10398069945468334"
          fill="black" stroke="none" />

  <circle cx="3.784138184711492" cy="1.073056688318911" r="0.10398069945468334"
          fill="black" stroke="none" />

  <circle cx="3.857360157926116" cy="1.1017663625573713" r="0.10398069945468334"
          fill="black" stroke="none" />

  <circle cx="3.934903668650703" cy="1.1389247566442555" r="0.10398069945468334"
          fill="black" stroke="none" />

  <circle cx="3.9893652202130716" cy="1.1809811122196208" r="0.10398069945468334"
          fill="black" stroke="none" />

  <circle cx="4.00655887811943" cy="1.2204151893550326" r="0.10398069945468334"
          fill="black" stroke="none" />

  <circle cx="3.9949562843168485" cy="1.2502587085541694" r="0.10398069945468334"
          fill="black" stroke="none" />

  <circle cx="3.982064928194078" cy="1.2683129046092352" r="0.10398069945468334"
          fill="black" stroke="none" />

  <circle cx="3.9991986147322196" cy="1.2784076048496646" r="0.10398069945468334"
          fill="black" stroke="none" />

  <circle cx="4.0631009053833775" cy="1.2878628432895827" r="0.10398069945468334"
          fill="black" stroke="none" />

  <circle cx="4.1652292297114535" cy="1.3026954776058928" r="0.10398069945468334"
          fill="black" stroke="none" />

  <circle cx="4.275544125571533" cy="1.3235824478885436" r="0.10398069945468334"
          fill="black" stroke="none" />

  <circle cx="4.359376746155007" cy="1.3452013643743408" r="0.10398069945468334"
          fill="black" stroke="none" />

  <circle cx="4.398038266048616" cy="1.3595054830948368" r="0.10398069945468334"
          fill="black" stroke="none" />

  <circle cx="4.401013480711454" cy="1.3609953576006533" r="0.10398069945468334"
          fill="black" stroke="none" />

  <circle cx="4.4018404524939205" cy="1.3506809340761867" r="0.10398069945468334"
          fill="black" stroke="none" />

  <circle cx="4.439037850594884" cy="1.3360983042517998" r="0.10398069945468334"
          fill="black" stroke="none" />

  <circle cx="4.532525901435848" cy="1.327126250693488" r="0.10398069945468334"
          fill="black" stroke="none" />

  <circle cx="4.6694813294839665" cy="1.330020034087757" r="0.10398069945468334"
          fill="black" stroke="none" />

  <circle cx="4.808992470193539" cy="1.3433693507387796" r="0.10398069945468334"
          fill="black" stroke="none" />

  <circle cx="4.90435037154615" cy="1.358698213303012" r="0.10398069945468334"
          fill="black" stroke="none" />

  <circle cx="4.9311071742379" cy="1.3656411905172987" r="0.10398069945468334"
          fill="black" stroke="none" />

  <circle cx="4.904479537359645" cy="1.3586947846094553" r="0.10398069945468334"
          fill="black" stroke="none" />

  <circle cx="4.874482160444694" cy="1.3413002077484855" r="0.10398069945468334"
          fill="black" stroke="none" />

  <circle cx="4.899331052040755" cy="1.3243766999824322" r="0.10398069945468334"
          fill="black" stroke="none" />

  <circle cx="5.010684354533042" cy="1.3197403175416318" r="0.10398069945468334"
          fill="black" stroke="none" />

  <circle cx="5.190647124115772" cy="1.3321865715380174" r="0.10398069945468334"
          fill="black" stroke="none" />

  <circle cx="5.375801333333152" cy="1.3552835663216318" r="0.10398069945468334"
          fill="black" stroke="none" />

  <circle cx="5.489427406902999" cy="1.3741178407161156" r="0.10398069945468334"
          fill="black" stroke="none" />

  <circle cx="5.486691517569655" cy="1.3741697412686669" r="0.10398069945468334"
          fill="black" stroke="none" />

  <circle cx="5.387988040260156" cy="1.351449238869601" r="0.10398069945468334"
          fill="black" stroke="none" />

  <circle cx="5.278981619319152" cy="1.3174914244487055" r="0.10398069945468334"
          fill="black" stroke="none" />

  <circle cx="5.271688812673751" cy="1.2950199194738612" r="0.10398069945468334"
          fill="black" stroke="none" />

  <circle cx="5.441776443243536" cy="1.3051476589692164" r="0.10398069945468334"
          fill="black" stroke="none" />

  <circle cx="5.772325913829032" cy="1.3522292894503316" r="0.10398069945468334"
          fill="black" stroke="none" />

  <circle cx="6.134985575914419" cy="1.4148619593803526" r="0.10398069945468334"
          fill="black" stroke="none" />

  <circle cx="6.3240191161329715" cy="1.4493581015749468" r="0.10398069945468334"
          fill="black" stroke="none" />

  <circle cx="6.133876776371427" cy="1.4060244206957249" r="0.10398069945468334"
          fill="black" stroke="none" />

  <circle cx="5.448543649654696" cy="1.2517208442315546" r="0.10398069945468334"
          fill="black" stroke="none" />

  <circle cx="4.3024801920026485" cy="0.988107634053725" r="0.10398069945468334"
          fill="black" stroke="none" />

</svg>
