
<svg xmlns="http://www.w3.org/2000/svg"
     viewBox="0.16533539376963075 -5.999203456824294 4.420872221568228 7.661528431275308"
     width="800" height="600"
     preserveAspectRatio="xMidYMid meet">

  <circle cx="0.5135866861003265" cy="-5.650952164493598" r="0.03482512923306958"
          fill="black" stroke="none" />

  <circle cx="0.5408905742779204" cy="-5.517495702862492" r="0.03482512923306958"
          fill="black" stroke="none" />

  <circle cx="0.5699551041163373" cy="-5.42939809403075" r="0.03482512923306958"
          fill="black" stroke="none" />

  <circle cx="0.6045706044546352" cy="-5.425182660255562" r="0.03482512923306958"
          fill="black" stroke="none" />

  <circle cx="0.6453942371475895" cy="-5.487124929795964" r="0.03482512923306958"
          fill="black" stroke="none" />

  <circle cx="0.6903886314548119" cy="-5.565481471212044" r="0.03482512923306958"
          fill="black" stroke="none" />

  <circle cx="0.7363048413487789" cy="-5.611632052111343" r="0.03482512923306958"
          fill="black" stroke="none" />

  <circle cx="0.7804383439573652" cy="-5.603474759583104" r="0.03482512923306958"
          fill="black" stroke="none" />

  <circle cx="0.8218374912698763" cy="-5.552439435562707" r="0.03482512923306958"
          fill="black" stroke="none" />

  <circle cx="0.8614740341782703" cy="-5.491847228891396" r="0.03482512923306958"
          fill="black" stroke="none" />

  <circle cx="0.9014217055955951" cy="-5.455542392147503" r="0.03482512923306958"
          fill="black" stroke="none" />

  <circle cx="0.9435640966685701" cy="-5.45934609499945" r="0.03482512923306958"
          fill="black" stroke="none" />

  <circle cx="0.9885386714555677" cy="-5.494729275306312" r="0.03482512923306958"
          fill="black" stroke="none" />

  <circle cx="1.0354429447936468" cy="-5.536512334249862" r="0.03482512923306958"
          fill="black" stroke="none" />

  <circle cx="1.0823920830169917" cy="-5.558753586375319" r="0.03482512923306958"
          fill="black" stroke="none" />

  <circle cx="1.127561762589385" cy="-5.549271677915548" r="0.03482512923306958"
          fill="black" stroke="none" />

  <circle cx="1.17011469235009" cy="-5.515015059204657" r="0.03482512923306958"
          fill="black" stroke="none" />

  <circle cx="1.2105089787589742" cy="-5.476264154099292" r="0.03482512923306958"
          fill="black" stroke="none" />

  <circle cx="1.2500548768463355" cy="-5.45395482793175" r="0.03482512923306958"
          fill="black" stroke="none" />

  <circle cx="1.2900140037319061" cy="-5.45779296480479" r="0.03482512923306958"
          fill="black" stroke="none" />

  <circle cx="1.3307849137905174" cy="-5.481708276105616" r="0.03482512923306958"
          fill="black" stroke="none" />

  <circle cx="1.371656007221989" cy="-5.508564571777871" r="0.03482512923306958"
          fill="black" stroke="none" />

  <circle cx="1.4112708880835052" cy="-5.520733151132855" r="0.03482512923306958"
          fill="black" stroke="none" />

  <circle cx="1.4485339865386728" cy="-5.510129141168125" r="0.03482512923306958"
          fill="black" stroke="none" />

  <circle cx="1.483421862309923" cy="-5.482098483279934" r="0.03482512923306958"
          fill="black" stroke="none" />

  <circle cx="1.5172076421739813" cy="-5.451409855896997" r="0.03482512923306958"
          fill="black" stroke="none" />

  <circle cx="1.5519314735864838" cy="-5.433176297874158" r="0.03482512923306958"
          fill="black" stroke="none" />

  <circle cx="1.5893780137192843" cy="-5.434200266792204" r="0.03482512923306958"
          fill="black" stroke="none" />

  <circle cx="1.6301125573021678" cy="-5.449631952043598" r="0.03482512923306958"
          fill="black" stroke="none" />

  <circle cx="1.6731146143573759" cy="-5.466503707027627" r="0.03482512923306958"
          fill="black" stroke="none" />

  <circle cx="1.716233610997236" cy="-5.471698708629152" r="0.03482512923306958"
          fill="black" stroke="none" />

  <circle cx="1.7572461689843586" cy="-5.459533259758505" r="0.03482512923306958"
          fill="black" stroke="none" />

  <circle cx="1.7949631178574812" cy="-5.4346314357259375" r="0.03482512923306958"
          fill="black" stroke="none" />

  <circle cx="1.8298009440618013" cy="-5.408701875818862" r="0.03482512923306958"
          fill="black" stroke="none" />

  <circle cx="1.8635171472520837" cy="-5.393390394395326" r="0.03482512923306958"
          fill="black" stroke="none" />

  <circle cx="1.898256843209049" cy="-5.3935168410377585" r="0.03482512923306958"
          fill="black" stroke="none" />

  <circle cx="1.9354239808574325" cy="-5.404567618480311" r="0.03482512923306958"
          fill="black" stroke="none" />

  <circle cx="1.9749755427934952" cy="-5.415684991535702" r="0.03482512923306958"
          fill="black" stroke="none" />

  <circle cx="2.0154976005065692" cy="-5.4161802765824305" r="0.03482512923306958"
          fill="black" stroke="none" />

  <circle cx="2.054993378581388" cy="-5.40166546145281" r="0.03482512923306958"
          fill="black" stroke="none" />

  <circle cx="2.0919331637986494" cy="-5.376293063225065" r="0.03482512923306958"
          fill="black" stroke="none" />

  <circle cx="2.1259912065416406" cy="-5.349985206473525" r="0.03482512923306958"
          fill="black" stroke="none" />

  <circle cx="2.158088050892653" cy="-5.332461273471733" r="0.03482512923306958"
          fill="black" stroke="none" />

  <circle cx="2.189753072508994" cy="-5.327636601091518" r="0.03482512923306958"
          fill="black" stroke="none" />

  <circle cx="2.2221962645886" cy="-5.331600684689851" r="0.03482512923306958"
          fill="black" stroke="none" />

  <circle cx="2.255622928014918" cy="-5.335190275627333" r="0.03482512923306958"
          fill="black" stroke="none" />

  <circle cx="2.2891658327470568" cy="-5.329485768631091" r="0.03482512923306958"
          fill="black" stroke="none" />

  <circle cx="2.3214449924303224" cy="-5.3109429254618705" r="0.03482512923306958"
          fill="black" stroke="none" />

  <circle cx="2.3514072147196856" cy="-5.283213358135199" r="0.03482512923306958"
          fill="black" stroke="none" />

  <circle cx="2.3789490784327576" cy="-5.254733100588063" r="0.03482512923306958"
          fill="black" stroke="none" />

  <circle cx="2.4049671039408222" cy="-5.2336372585567545" r="0.03482512923306958"
          fill="black" stroke="none" />

  <circle cx="2.430820253571845" cy="-5.223044422208364" r="0.03482512923306958"
          fill="black" stroke="none" />

  <circle cx="2.4575316955486803" cy="-5.219427452381527" r="0.03482512923306958"
          fill="black" stroke="none" />

  <circle cx="2.4852018513881635" cy="-5.214902622129821" r="0.03482512923306958"
          fill="black" stroke="none" />

  <circle cx="2.5129729299135706" cy="-5.201971319783562" r="0.03482512923306958"
          fill="black" stroke="none" />

  <circle cx="2.5395575648612763" cy="-5.177879846045099" r="0.03482512923306958"
          fill="black" stroke="none" />

  <circle cx="2.564014097483163" cy="-5.1460820902489015" r="0.03482512923306958"
          fill="black" stroke="none" />

  <circle cx="2.5863105848032264" cy="-5.114054448087474" r="0.03482512923306958"
          fill="black" stroke="none" />

  <circle cx="2.6073483531795163" cy="-5.088852189221905" r="0.03482512923306958"
          fill="black" stroke="none" />

  <circle cx="2.6284359289985533" cy="-5.073060041033676" r="0.03482512923306958"
          fill="black" stroke="none" />

  <circle cx="2.650526838589882" cy="-5.063473658028514" r="0.03482512923306958"
          fill="black" stroke="none" />

  <circle cx="2.673671465568125" cy="-5.053187053745598" r="0.03482512923306958"
          fill="black" stroke="none" />

  <circle cx="2.6970051478441723" cy="-5.035760428867765" r="0.03482512923306958"
          fill="black" stroke="none" />

  <circle cx="2.7192783058677055" cy="-5.008974842878667" r="0.03482512923306958"
          fill="black" stroke="none" />

  <circle cx="2.739615608064743" cy="-4.975997673800904" r="0.03482512923306958"
          fill="black" stroke="none" />

  <circle cx="2.7580566105250854" cy="-4.943356766148514" r="0.03482512923306958"
          fill="black" stroke="none" />

  <circle cx="2.7755582691577887" cy="-4.9169995855822695" r="0.03482512923306958"
          fill="black" stroke="none" />

  <circle cx="2.793454886740878" cy="-4.898795117772254" r="0.03482512923306958"
          fill="black" stroke="none" />

  <circle cx="2.8126888787833395" cy="-4.885513602638518" r="0.03482512923306958"
          fill="black" stroke="none" />

  <circle cx="2.833260454922469" cy="-4.870818714053235" r="0.03482512923306958"
          fill="black" stroke="none" />

  <circle cx="2.8542173582974204" cy="-4.849033786804278" r="0.03482512923306958"
          fill="black" stroke="none" />

  <circle cx="2.8741914685684495" cy="-4.818438092654796" r="0.03482512923306958"
          fill="black" stroke="none" />

  <circle cx="2.8921708652596783" cy="-4.782177323608989" r="0.03482512923306958"
          fill="black" stroke="none" />

  <circle cx="2.90805936656937" cy="-4.746309957411542" r="0.03482512923306958"
          fill="black" stroke="none" />

  <circle cx="2.9226999097984527" cy="-4.716193486762101" r="0.03482512923306958"
          fill="black" stroke="none" />

  <circle cx="2.937350495699145" cy="-4.6933557445944825" r="0.03482512923306958"
          fill="black" stroke="none" />

  <circle cx="2.9529194532335823" cy="-4.674666120440362" r="0.03482512923306958"
          fill="black" stroke="none" />

  <circle cx="2.969405307373621" cy="-4.65424155694958" r="0.03482512923306958"
          fill="black" stroke="none" />

  <circle cx="2.98586547704368" cy="-4.6269205500366875" r="0.03482512923306958"
          fill="black" stroke="none" />

  <circle cx="3.000928842928759" cy="-4.591252221881124" r="0.03482512923306958"
          fill="black" stroke="none" />

  <circle cx="3.0135507837129887" cy="-4.550275895833885" r="0.03482512923306958"
          fill="black" stroke="none" />

  <circle cx="3.0235700533997614" cy="-4.509690225023278" r="0.03482512923306958"
          fill="black" stroke="none" />

  <circle cx="3.0317452690227205" cy="-4.474536662814558" r="0.03482512923306958"
          fill="black" stroke="none" />

  <circle cx="3.039254538259795" cy="-4.446357690089573" r="0.03482512923306958"
          fill="black" stroke="none" />

  <circle cx="3.0469554769834994" cy="-4.42246587572482" r="0.03482512923306958"
          fill="black" stroke="none" />

  <circle cx="3.0548411814638974" cy="-4.397691692504266" r="0.03482512923306958"
          fill="black" stroke="none" />

  <circle cx="3.0620105104436717" cy="-4.367526539060098" r="0.03482512923306958"
          fill="black" stroke="none" />

  <circle cx="3.0671679684584916" cy="-4.3307921856837215" r="0.03482512923306958"
          fill="black" stroke="none" />

  <circle cx="3.0693577954784974" cy="-4.290290675753475" r="0.03482512923306958"
          fill="black" stroke="none" />

  <circle cx="3.0685006727835535" cy="-4.251105508866305" r="0.03482512923306958"
          fill="black" stroke="none" />

  <circle cx="3.0654190353722734" cy="-4.217605298378482" r="0.03482512923306958"
          fill="black" stroke="none" />

  <circle cx="3.061338575418013" cy="-4.190935634716298" r="0.03482512923306958"
          fill="black" stroke="none" />

  <circle cx="3.0571615930297047" cy="-4.168459006402832" r="0.03482512923306958"
          fill="black" stroke="none" />

  <circle cx="3.052941519622544" cy="-4.1454298471499555" r="0.03482512923306958"
          fill="black" stroke="none" />

  <circle cx="3.0478692108630407" cy="-4.117875627371932" r="0.03482512923306958"
          fill="black" stroke="none" />

  <circle cx="3.0407810154457073" cy="-4.084967898297386" r="0.03482512923306958"
          fill="black" stroke="none" />

  <circle cx="3.030893504612256" cy="-4.049498311470244" r="0.03482512923306958"
          fill="black" stroke="none" />

  <circle cx="3.0183396631370774" cy="-4.016210062652079" r="0.03482512923306958"
          fill="black" stroke="none" />

  <circle cx="3.00420222331085" cy="-3.9889954336176974" r="0.03482512923306958"
          fill="black" stroke="none" />

  <circle cx="2.9900391328263316" cy="-3.9686161205075097" r="0.03482512923306958"
          fill="black" stroke="none" />

  <circle cx="2.9771956574313796" cy="-3.9522691254626086" r="0.03482512923306958"
          fill="black" stroke="none" />

  <circle cx="2.9663187929023422" cy="-3.935220912520516" r="0.03482512923306958"
          fill="black" stroke="none" />

  <circle cx="2.9573596622342917" cy="-3.913523270533531" r="0.03482512923306958"
          fill="black" stroke="none" />

  <circle cx="2.9500452642484403" cy="-3.8862137165213824" r="0.03482512923306958"
          fill="black" stroke="none" />

  <circle cx="2.9445044395763578" cy="-3.855735692427399" r="0.03482512923306958"
          fill="black" stroke="none" />

  <circle cx="2.9416242924410296" cy="-3.8263763274004723" r="0.03482512923306958"
          fill="black" stroke="none" />

  <circle cx="2.9428631945724675" cy="-3.801677385153984" r="0.03482512923306958"
          fill="black" stroke="none" />

  <circle cx="2.949572132037649" cy="-3.7823507538028878" r="0.03482512923306958"
          fill="black" stroke="none" />

  <circle cx="2.962187473242758" cy="-3.7658999044945336" r="0.03482512923306958"
          fill="black" stroke="none" />

  <circle cx="2.979768146605722" cy="-3.748125290729219" r="0.03482512923306958"
          fill="black" stroke="none" />

  <circle cx="3.0001851158321937" cy="-3.7255875734211266" r="0.03482512923306958"
          fill="black" stroke="none" />

  <circle cx="3.0209167799430228" cy="-3.697564878513719" r="0.03482512923306958"
          fill="black" stroke="none" />

  <circle cx="3.040059403704698" cy="-3.666370995101084" r="0.03482512923306958"
          fill="black" stroke="none" />

  <circle cx="3.0570257736546926" cy="-3.6358877559009373" r="0.03482512923306958"
          fill="black" stroke="none" />

  <circle cx="3.0725618106164063" cy="-3.6092145344281814" r="0.03482512923306958"
          fill="black" stroke="none" />

  <circle cx="3.088078222673093" cy="-3.586833970554805" r="0.03482512923306958"
          fill="black" stroke="none" />

  <circle cx="3.1046693099668867" cy="-3.5663566050638797" r="0.03482512923306958"
          fill="black" stroke="none" />

  <circle cx="3.122363067058565" cy="-3.543953857949357" r="0.03482512923306958"
          fill="black" stroke="none" />

  <circle cx="3.1400169251904746" cy="-3.5165928352239804" r="0.03482512923306958"
          fill="black" stroke="none" />

  <circle cx="3.1559115343911914" cy="-3.4837355753716355" r="0.03482512923306958"
          fill="black" stroke="none" />

  <circle cx="3.1687008917759414" cy="-3.447514605677073" r="0.03482512923306958"
          fill="black" stroke="none" />

  <circle cx="3.178169616686665" cy="-3.411324074002703" r="0.03482512923306958"
          fill="black" stroke="none" />

  <circle cx="3.1853430501783375" cy="-3.3777114900093563" r="0.03482512923306958"
          fill="black" stroke="none" />

  <circle cx="3.1918424830546877" cy="-3.346857930270272" r="0.03482512923306958"
          fill="black" stroke="none" />

  <circle cx="3.198788648596401" cy="-3.316563396864403" r="0.03482512923306958"
          fill="black" stroke="none" />

  <circle cx="3.205811703203671" cy="-3.2837399278731083" r="0.03482512923306958"
          fill="black" stroke="none" />

  <circle cx="3.210692729646482" cy="-3.2465080830524435" r="0.03482512923306958"
          fill="black" stroke="none" />

  <circle cx="3.209863635947845" cy="-3.205631832901171" r="0.03482512923306958"
          fill="black" stroke="none" />

  <circle cx="3.1995893771427513" cy="-3.164421938594839" r="0.03482512923306958"
          fill="black" stroke="none" />

  <circle cx="3.177353631404811" cy="-3.1271476863488594" r="0.03482512923306958"
          fill="black" stroke="none" />

  <circle cx="3.142905245076552" cy="-3.096877628346256" r="0.03482512923306958"
          fill="black" stroke="none" />

  <circle cx="3.0986033915056845" cy="-3.074000277605504" r="0.03482512923306958"
          fill="black" stroke="none" />

  <circle cx="3.049007239705424" cy="-3.056264727347299" r="0.03482512923306958"
          fill="black" stroke="none" />

  <circle cx="2.999927731480103" cy="-3.040278762711571" r="0.03482512923306958"
          fill="black" stroke="none" />

  <circle cx="2.957279250392875" cy="-3.0235468888161017" r="0.03482512923306958"
          fill="black" stroke="none" />

  <circle cx="2.9260251183382193" cy="-3.005828966361844" r="0.03482512923306958"
          fill="black" stroke="none" />

  <circle cx="2.9093820173744698" cy="-2.9890259168800313" r="0.03482512923306958"
          fill="black" stroke="none" />

  <circle cx="2.908339719042358" cy="-2.975693488409803" r="0.03482512923306958"
          fill="black" stroke="none" />

  <circle cx="2.9215215279603592" cy="-2.9671128660657597" r="0.03482512923306958"
          fill="black" stroke="none" />

  <circle cx="2.945434043283998" cy="-2.9621146952684247" r="0.03482512923306958"
          fill="black" stroke="none" />

  <circle cx="2.9751540082685963" cy="-2.9574021154182137" r="0.03482512923306958"
          fill="black" stroke="none" />

  <circle cx="3.0054093736031136" cy="-2.949217530227516" r="0.03482512923306958"
          fill="black" stroke="none" />

  <circle cx="3.0318386111893303" cy="-2.935383287708114" r="0.03482512923306958"
          fill="black" stroke="none" />

  <circle cx="3.05204802761513" cy="-2.9165039224330402" r="0.03482512923306958"
          fill="black" stroke="none" />

  <circle cx="3.0660554106937874" cy="-2.8955949288449583" r="0.03482512923306958"
          fill="black" stroke="none" />

  <circle cx="3.075883000586838" cy="-2.876322486978712" r="0.03482512923306958"
          fill="black" stroke="none" />

  <circle cx="3.084402834347002" cy="-2.8608602183495435" r="0.03482512923306958"
          fill="black" stroke="none" />

  <circle cx="3.093890647397827" cy="-2.848608227072218" r="0.03482512923306958"
          fill="black" stroke="none" />

  <circle cx="3.104920915992218" cy="-2.8365317746343237" r="0.03482512923306958"
          fill="black" stroke="none" />

  <circle cx="3.1161158672108913" cy="-2.820942599194985" r="0.03482512923306958"
          fill="black" stroke="none" />

  <circle cx="3.1248752653600684" cy="-2.7997072188670935" r="0.03482512923306958"
          fill="black" stroke="none" />

  <circle cx="3.128740283429972" cy="-2.7736108577129324" r="0.03482512923306958"
          fill="black" stroke="none" />

  <circle cx="3.1267248320942254" cy="-2.7460819429894214" r="0.03482512923306958"
          fill="black" stroke="none" />

  <circle cx="3.119955638080344" cy="-2.7214155849247614" r="0.03482512923306958"
          fill="black" stroke="none" />

  <circle cx="3.111305677761779" cy="-2.7024872766274037" r="0.03482512923306958"
          fill="black" stroke="none" />

  <circle cx="3.104212837101545" cy="-2.689231942876793" r="0.03482512923306958"
          fill="black" stroke="none" />

  <circle cx="3.101283253915473" cy="-2.678721010669314" r="0.03482512923306958"
          fill="black" stroke="none" />

  <circle cx="3.10337190947135" cy="-2.6667623517915273" r="0.03482512923306958"
          fill="black" stroke="none" />

  <circle cx="3.1095637200300095" cy="-2.6500990213535993" r="0.03482512923306958"
          fill="black" stroke="none" />

  <circle cx="3.1179938555089217" cy="-2.6279750559522053" r="0.03482512923306958"
          fill="black" stroke="none" />

  <circle cx="3.127009566740282" cy="-2.602233905200044" r="0.03482512923306958"
          fill="black" stroke="none" />

  <circle cx="3.136022586906967" cy="-2.5759737324210565" r="0.03482512923306958"
          fill="black" stroke="none" />

  <circle cx="3.1456086284391516" cy="-2.551600816396285" r="0.03482512923306958"
          fill="black" stroke="none" />

  <circle cx="3.1568559810785075" cy="-2.52943030369502" r="0.03482512923306958"
          fill="black" stroke="none" />

  <circle cx="3.1703951628040725" cy="-2.507619919883827" r="0.03482512923306958"
          fill="black" stroke="none" />

  <circle cx="3.185713965932515" cy="-2.4834162833484292" r="0.03482512923306958"
          fill="black" stroke="none" />

  <circle cx="3.201182625858267" cy="-2.4549250005744216" r="0.03482512923306958"
          fill="black" stroke="none" />

  <circle cx="3.2147882991274255" cy="-2.4223310510643037" r="0.03482512923306958"
          fill="black" stroke="none" />

  <circle cx="3.225152941653869" cy="-2.3878491019673636" r="0.03482512923306958"
          fill="black" stroke="none" />

  <circle cx="3.232230828765495" cy="-2.354452614490129" r="0.03482512923306958"
          fill="black" stroke="none" />

  <circle cx="3.2372577756389136" cy="-2.3241556512224117" r="0.03482512923306958"
          fill="black" stroke="none" />

  <circle cx="3.241957463588605" cy="-2.296877013355956" r="0.03482512923306958"
          fill="black" stroke="none" />

  <circle cx="3.2474546237866138" cy="-2.2705606334306134" r="0.03482512923306958"
          fill="black" stroke="none" />

  <circle cx="3.2535412946079747" cy="-2.242477887449625" r="0.03482512923306958"
          fill="black" stroke="none" />

  <circle cx="3.258766805950034" cy="-2.2109419123309024" r="0.03482512923306958"
          fill="black" stroke="none" />

  <circle cx="3.261358876320148" cy="-2.176428147944039" r="0.03482512923306958"
          fill="black" stroke="none" />

  <circle cx="3.2604833960865687" cy="-2.1414504277261748" r="0.03482512923306958"
          fill="black" stroke="none" />

  <circle cx="3.2570968424194566" cy="-2.109271495371755" r="0.03482512923306958"
          fill="black" stroke="none" />

  <circle cx="3.2537966777831775" cy="-2.0821992579841657" r="0.03482512923306958"
          fill="black" stroke="none" />

  <circle cx="3.2535755928335997" cy="-2.0604449479886235" r="0.03482512923306958"
          fill="black" stroke="none" />

  <circle cx="3.2579877336961047" cy="-2.0421747468525226" r="0.03482512923306958"
          fill="black" stroke="none" />

  <circle cx="3.2656261266061617" cy="-2.024684981124698" r="0.03482512923306958"
          fill="black" stroke="none" />

  <circle cx="3.2717734960643634" cy="-2.0059888930325096" r="0.03482512923306958"
          fill="black" stroke="none" />

  <circle cx="3.2696158824378356" cy="-1.9858922134290442" r="0.03482512923306958"
          fill="black" stroke="none" />

  <circle cx="3.252708130958598" cy="-1.9659663765978712" r="0.03482512923306958"
          fill="black" stroke="none" />

  <circle cx="3.2177753730701513" cy="-1.948493052944749" r="0.03482512923306958"
          fill="black" stroke="none" />

  <circle cx="3.166706940266431" cy="-1.9350524002150666" r="0.03482512923306958"
          fill="black" stroke="none" />

  <circle cx="3.1068578463034155" cy="-1.9256097342451541" r="0.03482512923306958"
          fill="black" stroke="none" />

  <circle cx="3.049409126526293" cy="-1.9186252970110802" r="0.03482512923306958"
          fill="black" stroke="none" />

  <circle cx="3.0062825217000992" cy="-1.9120790475062779" r="0.03482512923306958"
          fill="black" stroke="none" />

  <circle cx="2.986653298635841" cy="-1.9047514560161103" r="0.03482512923306958"
          fill="black" stroke="none" />

  <circle cx="2.994249819596119" cy="-1.8969598983515152" r="0.03482512923306958"
          fill="black" stroke="none" />

  <circle cx="3.0263354623652425" cy="-1.8902954905461247" r="0.03482512923306958"
          fill="black" stroke="none" />

  <circle cx="3.0746726926454078" cy="-1.88652177391399" r="0.03482512923306958"
          fill="black" stroke="none" />

  <circle cx="3.1281035688988537" cy="-1.8863098484833918" r="0.03482512923306958"
          fill="black" stroke="none" />

  <circle cx="3.175878448455625" cy="-1.8885863105801952" r="0.03482512923306958"
          fill="black" stroke="none" />

  <circle cx="3.2106761405837987" cy="-1.8909026765418595" r="0.03482512923306958"
          fill="black" stroke="none" />

  <circle cx="3.2304159093724314" cy="-1.8906219326670204" r="0.03482512923306958"
          fill="black" stroke="none" />

  <circle cx="3.238385833883078" cy="-1.8862288335734423" r="0.03482512923306958"
          fill="black" stroke="none" />

  <circle cx="3.241753738338916" cy="-1.877998070443254" r="0.03482512923306958"
          fill="black" stroke="none" />

  <circle cx="3.249016744170938" cy="-1.8676396683004244" r="0.03482512923306958"
          fill="black" stroke="none" />

  <circle cx="3.267240328872071" cy="-1.8571509892215943" r="0.03482512923306958"
          fill="black" stroke="none" />

  <circle cx="3.2999562758446146" cy="-1.8475734179180052" r="0.03482512923306958"
          fill="black" stroke="none" />

  <circle cx="3.3463326746707214" cy="-1.8383996067870148" r="0.03482512923306958"
          fill="black" stroke="none" />

  <circle cx="3.40178492410518" cy="-1.8279776875930698" r="0.03482512923306958"
          fill="black" stroke="none" />

  <circle cx="3.4597142760783526" cy="-1.8146535211231947" r="0.03482512923306958"
          fill="black" stroke="none" />

  <circle cx="3.5137060319946447" cy="-1.7979445944927033" r="0.03482512923306958"
          fill="black" stroke="none" />

  <circle cx="3.5594158021243283" cy="-1.7790177592433234" r="0.03482512923306958"
          fill="black" stroke="none" />

  <circle cx="3.595548215226232" cy="-1.7601601871953674" r="0.03482512923306958"
          fill="black" stroke="none" />

  <circle cx="3.6237076098691383" cy="-1.7435387248405605" r="0.03482512923306958"
          fill="black" stroke="none" />

  <circle cx="3.6473165029461043" cy="-1.72997457480084" r="0.03482512923306958"
          fill="black" stroke="none" />

  <circle cx="3.6700888430519263" cy="-1.718459345643096" r="0.03482512923306958"
          fill="black" stroke="none" />

  <circle cx="3.694612032766611" cy="-1.7067048122293023" r="0.03482512923306958"
          fill="black" stroke="none" />

  <circle cx="3.721444626618421" cy="-1.692410375844672" r="0.03482512923306958"
          fill="black" stroke="none" />

  <circle cx="3.748881145227964" cy="-1.674511536739485" r="0.03482512923306958"
          fill="black" stroke="none" />

  <circle cx="3.7733092239358967" cy="-1.6536899998305379" r="0.03482512923306958"
          fill="black" stroke="none" />

  <circle cx="3.7899792087439543" cy="-1.6318702814931798" r="0.03482512923306958"
          fill="black" stroke="none" />

  <circle cx="3.7940216439362153" cy="-1.6110329732221516" r="0.03482512923306958"
          fill="black" stroke="none" />

  <circle cx="3.7816029993481557" cy="-1.5920788921885078" r="0.03482512923306958"
          fill="black" stroke="none" />

  <circle cx="3.75110783144207" cy="-1.574438783922539" r="0.03482512923306958"
          fill="black" stroke="none" />

  <circle cx="3.704140098941834" cy="-1.5566626268937145" r="0.03482512923306958"
          fill="black" stroke="none" />

  <circle cx="3.64600899832058" cy="-1.5376161190714461" r="0.03482512923306958"
          fill="black" stroke="none" />

  <circle cx="3.5853338583362824" cy="-1.5175243769957705" r="0.03482512923306958"
          fill="black" stroke="none" />

  <circle cx="3.532577705366272" cy="-1.4981714165288773" r="0.03482512923306958"
          fill="black" stroke="none" />

  <circle cx="3.4976999964381337" cy="-1.4820556777313725" r="0.03482512923306958"
          fill="black" stroke="none" />

  <circle cx="3.4875619228108485" cy="-1.470930743680337" r="0.03482512923306958"
          fill="black" stroke="none" />

  <circle cx="3.5039896852932078" cy="-1.4645547260970568" r="0.03482512923306958"
          fill="black" stroke="none" />

  <circle cx="3.543304150545042" cy="-1.4603930995757426" r="0.03482512923306958"
          fill="black" stroke="none" />

  <circle cx="3.597623579573023" cy="-1.454504730364804" r="0.03482512923306958"
          fill="black" stroke="none" />

  <circle cx="3.657519785805284" cy="-1.4431819161074748" r="0.03482512923306958"
          fill="black" stroke="none" />

  <circle cx="3.7149892210391657" cy="-1.4244911097085446" r="0.03482512923306958"
          fill="black" stroke="none" />

  <circle cx="3.7655127934956965" cy="-1.3989160672928929" r="0.03482512923306958"
          fill="black" stroke="none" />

  <circle cx="3.8083599662163348" cy="-1.3688073655130388" r="0.03482512923306958"
          fill="black" stroke="none" />

  <circle cx="3.8451014262133807" cy="-1.337002148997092" r="0.03482512923306958"
          fill="black" stroke="none" />

  <circle cx="3.877155398040089" cy="-1.3054177170146062" r="0.03482512923306958"
          fill="black" stroke="none" />

  <circle cx="3.903676304188262" cy="-1.2743952549706514" r="0.03482512923306958"
          fill="black" stroke="none" />

  <circle cx="3.920938797444624" cy="-1.2431014223212775" r="0.03482512923306958"
          fill="black" stroke="none" />

  <circle cx="3.9236271853561324" cy="-1.2106658186434605" r="0.03482512923306958"
          fill="black" stroke="none" />

  <circle cx="3.907465005576724" cy="-1.1773100904661038" r="0.03482512923306958"
          fill="black" stroke="none" />

  <circle cx="3.8718987312447295" cy="-1.1447508463009002" r="0.03482512923306958"
          fill="black" stroke="none" />

  <circle cx="3.821454528876234" cy="-1.1156088746869546" r="0.03482512923306958"
          fill="black" stroke="none" />

  <circle cx="3.7649792808826614" cy="-1.0921591770931618" r="0.03482512923306958"
          fill="black" stroke="none" />

  <circle cx="3.7129717795695623" cy="-1.0751533097137773" r="0.03482512923306958"
          fill="black" stroke="none" />

  <circle cx="3.6741180409601695" cy="-1.0634065508539432" r="0.03482512923306958"
          fill="black" stroke="none" />

  <circle cx="3.6525214601617337" cy="-1.0543960264180514" r="0.03482512923306958"
          fill="black" stroke="none" />

  <circle cx="3.6467882958421836" cy="-1.0455296961164802" r="0.03482512923306958"
          fill="black" stroke="none" />

  <circle cx="3.65126804575896" cy="-1.0353659255498624" r="0.03482512923306958"
          fill="black" stroke="none" />

  <circle cx="3.658786060749703" cy="-1.02410887303174" r="0.03482512923306958"
          fill="black" stroke="none" />

  <circle cx="3.6636001270921055" cy="-1.013141967654493" r="0.03482512923306958"
          fill="black" stroke="none" />

  <circle cx="3.663321449987717" cy="-1.0039262799050301" r="0.03482512923306958"
          fill="black" stroke="none" />

  <circle cx="3.6591075927626777" cy="-0.9969478562968555" r="0.03482512923306958"
          fill="black" stroke="none" />

  <circle cx="3.654244996618015" cy="-0.9913416683288899" r="0.03482512923306958"
          fill="black" stroke="none" />

  <circle cx="3.651898049641378" cy="-0.9853920323028611" r="0.03482512923306958"
          fill="black" stroke="none" />

  <circle cx="3.653041000452576" cy="-0.9775727042243523" r="0.03482512923306958"
          fill="black" stroke="none" />

  <circle cx="3.6553776552462844" cy="-0.9674679576822254" r="0.03482512923306958"
          fill="black" stroke="none" />

  <circle cx="3.653573993890835" cy="-0.9559996755966216" r="0.03482512923306958"
          fill="black" stroke="none" />

  <circle cx="3.6406415874137275" cy="-0.9448199764383483" r="0.03482512923306958"
          fill="black" stroke="none" />

  <circle cx="3.6100025430268254" cy="-0.9352482132270252" r="0.03482512923306958"
          fill="black" stroke="none" />

  <circle cx="3.557674920372736" cy="-0.9274189880046508" r="0.03482512923306958"
          fill="black" stroke="none" />

  <circle cx="3.484055840539339" cy="-0.9201876293009625" r="0.03482512923306958"
          fill="black" stroke="none" />

  <circle cx="3.394847363899842" cy="-0.911880910612505" r="0.03482512923306958"
          fill="black" stroke="none" />

  <circle cx="3.300748070217659" cy="-0.9014580465489614" r="0.03482512923306958"
          fill="black" stroke="none" />

  <circle cx="3.2156965420561385" cy="-0.8893757431104661" r="0.03482512923306958"
          fill="black" stroke="none" />

  <circle cx="3.1537914895875128" cy="-0.8775993236830313" r="0.03482512923306958"
          fill="black" stroke="none" />

  <circle cx="3.125514160268562" cy="-0.8686889259529881" r="0.03482512923306958"
          fill="black" stroke="none" />

  <circle cx="3.1343640629542056" cy="-0.8644323227374222" r="0.03482512923306958"
          fill="black" stroke="none" />

  <circle cx="3.175202263200692" cy="-0.8647752302506375" r="0.03482512923306958"
          fill="black" stroke="none" />

  <circle cx="3.235244228658053" cy="-0.8676496877384227" r="0.03482512923306958"
          fill="black" stroke="none" />

  <circle cx="3.297753999324825" cy="-0.8698056840021717" r="0.03482512923306958"
          fill="black" stroke="none" />

  <circle cx="3.347367134442469" cy="-0.8681964149670862" r="0.03482512923306958"
          fill="black" stroke="none" />

  <circle cx="3.3751226241175827" cy="-0.8611726210942998" r="0.03482512923306958"
          fill="black" stroke="none" />

  <circle cx="3.381186439246367" cy="-0.8488723555252831" r="0.03482512923306958"
          fill="black" stroke="none" />

  <circle cx="3.374065820609901" cy="-0.8326663527472606" r="0.03482512923306958"
          fill="black" stroke="none" />

  <circle cx="3.366560853685018" cy="-0.814055259830363" r="0.03482512923306958"
          fill="black" stroke="none" />

  <circle cx="3.3701394721320677" cy="-0.7937017321783919" r="0.03482512923306958"
          fill="black" stroke="none" />

  <circle cx="3.3901564204761137" cy="-0.7711582355344448" r="0.03482512923306958"
          fill="black" stroke="none" />

  <circle cx="3.4239695836546287" cy="-0.7454041459081612" r="0.03482512923306958"
          fill="black" stroke="none" />

  <circle cx="3.462671998558355" cy="-0.7158071164194318" r="0.03482512923306958"
          fill="black" stroke="none" />

  <circle cx="3.495480682051371" cy="-0.6828722689550133" r="0.03482512923306958"
          fill="black" stroke="none" />

  <circle cx="3.514621286458618" cy="-0.6482843448574286" r="0.03482512923306958"
          fill="black" stroke="none" />

  <circle cx="3.5184126721889912" cy="-0.6141907568442764" r="0.03482512923306958"
          fill="black" stroke="none" />

  <circle cx="3.5112429049139515" cy="-0.5821459483237126" r="0.03482512923306958"
          fill="black" stroke="none" />

  <circle cx="3.500720237244554" cy="-0.5523527009022321" r="0.03482512923306958"
          fill="black" stroke="none" />

  <circle cx="3.4936561768064216" cy="-0.5236641603504464" r="0.03482512923306958"
          fill="black" stroke="none" />

  <circle cx="3.4929969035990984" cy="-0.494355636953802" r="0.03482512923306958"
          fill="black" stroke="none" />

  <circle cx="3.497162024483272" cy="-0.4632124241602431" r="0.03482512923306958"
          fill="black" stroke="none" />

  <circle cx="3.501868765132881" cy="-0.43028851040668004" r="0.03482512923306958"
          fill="black" stroke="none" />

  <circle cx="3.5031823230959254" cy="-0.3968873306294939" r="0.03482512923306958"
          fill="black" stroke="none" />

  <circle cx="3.4999587588781367" cy="-0.3647826235192343" r="0.03482512923306958"
          fill="black" stroke="none" />

  <circle cx="3.4943162512496513" cy="-0.33515497251346504" r="0.03482512923306958"
          fill="black" stroke="none" />

  <circle cx="3.489981040620065" cy="-0.30789254855519743" r="0.03482512923306958"
          fill="black" stroke="none" />

  <circle cx="3.489599997487715" cy="-0.2816878093738642" r="0.03482512923306958"
          fill="black" stroke="none" />

  <circle cx="3.4926858708021427" cy="-0.2548837834539096" r="0.03482512923306958"
          fill="black" stroke="none" />

  <circle cx="3.495454045166143" cy="-0.2265695967224033" r="0.03482512923306958"
          fill="black" stroke="none" />

  <circle cx="3.492676617382153" cy="-0.19726729710330237" r="0.03482512923306958"
          fill="black" stroke="none" />

  <circle cx="3.4804878642435133" cy="-0.16878686844317023" r="0.03482512923306958"
          fill="black" stroke="none" />

  <circle cx="3.458516482409225" cy="-0.14331567775407755" r="0.03482512923306958"
          fill="black" stroke="none" />

  <circle cx="3.4301130237027793" cy="-0.12226231189357925" r="0.03482512923306958"
          fill="black" stroke="none" />

  <circle cx="3.400550414889034" cy="-0.10552311321397091" r="0.03482512923306958"
          fill="black" stroke="none" />

  <circle cx="3.3742512170546513" cy="-0.09159404677664472" r="0.03482512923306958"
          fill="black" stroke="none" />

  <circle cx="3.352650900631025" cy="-0.07845599088604978" r="0.03482512923306958"
          fill="black" stroke="none" />

  <circle cx="3.333918163494574" cy="-0.06471071587385743" r="0.03482512923306958"
          fill="black" stroke="none" />

  <circle cx="3.3146488061373693" cy="-0.050303693109244305" r="0.03482512923306958"
          fill="black" stroke="none" />

  <circle cx="3.292476174316117" cy="-0.0364200730143614" r="0.03482512923306958"
          fill="black" stroke="none" />

  <circle cx="3.2679891239693593" cy="-0.0246312821396967" r="0.03482512923306958"
          fill="black" stroke="none" />

  <circle cx="3.2447480104660906" cy="-0.01580980306681626" r="0.03482512923306958"
          fill="black" stroke="none" />

  <circle cx="3.2273146032178395" cy="-0.009459601602675168" r="0.03482512923306958"
          fill="black" stroke="none" />

  <circle cx="3.2184089501557933" cy="-0.0038564941471157478" r="0.03482512923306958"
          fill="black" stroke="none" />

  <circle cx="3.2168712249326443" cy="0.0030884412032947525" r="0.03482512923306958"
          fill="black" stroke="none" />

  <circle cx="3.2176968628193547" cy="0.012750240009941405" r="0.03482512923306958"
          fill="black" stroke="none" />

  <circle cx="3.214251227379779" cy="0.025116665340094255" r="0.03482512923306958"
          fill="black" stroke="none" />

  <circle cx="3.2015191482192966" cy="0.03888471850442138" r="0.03482512923306958"
          fill="black" stroke="none" />

  <circle cx="3.1786274509097656" cy="0.05222885956264861" r="0.03482512923306958"
          fill="black" stroke="none" />

  <circle cx="3.1492571028191314" cy="0.0637555673316845" r="0.03482512923306958"
          fill="black" stroke="none" />

  <circle cx="3.1197248102209683" cy="0.07307891080866863" r="0.03482512923306958"
          fill="black" stroke="none" />

  <circle cx="3.095797543146876" cy="0.08071940715885675" r="0.03482512923306958"
          fill="black" stroke="none" />

  <circle cx="3.0799742822478167" cy="0.08747002207417079" r="0.03482512923306958"
          fill="black" stroke="none" />

  <circle cx="3.0706508066900313" cy="0.09370950879559663" r="0.03482512923306958"
          fill="black" stroke="none" />

  <circle cx="3.06347423384868" cy="0.09916261291185886" r="0.03482512923306958"
          fill="black" stroke="none" />

  <circle cx="3.0539501041863693" cy="0.10329656313625177" r="0.03482512923306958"
          fill="black" stroke="none" />

  <circle cx="3.0397126508015795" cy="0.106099943527132" r="0.03482512923306958"
          fill="black" stroke="none" />

  <circle cx="3.0211774364253214" cy="0.10869817579165122" r="0.03482512923306958"
          fill="black" stroke="none" />

  <circle cx="3.000358755270055" cy="0.11331541398807889" r="0.03482512923306958"
          fill="black" stroke="none" />

  <circle cx="2.978795134289819" cy="0.12247741659866411" r="0.03482512923306958"
          fill="black" stroke="none" />

  <circle cx="2.956071347452224" cy="0.13783612364531378" r="0.03482512923306958"
          fill="black" stroke="none" />

  <circle cx="2.9300159887811352" cy="0.15928189715746907" r="0.03482512923306958"
          fill="black" stroke="none" />

  <circle cx="2.898536692850251" cy="0.18490212536213246" r="0.03482512923306958"
          fill="black" stroke="none" />

  <circle cx="2.861921815472707" cy="0.2118873327269472" r="0.03482512923306958"
          fill="black" stroke="none" />

  <circle cx="2.824009111118923" cy="0.23793740588548012" r="0.03482512923306958"
          fill="black" stroke="none" />

  <circle cx="2.791206579680054" cy="0.26240744438076347" r="0.03482512923306958"
          fill="black" stroke="none" />

  <circle cx="2.769637991498975" cy="0.28655269213279644" r="0.03482512923306958"
          fill="black" stroke="none" />

  <circle cx="2.7619126802983054" cy="0.3127299253757303" r="0.03482512923306958"
          fill="black" stroke="none" />

  <circle cx="2.765418069633431" cy="0.34300595845434556" r="0.03482512923306958"
          fill="black" stroke="none" />

  <circle cx="2.7733005119164815" cy="0.37796542863924265" r="0.03482512923306958"
          fill="black" stroke="none" />

  <circle cx="2.7778043907117325" cy="0.4163940382386893" r="0.03482512923306958"
          fill="black" stroke="none" />

  <circle cx="2.774233544389228" cy="0.456001743394607" r="0.03482512923306958"
          fill="black" stroke="none" />

  <circle cx="2.763329664095199" cy="0.4947407009591126" r="0.03482512923306958"
          fill="black" stroke="none" />

  <circle cx="2.7506620466492104" cy="0.5319252862649126" r="0.03482512923306958"
          fill="black" stroke="none" />

  <circle cx="2.7432864012773583" cy="0.568484672311874" r="0.03482512923306958"
          fill="black" stroke="none" />

  <circle cx="2.7455197675500833" cy="0.6062021710469095" r="0.03482512923306958"
          fill="black" stroke="none" />

  <circle cx="2.75625636295207" cy="0.6464090381396441" r="0.03482512923306958"
          fill="black" stroke="none" />

  <circle cx="2.7694328091152256" cy="0.6889355259502006" r="0.03482512923306958"
          fill="black" stroke="none" />

  <circle cx="2.7774632695299344" cy="0.7319735766160528" r="0.03482512923306958"
          fill="black" stroke="none" />

  <circle cx="2.7757174555929067" cy="0.7729576964686089" r="0.03482512923306958"
          fill="black" stroke="none" />

  <circle cx="2.7654355709603466" cy="0.8099500091177374" r="0.03482512923306958"
          fill="black" stroke="none" />

  <circle cx="2.753303270920732" cy="0.8426980369195611" r="0.03482512923306958"
          fill="black" stroke="none" />

  <circle cx="2.7478146556261653" cy="0.8727174307806876" r="0.03482512923306958"
          fill="black" stroke="none" />

  <circle cx="2.7544498362538925" cy="0.9023336017599534" r="0.03482512923306958"
          fill="black" stroke="none" />

  <circle cx="2.772465954912305" cy="0.9332487795557147" r="0.03482512923306958"
          fill="black" stroke="none" />

  <circle cx="2.7952485488551417" cy="0.9654993823069877" r="0.03482512923306958"
          fill="black" stroke="none" />

  <circle cx="2.8141354155568363" cy="0.9974436155300896" r="0.03482512923306958"
          fill="black" stroke="none" />

  <circle cx="2.823565211861999" cy="1.0267974871843597" r="0.03482512923306958"
          fill="black" stroke="none" />

  <circle cx="2.8245362169538644" cy="1.0520913174993036" r="0.03482512923306958"
          fill="black" stroke="none" />

  <circle cx="2.8242485932614105" cy="1.07364490388705" r="0.03482512923306958"
          fill="black" stroke="none" />

  <circle cx="2.831991923018532" cy="1.0934362251012497" r="0.03482512923306958"
          fill="black" stroke="none" />

  <circle cx="2.8535848406698734" cy="1.1139106389340523" r="0.03482512923306958"
          fill="black" stroke="none" />

  <circle cx="2.8876436863667916" cy="1.1364412880235664" r="0.03482512923306958"
          fill="black" stroke="none" />

  <circle cx="2.9260175033095206" cy="1.160395251387069" r="0.03482512923306958"
          fill="black" stroke="none" />

  <circle cx="2.95834669116195" cy="1.1834175502932331" r="0.03482512923306958"
          fill="black" stroke="none" />

  <circle cx="2.9782287604012163" cy="1.2028068804421244" r="0.03482512923306958"
          fill="black" stroke="none" />

  <circle cx="2.98737484487484" cy="1.21716624887332" r="0.03482512923306958"
          fill="black" stroke="none" />

  <circle cx="2.9951407085110953" cy="1.2273011526171218" r="0.03482512923306958"
          fill="black" stroke="none" />

  <circle cx="3.0134325568711304" cy="1.2357613917443535" r="0.03482512923306958"
          fill="black" stroke="none" />

  <circle cx="3.0497525989248877" cy="1.24524714905916" r="0.03482512923306958"
          fill="black" stroke="none" />

  <circle cx="3.102425862465589" cy="1.2568313891060054" r="0.03482512923306958"
          fill="black" stroke="none" />

  <circle cx="3.160993590690798" cy="1.269126157068421" r="0.03482512923306958"
          fill="black" stroke="none" />

  <circle cx="3.211860002691381" cy="1.2789969700747332" r="0.03482512923306958"
          fill="black" stroke="none" />

  <circle cx="3.2461496250646267" cy="1.2834905561196872" r="0.03482512923306958"
          fill="black" stroke="none" />

  <circle cx="3.265217150573248" cy="1.281846302545024" r="0.03482512923306958"
          fill="black" stroke="none" />

  <circle cx="3.2803541177033426" cy="1.2763176580158158" r="0.03482512923306958"
          fill="black" stroke="none" />

  <circle cx="3.306473601737999" cy="1.2711736314716902" r="0.03482512923306958"
          fill="black" stroke="none" />

  <circle cx="3.3531470573915136" cy="1.2703406462026643" r="0.03482512923306958"
          fill="black" stroke="none" />

  <circle cx="3.4182065368224093" cy="1.2750378511147638" r="0.03482512923306958"
          fill="black" stroke="none" />

  <circle cx="3.487990039931656" cy="1.2828838049495863" r="0.03482512923306958"
          fill="black" stroke="none" />

  <circle cx="3.5446464120727055" cy="1.2891675097073303" r="0.03482512923306958"
          fill="black" stroke="none" />

  <circle cx="3.5767031072540103" cy="1.2896895886829642" r="0.03482512923306958"
          fill="black" stroke="none" />

  <circle cx="3.586789513774284" cy="1.2835411872839093" r="0.03482512923306958"
          fill="black" stroke="none" />

  <circle cx="3.591534087034998" cy="1.2740633386866558" r="0.03482512923306958"
          fill="black" stroke="none" />

  <circle cx="3.6128592547899787" cy="1.2671834260657227" r="0.03482512923306958"
          fill="black" stroke="none" />

  <circle cx="3.66499097183691" cy="1.2678796830230832" r="0.03482512923306958"
          fill="black" stroke="none" />

  <circle cx="3.7445680246219575" cy="1.276788220763259" r="0.03482512923306958"
          fill="black" stroke="none" />

  <circle cx="3.830269794054991" cy="1.2891340997289096" r="0.03482512923306958"
          fill="black" stroke="none" />

  <circle cx="3.8935084008806156" cy="1.2970095878915888" r="0.03482512923306958"
          fill="black" stroke="none" />

  <circle cx="3.9153392828520337" cy="1.294080459049841" r="0.03482512923306958"
          fill="black" stroke="none" />

  <circle cx="3.9003329505274995" cy="1.2801440110734492" r="0.03482512923306958"
          fill="black" stroke="none" />

  <circle cx="3.878465234191676" cy="1.2626132669283585" r="0.03482512923306958"
          fill="black" stroke="none" />

  <circle cx="3.8915137377799844" cy="1.2533376947489088" r="0.03482512923306958"
          fill="black" stroke="none" />

  <circle cx="3.9685982348597673" cy="1.261640503163356" r="0.03482512923306958"
          fill="black" stroke="none" />

  <circle cx="4.102249097354673" cy="1.2867973524329366" r="0.03482512923306958"
          fill="black" stroke="none" />

  <circle cx="4.237956323007163" cy="1.3140736821203183" r="0.03482512923306958"
          fill="black" stroke="none" />

</svg>
