
<svg xmlns="http://www.w3.org/2000/svg"
     viewBox="-2.2241056329558795 -182.8133567915807 45.53824495599099 192.53925517114106"
     width="800" height="600"
     preserveAspectRatio="xMidYMid meet">

  <circle cx="6.527678693005079" cy="-174.06157246561975" r="0.8751784325960958"
          fill="black" stroke="none" />

  <circle cx="7.063696901966743" cy="-170.70474875104617" r="0.8751784325960958"
          fill="black" stroke="none" />

  <circle cx="7.598205007979942" cy="-167.82895390646328" r="0.8751784325960958"
          fill="black" stroke="none" />

  <circle cx="8.17376997015985" cy="-166.9740480205022" r="0.8751784325960958"
          fill="black" stroke="none" />

  <circle cx="8.80367857651272" cy="-168.08656178803525" r="0.8751784325960958"
          fill="black" stroke="none" />

  <circle cx="9.472492843259596" cy="-170.04743963022847" r="0.8751784325960958"
          fill="black" stroke="none" />

  <circle cx="10.148309083597994" cy="-171.53268805781147" r="0.8751784325960958"
          fill="black" stroke="none" />

  <circle cx="10.799802143285163" cy="-171.75871920993902" r="0.8751784325960958"
          fill="black" stroke="none" />

  <circle cx="11.409965314845486" cy="-170.78916584477375" r="0.8751784325960958"
          fill="black" stroke="none" />

  <circle cx="11.981009835884624" cy="-169.3402403493177" r="0.8751784325960958"
          fill="black" stroke="none" />

  <circle cx="12.529634938564525" cy="-168.27572352996663" r="0.8751784325960958"
          fill="black" stroke="none" />

  <circle cx="13.07640142208011" cy="-168.10684127138447" r="0.8751784325960958"
          fill="black" stroke="none" />

  <circle cx="13.635149219615444" cy="-168.76093975914637" r="0.8751784325960958"
          fill="black" stroke="none" />

  <circle cx="14.207507374334153" cy="-169.70364849808487" r="0.8751784325960958"
          fill="black" stroke="none" />

  <circle cx="14.78434091966562" cy="-170.29969105174683" r="0.8751784325960958"
          fill="black" stroke="none" />

  <circle cx="15.352297876565107" cy="-170.18395007097922" r="0.8751784325960958"
          fill="black" stroke="none" />

  <circle cx="15.901338216899928" cy="-169.4367585735897" r="0.8751784325960958"
          fill="black" stroke="none" />

  <circle cx="16.429222162988008" cy="-168.48858918795943" r="0.8751784325960958"
          fill="black" stroke="none" />

  <circle cx="16.94107624118369" cy="-167.8369823290558" r="0.8751784325960958"
          fill="black" stroke="none" />

  <circle cx="17.444998125556992" cy="-167.7542474476782" r="0.8751784325960958"
          fill="black" stroke="none" />

  <circle cx="17.946641638897752" cy="-168.15185374554943" r="0.8751784325960958"
          fill="black" stroke="none" />

  <circle cx="18.445895518895508" cy="-168.66366323855655" r="0.8751784325960958"
          fill="black" stroke="none" />

  <circle cx="18.93724522333175" cy="-168.8810525929676" r="0.8751784325960958"
          fill="black" stroke="none" />

  <circle cx="19.413194275454124" cy="-168.592724194793" r="0.8751784325960958"
          fill="black" stroke="none" />

  <circle cx="19.868498058713982" cy="-167.89152795461092" r="0.8751784325960958"
          fill="black" stroke="none" />

  <circle cx="20.302757171896147" cy="-167.0973821567511" r="0.8751784325960958"
          fill="black" stroke="none" />

  <circle cx="20.72009702743172" cy="-166.55445594687973" r="0.8751784325960958"
          fill="black" stroke="none" />

  <circle cx="21.126428148389657" cy="-166.42867638629423" r="0.8751784325960958"
          fill="black" stroke="none" />

  <circle cx="21.526087753483875" cy="-166.62264082003722" r="0.8751784325960958"
          fill="black" stroke="none" />

  <circle cx="21.919816150434972" cy="-166.84949880722664" r="0.8751784325960958"
          fill="black" stroke="none" />

  <circle cx="22.305047445068464" cy="-166.8128571572455" r="0.8751784325960958"
          fill="black" stroke="none" />

  <circle cx="22.678060661870276" cy="-166.3816420758426" r="0.8751784325960958"
          fill="black" stroke="none" />

  <circle cx="23.036516093179202" cy="-165.65832891800298" r="0.8751784325960958"
          fill="black" stroke="none" />

  <circle cx="23.380846804324385" cy="-164.9066412125659" r="0.8751784325960958"
          fill="black" stroke="none" />

  <circle cx="23.713826027120508" cy="-164.38841796690912" r="0.8751784325960958"
          fill="black" stroke="none" />

  <circle cx="24.038796611628165" cy="-164.2096754080765" r="0.8751784325960958"
          fill="black" stroke="none" />

  <circle cx="24.357799631848938" cy="-164.26552536000844" r="0.8751784325960958"
          fill="black" stroke="none" />

  <circle cx="24.67075659264894" cy="-164.31157998776206" r="0.8751784325960958"
          fill="black" stroke="none" />

  <circle cx="24.976067060648308" cy="-164.11425730071923" r="0.8751784325960958"
          fill="black" stroke="none" />

  <circle cx="25.272035667508508" cy="-163.58833716849279" r="0.8751784325960958"
          fill="black" stroke="none" />

  <circle cx="25.55805486708819" cy="-162.8414756964648" r="0.8751784325960958"
          fill="black" stroke="none" />

  <circle cx="25.83472915759957" cy="-162.10319522297283" r="0.8751784325960958"
          fill="black" stroke="none" />

  <circle cx="26.102923274110896" cy="-161.58451564378493" r="0.8751784325960958"
          fill="black" stroke="none" />

  <circle cx="26.362498136998042" cy="-161.35338281858665" r="0.8751784325960958"
          fill="black" stroke="none" />

  <circle cx="26.611734967568204" cy="-161.29872387296862" r="0.8751784325960958"
          fill="black" stroke="none" />

  <circle cx="26.84797986160857" cy="-161.20138571765938" r="0.8751784325960958"
          fill="black" stroke="none" />

  <circle cx="27.069180440453906" cy="-160.8667895207575" r="0.8751784325960958"
          fill="black" stroke="none" />

  <circle cx="27.27531373902764" cy="-160.23927649944437" r="0.8751784325960958"
          fill="black" stroke="none" />

  <circle cx="27.468689104630332" cy="-159.43131569033488" r="0.8751784325960958"
          fill="black" stroke="none" />

  <circle cx="27.65279503492002" cy="-158.6527671218356" r="0.8751784325960958"
          fill="black" stroke="none" />

  <circle cx="27.830319963315787" cy="-158.08459586889217" r="0.8751784325960958"
          fill="black" stroke="none" />

  <circle cx="28.00158354205967" cy="-157.77290489317576" r="0.8751784325960958"
          fill="black" stroke="none" />

  <circle cx="28.164437242161615" cy="-157.60521684852034" r="0.8751784325960958"
          fill="black" stroke="none" />

  <circle cx="28.31579513509493" cy="-157.38097932685784" r="0.8751784325960958"
          fill="black" stroke="none" />

  <circle cx="28.453880970059863" cy="-156.93252681045112" r="0.8751784325960958"
          fill="black" stroke="none" />

  <circle cx="28.579722468333305" cy="-156.2240477506224" r="0.8751784325960958"
          fill="black" stroke="none" />

  <circle cx="28.696793697637627" cy="-155.37065194059682" r="0.8751784325960958"
          fill="black" stroke="none" />

  <circle cx="28.808833978204333" cy="-154.56787146434198" r="0.8751784325960958"
          fill="black" stroke="none" />

  <circle cx="28.91708531484996" cy="-153.97480333232357" r="0.8751784325960958"
          fill="black" stroke="none" />

  <circle cx="29.018710445664397" cy="-153.62050217362452" r="0.8751784325960958"
          fill="black" stroke="none" />

  <circle cx="29.107584789239784" cy="-153.38824255426172" r="0.8751784325960958"
          fill="black" stroke="none" />

  <circle cx="29.17726716410584" cy="-153.0855449943019" r="0.8751784325960958"
          fill="black" stroke="none" />

  <circle cx="29.224559047986737" cy="-152.55743622223585" r="0.8751784325960958"
          fill="black" stroke="none" />

  <circle cx="29.251543602558478" cy="-151.7759164813341" r="0.8751784325960958"
          fill="black" stroke="none" />

  <circle cx="29.264755740013698" cy="-150.85386811644332" r="0.8751784325960958"
          fill="black" stroke="none" />

  <circle cx="29.27180406738613" cy="-149.97692246147926" r="0.8751784325960958"
          fill="black" stroke="none" />

  <circle cx="29.27737525732863" cy="-149.29496744093336" r="0.8751784325960958"
          fill="black" stroke="none" />

  <circle cx="29.281089125898564" cy="-148.83772326744338" r="0.8751784325960958"
          fill="black" stroke="none" />

  <circle cx="29.27870940148101" cy="-148.50328120785582" r="0.8751784325960958"
          fill="black" stroke="none" />

  <circle cx="29.266217431239554" cy="-148.1245346982556" r="0.8751784325960958"
          fill="black" stroke="none" />

  <circle cx="29.244370678727794" cy="-147.57239905241926" r="0.8751784325960958"
          fill="black" stroke="none" />

  <circle cx="29.220772704218078" cy="-146.83374390039708" r="0.8751784325960958"
          fill="black" stroke="none" />

  <circle cx="29.207667895307885" cy="-146.01799731636328" r="0.8751784325960958"
          fill="black" stroke="none" />

  <circle cx="29.21609303708351" cy="-145.28940470797926" r="0.8751784325960958"
          fill="black" stroke="none" />

  <circle cx="29.24932666156196" cy="-144.76617274098203" r="0.8751784325960958"
          fill="black" stroke="none" />

  <circle cx="29.29938432584069" cy="-144.44705701654016" r="0.8751784325960958"
          fill="black" stroke="none" />

  <circle cx="29.34899853389941" cy="-144.2092270830442" r="0.8751784325960958"
          fill="black" stroke="none" />

  <circle cx="29.378679015496505" cy="-143.87870291486183" r="0.8751784325960958"
          fill="black" stroke="none" />

  <circle cx="29.375594277987936" cy="-143.33164796882488" r="0.8751784325960958"
          fill="black" stroke="none" />

  <circle cx="29.339780844415053" cy="-142.56670413737754" r="0.8751784325960958"
          fill="black" stroke="none" />

  <circle cx="29.28437227158921" cy="-141.70584815139648" r="0.8751784325960958"
          fill="black" stroke="none" />

  <circle cx="29.229603949399536" cy="-140.9235012534541" r="0.8751784325960958"
          fill="black" stroke="none" />

  <circle cx="29.193652339912937" cy="-140.3457952886378" r="0.8751784325960958"
          fill="black" stroke="none" />

  <circle cx="29.185064775106632" cy="-139.97918107969227" r="0.8751784325960958"
          fill="black" stroke="none" />

  <circle cx="29.20063143825044" cy="-139.7099533539472" r="0.8751784325960958"
          fill="black" stroke="none" />

  <circle cx="29.2295002489748" cy="-139.3743226898015" r="0.8751784325960958"
          fill="black" stroke="none" />

  <circle cx="29.260833789308744" cy="-138.85717501143603" r="0.8751784325960958"
          fill="black" stroke="none" />

  <circle cx="29.290352584034686" cy="-138.16099524135598" r="0.8751784325960958"
          fill="black" stroke="none" />

  <circle cx="29.321853556685056" cy="-137.40425965359435" r="0.8751784325960958"
          fill="black" stroke="none" />

  <circle cx="29.362849240599665" cy="-136.75030098691974" r="0.8751784325960958"
          fill="black" stroke="none" />

  <circle cx="29.417093816519277" cy="-136.30865236573885" r="0.8751784325960958"
          fill="black" stroke="none" />

  <circle cx="29.478814859937764" cy="-136.06712716672826" r="0.8751784325960958"
          fill="black" stroke="none" />

  <circle cx="29.53267664496534" cy="-135.89493263889023" r="0.8751784325960958"
          fill="black" stroke="none" />

  <circle cx="29.560217797918906" cy="-135.6155435465592" r="0.8751784325960958"
          fill="black" stroke="none" />

  <circle cx="29.549575301610894" cy="-135.10724518776567" r="0.8751784325960958"
          fill="black" stroke="none" />

  <circle cx="29.50303341041092" cy="-134.37303133242506" r="0.8751784325960958"
          fill="black" stroke="none" />

  <circle cx="29.437753998327143" cy="-133.53931114654216" r="0.8751784325960958"
          fill="black" stroke="none" />

  <circle cx="29.37864079267696" cy="-132.78418802248834" r="0.8751784325960958"
          fill="black" stroke="none" />

  <circle cx="29.34671250243479" cy="-132.23680953060608" r="0.8751784325960958"
          fill="black" stroke="none" />

  <circle cx="29.34908826118944" cy="-131.90579045386482" r="0.8751784325960958"
          fill="black" stroke="none" />

  <circle cx="29.376073648117163" cy="-131.67753546033728" r="0.8751784325960958"
          fill="black" stroke="none" />

  <circle cx="29.407087930350322" cy="-131.3846107685338" r="0.8751784325960958"
          fill="black" stroke="none" />

  <circle cx="29.42231226312986" cy="-130.9038879995464" r="0.8751784325960958"
          fill="black" stroke="none" />

  <circle cx="29.41369217223987" cy="-130.227440044552" r="0.8751784325960958"
          fill="black" stroke="none" />

  <circle cx="29.38918715552739" cy="-129.46560795031178" r="0.8751784325960958"
          fill="black" stroke="none" />

  <circle cx="29.367869109030963" cy="-128.78143656191503" r="0.8751784325960958"
          fill="black" stroke="none" />

  <circle cx="29.368601797866653" cy="-128.2954840592098" r="0.8751784325960958"
          fill="black" stroke="none" />

  <circle cx="29.398697404711505" cy="-128.01672627956026" r="0.8751784325960958"
          fill="black" stroke="none" />

  <circle cx="29.449029518662215" cy="-127.83941083599035" r="0.8751784325960958"
          fill="black" stroke="none" />

  <circle cx="29.498476310059065" cy="-127.60681481227229" r="0.8751784325960958"
          fill="black" stroke="none" />

  <circle cx="29.525275852382286" cy="-127.20379494090616" r="0.8751784325960958"
          fill="black" stroke="none" />

  <circle cx="29.518903799769422" cy="-126.62356658511356" r="0.8751784325960958"
          fill="black" stroke="none" />

  <circle cx="29.4857306099089" cy="-125.96972337663404" r="0.8751784325960958"
          fill="black" stroke="none" />

  <circle cx="29.445233119396836" cy="-125.39278006930735" r="0.8751784325960958"
          fill="black" stroke="none" />

  <circle cx="29.418944275332443" cy="-124.9989741000741" r="0.8751784325960958"
          fill="black" stroke="none" />

  <circle cx="29.418518455391798" cy="-124.78521388669589" r="0.8751784325960958"
          fill="black" stroke="none" />

  <circle cx="29.439814911400653" cy="-124.63857294686855" r="0.8751784325960958"
          fill="black" stroke="none" />

  <circle cx="29.466398823230257" cy="-124.40077743289564" r="0.8751784325960958"
          fill="black" stroke="none" />

  <circle cx="29.480315719633943" cy="-123.95997859346326" r="0.8751784325960958"
          fill="black" stroke="none" />

  <circle cx="29.473636002450498" cy="-123.31604426680362" r="0.8751784325960958"
          fill="black" stroke="none" />

  <circle cx="29.453695727223337" cy="-122.58099260319449" r="0.8751784325960958"
          fill="black" stroke="none" />

  <circle cx="29.43861516690931" cy="-121.91401630378188" r="0.8751784325960958"
          fill="black" stroke="none" />

  <circle cx="29.445510480802767" cy="-121.42874017563145" r="0.8751784325960958"
          fill="black" stroke="none" />

  <circle cx="29.478421689468767" cy="-121.12667255947267" r="0.8751784325960958"
          fill="black" stroke="none" />

  <circle cx="29.523560184712004" cy="-120.89576104176405" r="0.8751784325960958"
          fill="black" stroke="none" />

  <circle cx="29.55550269522958" cy="-120.5752888311213" r="0.8751784325960958"
          fill="black" stroke="none" />

  <circle cx="29.55156824943134" cy="-120.04990628754774" r="0.8751784325960958"
          fill="black" stroke="none" />

  <circle cx="29.506472140236266" cy="-119.31864216740004" r="0.8751784325960958"
          fill="black" stroke="none" />

  <circle cx="29.438555907274583" cy="-118.49905231185406" r="0.8751784325960958"
          fill="black" stroke="none" />

  <circle cx="29.383148776392403" cy="-117.7639142993691" r="0.8751784325960958"
          fill="black" stroke="none" />

  <circle cx="29.375720458404412" cy="-117.24652920568494" r="0.8751784325960958"
          fill="black" stroke="none" />

  <circle cx="29.433481501523296" cy="-116.96849740111679" r="0.8751784325960958"
          fill="black" stroke="none" />

  <circle cx="29.545478238280403" cy="-116.83067255826438" r="0.8751784325960958"
          fill="black" stroke="none" />

  <circle cx="29.677006691299688" cy="-116.67163324110112" r="0.8751784325960958"
          fill="black" stroke="none" />

  <circle cx="29.7864890134546" cy="-116.35950164230226" r="0.8751784325960958"
          fill="black" stroke="none" />

  <circle cx="29.846021993574883" cy="-115.86440279691455" r="0.8751784325960958"
          fill="black" stroke="none" />

  <circle cx="29.854551882545714" cy="-115.2707294744139" r="0.8751784325960958"
          fill="black" stroke="none" />

  <circle cx="29.83647099827357" cy="-114.72350411940089" r="0.8751784325960958"
          fill="black" stroke="none" />

  <circle cx="29.826391905851374" cy="-114.3410528272921" r="0.8751784325960958"
          fill="black" stroke="none" />

  <circle cx="29.84858130205194" cy="-114.145081082013" r="0.8751784325960958"
          fill="black" stroke="none" />

  <circle cx="29.902690451536053" cy="-114.04843118810862" r="0.8751784325960958"
          fill="black" stroke="none" />

  <circle cx="29.964122908110078" cy="-113.90689394485844" r="0.8751784325960958"
          fill="black" stroke="none" />

  <circle cx="29.999326421653087" cy="-113.60427100547412" r="0.8751784325960958"
          fill="black" stroke="none" />

  <circle cx="29.98787702641471" cy="-113.12093270737253" r="0.8751784325960958"
          fill="black" stroke="none" />

  <circle cx="29.939124477450058" cy="-112.54612920814742" r="0.8751784325960958"
          fill="black" stroke="none" />

  <circle cx="29.893753177732858" cy="-112.02719601146266" r="0.8751784325960958"
          fill="black" stroke="none" />

  <circle cx="29.90856923142083" cy="-111.68531775159401" r="0.8751784325960958"
          fill="black" stroke="none" />

  <circle cx="30.03184713463356" cy="-111.54655158718552" r="0.8751784325960958"
          fill="black" stroke="none" />

  <circle cx="30.281723183941228" cy="-111.5275602463326" r="0.8751784325960958"
          fill="black" stroke="none" />

  <circle cx="30.638574785231185" cy="-111.48360782351284" r="0.8751784325960958"
          fill="black" stroke="none" />

  <circle cx="31.054924242191866" cy="-111.29048138685879" r="0.8751784325960958"
          fill="black" stroke="none" />

  <circle cx="31.477213276693806" cy="-110.91286799524737" r="0.8751784325960958"
          fill="black" stroke="none" />

  <circle cx="31.867825086860528" cy="-110.42018272890903" r="0.8751784325960958"
          fill="black" stroke="none" />

  <circle cx="32.21616773707117" cy="-109.9416947171461" r="0.8751784325960958"
          fill="black" stroke="none" />

  <circle cx="32.534080029584246" cy="-109.58795618448464" r="0.8751784325960958"
          fill="black" stroke="none" />

  <circle cx="32.83956905924119" cy="-109.38464871977524" r="0.8751784325960958"
          fill="black" stroke="none" />

  <circle cx="33.13903494219405" cy="-109.25717331683937" r="0.8751784325960958"
          fill="black" stroke="none" />

  <circle cx="33.418354955831546" cy="-109.07444423814206" r="0.8751784325960958"
          fill="black" stroke="none" />

  <circle cx="33.64757730133911" cy="-108.72592219684712" r="0.8751784325960958"
          fill="black" stroke="none" />

  <circle cx="33.795904868685355" cy="-108.18689338130898" r="0.8751784325960958"
          fill="black" stroke="none" />

  <circle cx="33.84782686760127" cy="-107.53419528319827" r="0.8751784325960958"
          fill="black" stroke="none" />

  <circle cx="33.810964341817325" cy="-106.90355809315724" r="0.8751784325960958"
          fill="black" stroke="none" />

  <circle cx="33.71143613485262" cy="-106.41349255972992" r="0.8751784325960958"
          fill="black" stroke="none" />

  <circle cx="33.58009448388536" cy="-106.09966200829669" r="0.8751784325960958"
          fill="black" stroke="none" />

  <circle cx="33.438292207694005" cy="-105.89713459209125" r="0.8751784325960958"
          fill="black" stroke="none" />

  <circle cx="33.291774817245425" cy="-105.67991613199914" r="0.8751784325960958"
          fill="black" stroke="none" />

  <circle cx="33.13593370405633" cy="-105.3341463799139" r="0.8751784325960958"
          fill="black" stroke="none" />

  <circle cx="32.96829753353792" cy="-104.82242011999837" r="0.8751784325960958"
          fill="black" stroke="none" />

  <circle cx="32.79931039745486" cy="-104.20258602984133" r="0.8751784325960958"
          fill="black" stroke="none" />

  <circle cx="32.65321189582602" cy="-103.5913075658249" r="0.8751784325960958"
          fill="black" stroke="none" />

  <circle cx="32.5569121192989" cy="-103.09475141311489" r="0.8751784325960958"
          fill="black" stroke="none" />

  <circle cx="32.522593153342136" cy="-102.7473527558018" r="0.8751784325960958"
          fill="black" stroke="none" />

  <circle cx="32.53459142689122" cy="-102.49412797966741" r="0.8751784325960958"
          fill="black" stroke="none" />

  <circle cx="32.54975418912555" cy="-102.2260038756824" r="0.8751784325960958"
          fill="black" stroke="none" />

  <circle cx="32.51333117650816" cy="-101.846519282723" r="0.8751784325960958"
          fill="black" stroke="none" />

  <circle cx="32.383464534698035" cy="-101.3302164017692" r="0.8751784325960958"
          fill="black" stroke="none" />

  <circle cx="32.15171122507366" cy="-100.73842968758797" r="0.8751784325960958"
          fill="black" stroke="none" />

  <circle cx="31.848300308646785" cy="-100.18358481248794" r="0.8751784325960958"
          fill="black" stroke="none" />

  <circle cx="31.528656494919247" cy="-99.76348277217566" r="0.8751784325960958"
          fill="black" stroke="none" />

  <circle cx="31.247929964895278" cy="-99.50455143062752" r="0.8751784325960958"
          fill="black" stroke="none" />

  <circle cx="31.03709934235981" cy="-99.34753777292056" r="0.8751784325960958"
          fill="black" stroke="none" />

  <circle cx="30.89359440242595" cy="-99.18395027307452" r="0.8751784325960958"
          fill="black" stroke="none" />

  <circle cx="30.79137208973352" cy="-98.92157777272669" r="0.8751784325960958"
          fill="black" stroke="none" />

  <circle cx="30.70428559242326" cy="-98.54020182119265" r="0.8751784325960958"
          fill="black" stroke="none" />

  <circle cx="30.628670008479236" cy="-98.10426028553447" r="0.8751784325960958"
          fill="black" stroke="none" />

  <circle cx="30.59101669272055" cy="-97.72442410780826" r="0.8751784325960958"
          fill="black" stroke="none" />

  <circle cx="30.634789014920386" cy="-97.49011536712291" r="0.8751784325960958"
          fill="black" stroke="none" />

  <circle cx="30.792512939407708" cy="-97.41238358845837" r="0.8751784325960958"
          fill="black" stroke="none" />

  <circle cx="31.058511792655388" cy="-97.41108412700527" r="0.8751784325960958"
          fill="black" stroke="none" />

  <circle cx="31.37862842203201" cy="-97.35503647090233" r="0.8751784325960958"
          fill="black" stroke="none" />

  <circle cx="31.66501747485081" cy="-97.13331223962834" r="0.8751784325960958"
          fill="black" stroke="none" />

  <circle cx="31.830780698280705" cy="-96.71759578735546" r="0.8751784325960958"
          fill="black" stroke="none" />

  <circle cx="31.828033614294043" cy="-96.18017098297406" r="0.8751784325960958"
          fill="black" stroke="none" />

  <circle cx="31.670187720197116" cy="-95.65690980937566" r="0.8751784325960958"
          fill="black" stroke="none" />

  <circle cx="31.426639211314004" cy="-95.27550923136899" r="0.8751784325960958"
          fill="black" stroke="none" />

  <circle cx="31.191949385385666" cy="-95.08859036580922" r="0.8751784325960958"
          fill="black" stroke="none" />

  <circle cx="31.044633556386035" cy="-95.0482467164511" r="0.8751784325960958"
          fill="black" stroke="none" />

  <circle cx="31.015843442206645" cy="-95.03512897762207" r="0.8751784325960958"
          fill="black" stroke="none" />

  <circle cx="31.082728879816877" cy="-94.92469249388755" r="0.8751784325960958"
          fill="black" stroke="none" />

  <circle cx="31.18807534898773" cy="-94.65308029995693" r="0.8751784325960958"
          fill="black" stroke="none" />

  <circle cx="31.274100322917253" cy="-94.24642997838643" r="0.8751784325960958"
          fill="black" stroke="none" />

  <circle cx="31.311488006384927" cy="-93.79897930289144" r="0.8751784325960958"
          fill="black" stroke="none" />

  <circle cx="31.30845199964365" cy="-93.41454352581795" r="0.8751784325960958"
          fill="black" stroke="none" />

  <circle cx="31.296611554712253" cy="-93.1460378030669" r="0.8751784325960958"
          fill="black" stroke="none" />

  <circle cx="31.30392149204291" cy="-92.96755775802953" r="0.8751784325960958"
          fill="black" stroke="none" />

  <circle cx="31.33218340622659" cy="-92.79373947581774" r="0.8751784325960958"
          fill="black" stroke="none" />

  <circle cx="31.353641419730458" cy="-92.53351119186473" r="0.8751784325960958"
          fill="black" stroke="none" />

  <circle cx="31.32952862019767" cy="-92.14592548862134" r="0.8751784325960958"
          fill="black" stroke="none" />

  <circle cx="31.23982906655652" cy="-91.66546033508345" r="0.8751784325960958"
          fill="black" stroke="none" />

  <circle cx="31.105857480391233" cy="-91.18270651234556" r="0.8751784325960958"
          fill="black" stroke="none" />

  <circle cx="30.990224964964952" cy="-90.79259829017228" r="0.8751784325960958"
          fill="black" stroke="none" />

  <circle cx="30.971087112195967" cy="-90.54096658355682" r="0.8751784325960958"
          fill="black" stroke="none" />

  <circle cx="31.102581821890467" cy="-90.40057760263574" r="0.8751784325960958"
          fill="black" stroke="none" />

  <circle cx="31.38256918931002" cy="-90.29008618870338" r="0.8751784325960958"
          fill="black" stroke="none" />

  <circle cx="31.746602705044943" cy="-90.1240818671981" r="0.8751784325960958"
          fill="black" stroke="none" />

  <circle cx="32.0940489715165" cy="-89.86441406222627" r="0.8751784325960958"
          fill="black" stroke="none" />

  <circle cx="32.335056312328035" cy="-89.5425965740678" r="0.8751784325960958"
          fill="black" stroke="none" />

  <circle cx="32.43491110919163" cy="-89.24031091401454" r="0.8751784325960958"
          fill="black" stroke="none" />

  <circle cx="32.43212771715477" cy="-89.03965509252336" r="0.8751784325960958"
          fill="black" stroke="none" />

  <circle cx="32.4191073858582" cy="-88.97245002330251" r="0.8751784325960958"
          fill="black" stroke="none" />

  <circle cx="32.493286700350424" cy="-88.99842959579412" r="0.8751784325960958"
          fill="black" stroke="none" />

  <circle cx="32.702535585696054" cy="-89.02532071234512" r="0.8751784325960958"
          fill="black" stroke="none" />

  <circle cx="33.01269789216859" cy="-88.95948585759301" r="0.8751784325960958"
          fill="black" stroke="none" />

  <circle cx="33.31502948551751" cy="-88.7580197289551" r="0.8751784325960958"
          fill="black" stroke="none" />

  <circle cx="33.471699547203436" cy="-88.4521595300981" r="0.8751784325960958"
          fill="black" stroke="none" />

  <circle cx="33.37831463271118" cy="-88.12811710902616" r="0.8751784325960958"
          fill="black" stroke="none" />

  <circle cx="33.01342360666425" cy="-87.87564204602467" r="0.8751784325960958"
          fill="black" stroke="none" />

  <circle cx="32.45089706661712" cy="-87.73301655855673" r="0.8751784325960958"
          fill="black" stroke="none" />

  <circle cx="31.82910634266485" cy="-87.65943107957656" r="0.8751784325960958"
          fill="black" stroke="none" />

  <circle cx="31.291946888593635" cy="-87.55066909785792" r="0.8751784325960958"
          fill="black" stroke="none" />

  <circle cx="30.93035873584991" cy="-87.29029714028906" r="0.8751784325960958"
          fill="black" stroke="none" />

  <circle cx="30.752286973311033" cy="-86.8093560803342" r="0.8751784325960958"
          fill="black" stroke="none" />

  <circle cx="30.694426004725216" cy="-86.12331672669205" r="0.8751784325960958"
          fill="black" stroke="none" />

  <circle cx="30.668015566773292" cy="-85.32769670353856" r="0.8751784325960958"
          fill="black" stroke="none" />

  <circle cx="30.61402259272451" cy="-84.55582720731712" r="0.8751784325960958"
          fill="black" stroke="none" />

  <circle cx="30.538713170569892" cy="-83.92152439006193" r="0.8751784325960958"
          fill="black" stroke="none" />

  <circle cx="30.510975196900855" cy="-83.47567977435324" r="0.8751784325960958"
          fill="black" stroke="none" />

  <circle cx="30.622514513905756" cy="-83.19646100372805" r="0.8751784325960958"
          fill="black" stroke="none" />

  <circle cx="30.93127345822874" cy="-83.01394857160612" r="0.8751784325960958"
          fill="black" stroke="none" />

  <circle cx="31.41748865851234" cy="-82.85244736097543" r="0.8751784325960958"
          fill="black" stroke="none" />

  <circle cx="31.976168667136402" cy="-82.66672481865588" r="0.8751784325960958"
          fill="black" stroke="none" />

  <circle cx="32.45215560575494" cy="-82.454803002229" r="0.8751784325960958"
          fill="black" stroke="none" />

  <circle cx="32.70293724686195" cy="-82.24482836526533" r="0.8751784325960958"
          fill="black" stroke="none" />

  <circle cx="32.660236129122865" cy="-82.06783568959358" r="0.8751784325960958"
          fill="black" stroke="none" />

  <circle cx="32.361033169590286" cy="-81.93401948162463" r="0.8751784325960958"
          fill="black" stroke="none" />

  <circle cx="31.93237503783314" cy="-81.82517353772025" r="0.8751784325960958"
          fill="black" stroke="none" />

  <circle cx="31.53564966711626" cy="-81.70445171491407" r="0.8751784325960958"
          fill="black" stroke="none" />

  <circle cx="31.294964912578536" cy="-81.53415784425951" r="0.8751784325960958"
          fill="black" stroke="none" />

  <circle cx="31.241946465575424" cy="-81.28909646962367" r="0.8751784325960958"
          fill="black" stroke="none" />

  <circle cx="31.302087506911224" cy="-80.95825112574828" r="0.8751784325960958"
          fill="black" stroke="none" />

  <circle cx="31.329052578824086" cy="-80.53694603184275" r="0.8751784325960958"
          fill="black" stroke="none" />

  <circle cx="31.1716926495131" cy="-80.0185515045044" r="0.8751784325960958"
          fill="black" stroke="none" />

  <circle cx="30.743882517234134" cy="-79.3945611849958" r="0.8751784325960958"
          fill="black" stroke="none" />

  <circle cx="30.066277712991095" cy="-78.66479431452255" r="0.8751784325960958"
          fill="black" stroke="none" />

  <circle cx="29.262043208788235" cy="-77.85053257885778" r="0.8751784325960958"
          fill="black" stroke="none" />

  <circle cx="28.509469881433553" cy="-76.99897006382929" r="0.8751784325960958"
          fill="black" stroke="none" />

  <circle cx="27.973533386038998" cy="-76.1710320515606" r="0.8751784325960958"
          fill="black" stroke="none" />

  <circle cx="27.747107024154445" cy="-75.414743432466" r="0.8751784325960958"
          fill="black" stroke="none" />

  <circle cx="27.826875451045048" cy="-74.73681560886205" r="0.8751784325960958"
          fill="black" stroke="none" />

  <circle cx="28.131866712284022" cy="-74.08913306879913" r="0.8751784325960958"
          fill="black" stroke="none" />

  <circle cx="28.55216268328543" cy="-73.38105085384245" r="0.8751784325960958"
          fill="black" stroke="none" />

  <circle cx="29.001531459199256" cy="-72.51535432834257" r="0.8751784325960958"
          fill="black" stroke="none" />

  <circle cx="29.447118778810065" cy="-71.43247471899927" r="0.8751784325960958"
          fill="black" stroke="none" />

  <circle cx="29.90224829841212" cy="-70.14175726121391" r="0.8751784325960958"
          fill="black" stroke="none" />

  <circle cx="30.388461959092304" cy="-68.72396101206189" r="0.8751784325960958"
          fill="black" stroke="none" />

  <circle cx="30.89008755070752" cy="-67.30319818613424" r="0.8751784325960958"
          fill="black" stroke="none" />

  <circle cx="31.32987729228151" cy="-66.00171489158782" r="0.8751784325960958"
          fill="black" stroke="none" />

  <circle cx="31.584306552650432" cy="-64.89904093178221" r="0.8751784325960958"
          fill="black" stroke="none" />

  <circle cx="31.536273438883423" cy="-64.01377798396838" r="0.8751784325960958"
          fill="black" stroke="none" />

  <circle cx="31.141412028676807" cy="-63.31368522300873" r="0.8751784325960958"
          fill="black" stroke="none" />

  <circle cx="30.473321371226753" cy="-62.74492507322272" r="0.8751784325960958"
          fill="black" stroke="none" />

  <circle cx="29.71940381911817" cy="-62.26251052280895" r="0.8751784325960958"
          fill="black" stroke="none" />

  <circle cx="29.121001099981047" cy="-61.84566364571797" r="0.8751784325960958"
          fill="black" stroke="none" />

  <circle cx="28.879237100461772" cy="-61.492362800940285" r="0.8751784325960958"
          fill="black" stroke="none" />

  <circle cx="29.067750648278228" cy="-61.2002431190712" r="0.8751784325960958"
          fill="black" stroke="none" />

  <circle cx="29.594528560944426" cy="-60.9486201359651" r="0.8751784325960958"
          fill="black" stroke="none" />

  <circle cx="30.235132031652373" cy="-60.69456164973667" r="0.8751784325960958"
          fill="black" stroke="none" />

  <circle cx="30.726962473121993" cy="-60.3862263762051" r="0.8751784325960958"
          fill="black" stroke="none" />

  <circle cx="30.884114954295914" cy="-59.98533870232498" r="0.8751784325960958"
          fill="black" stroke="none" />

  <circle cx="30.679970413315537" cy="-59.48468706525257" r="0.8751784325960958"
          fill="black" stroke="none" />

  <circle cx="30.257348697314434" cy="-58.9094953480663" r="0.8751784325960958"
          fill="black" stroke="none" />

  <circle cx="29.859106307291245" cy="-58.30147321907788" r="0.8751784325960958"
          fill="black" stroke="none" />

  <circle cx="29.710346315427707" cy="-57.69508921153049" r="0.8751784325960958"
          fill="black" stroke="none" />

  <circle cx="29.90821926129268" cy="-57.100469096066576" r="0.8751784325960958"
          fill="black" stroke="none" />

  <circle cx="30.37360728039251" cy="-56.50325342219556" r="0.8751784325960958"
          fill="black" stroke="none" />

  <circle cx="30.89032394037517" cy="-55.8811750414218" r="0.8751784325960958"
          fill="black" stroke="none" />

  <circle cx="31.214835495362227" cy="-55.22648218267341" r="0.8751784325960958"
          fill="black" stroke="none" />

  <circle cx="31.20356702759441" cy="-54.559209124249605" r="0.8751784325960958"
          fill="black" stroke="none" />

  <circle cx="30.893884905261437" cy="-53.9214010673477" r="0.8751784325960958"
          fill="black" stroke="none" />

  <circle cx="30.495444470823774" cy="-53.353894931176455" r="0.8751784325960958"
          fill="black" stroke="none" />

  <circle cx="30.291807991726998" cy="-52.86837527095156" r="0.8751784325960958"
          fill="black" stroke="none" />

  <circle cx="30.497384378001122" cy="-52.431456056182185" r="0.8751784325960958"
          fill="black" stroke="none" />

  <circle cx="31.139297231252094" cy="-51.97182951866961" r="0.8751784325960958"
          fill="black" stroke="none" />

  <circle cx="32.02463643672" cy="-51.40909581860832" r="0.8751784325960958"
          fill="black" stroke="none" />

  <circle cx="32.81392732316861" cy="-50.690729983118004" r="0.8751784325960958"
          fill="black" stroke="none" />

  <circle cx="33.17012632556796" cy="-49.81866179876551" r="0.8751784325960958"
          fill="black" stroke="none" />

  <circle cx="32.91416177689088" cy="-48.85196639680101" r="0.8751784325960958"
          fill="black" stroke="none" />

  <circle cx="32.112358259519375" cy="-47.88433089585593" r="0.8751784325960958"
          fill="black" stroke="none" />

  <circle cx="31.051802501724573" cy="-47.007449923377266" r="0.8751784325960958"
          fill="black" stroke="none" />

  <circle cx="30.112723045225366" cy="-46.27751171281648" r="0.8751784325960958"
          fill="black" stroke="none" />

  <circle cx="29.596816045498997" cy="-45.69859823498874" r="0.8751784325960958"
          fill="black" stroke="none" />

  <circle cx="29.592700567141968" cy="-45.226713412237814" r="0.8751784325960958"
          fill="black" stroke="none" />

  <circle cx="29.942954222125024" cy="-44.78756608397945" r="0.8751784325960958"
          fill="black" stroke="none" />

  <circle cx="30.328988842387282" cy="-44.29629549254698" r="0.8751784325960958"
          fill="black" stroke="none" />

  <circle cx="30.433372680268924" cy="-43.67031929624036" r="0.8751784325960958"
          fill="black" stroke="none" />

  <circle cx="30.101475120745036" cy="-42.83459574424229" r="0.8751784325960958"
          fill="black" stroke="none" />

  <circle cx="29.423940810279127" cy="-41.725832130864774" r="0.8751784325960958"
          fill="black" stroke="none" />

  <circle cx="28.698951711396333" cy="-40.303265486904664" r="0.8751784325960958"
          fill="black" stroke="none" />

  <circle cx="28.290699852730743" cy="-38.567495491976956" r="0.8751784325960958"
          fill="black" stroke="none" />

  <circle cx="28.450490568398905" cy="-36.579422805686434" r="0.8751784325960958"
          fill="black" stroke="none" />

  <circle cx="29.185530556408576" cy="-34.46530999847507" r="0.8751784325960958"
          fill="black" stroke="none" />

  <circle cx="30.238862659955075" cy="-32.396521301434014" r="0.8751784325960958"
          fill="black" stroke="none" />

  <circle cx="31.19237169073584" cy="-30.54378416680974" r="0.8751784325960958"
          fill="black" stroke="none" />

  <circle cx="31.64763354149221" cy="-29.02037942892334" r="0.8751784325960958"
          fill="black" stroke="none" />

  <circle cx="31.403289768073897" cy="-27.838203523609266" r="0.8751784325960958"
          fill="black" stroke="none" />

  <circle cx="30.549046833884816" cy="-26.89876654249538" r="0.8751784325960958"
          fill="black" stroke="none" />

  <circle cx="29.434086662450753" cy="-26.027378335458963" r="0.8751784325960958"
          fill="black" stroke="none" />

  <circle cx="28.523762438822875" cy="-25.039180773948917" r="0.8751784325960958"
          fill="black" stroke="none" />

  <circle cx="28.20719734438176" cy="-23.810126740745595" r="0.8751784325960958"
          fill="black" stroke="none" />

  <circle cx="28.63826117926697" cy="-22.322746726832094" r="0.8751784325960958"
          fill="black" stroke="none" />

  <circle cx="29.6756490964259" cy="-20.66771083148312" r="0.8751784325960958"
          fill="black" stroke="none" />

  <circle cx="30.943364822108105" cy="-19.002450536976518" r="0.8751784325960958"
          fill="black" stroke="none" />

  <circle cx="31.981529888908312" cy="-17.487366676125752" r="0.8751784325960958"
          fill="black" stroke="none" />

  <circle cx="32.42167911975765" cy="-16.228904043451386" r="0.8751784325960958"
          fill="black" stroke="none" />

  <circle cx="32.11490268901828" cy="-15.253081741529144" r="0.8751784325960958"
          fill="black" stroke="none" />

  <circle cx="31.165739379623673" cy="-14.516524601277851" r="0.8751784325960958"
          fill="black" stroke="none" />

  <circle cx="29.866926386477093" cy="-13.943640848870618" r="0.8751784325960958"
          fill="black" stroke="none" />

  <circle cx="28.570766548892223" cy="-13.467764992480895" r="0.8751784325960958"
          fill="black" stroke="none" />

  <circle cx="27.555092830382875" cy="-13.055676593701818" r="0.8751784325960958"
          fill="black" stroke="none" />

  <circle cx="26.938016691374138" cy="-12.706850930896668" r="0.8751784325960958"
          fill="black" stroke="none" />

  <circle cx="26.669901816717335" cy="-12.43367678125911" r="0.8751784325960958"
          fill="black" stroke="none" />

  <circle cx="26.596129818103726" cy="-12.238321339127396" r="0.8751784325960958"
          fill="black" stroke="none" />

  <circle cx="26.555539828328474" cy="-12.101297936096476" r="0.8751784325960958"
          fill="black" stroke="none" />

  <circle cx="26.468130064900347" cy="-11.987519817432165" r="0.8751784325960958"
          fill="black" stroke="none" />

  <circle cx="26.374626876617853" cy="-11.863945812459354" r="0.8751784325960958"
          fill="black" stroke="none" />

  <circle cx="26.41420350635885" cy="-11.715991250489484" r="0.8751784325960958"
          fill="black" stroke="none" />

  <circle cx="26.753950168265543" cy="-11.55152443425321" r="0.8751784325960958"
          fill="black" stroke="none" />

  <circle cx="27.503252830501758" cy="-11.389942082055754" r="0.8751784325960958"
          fill="black" stroke="none" />

  <circle cx="28.65078954605721" cy="-11.243770318350244" r="0.8751784325960958"
          fill="black" stroke="none" />

  <circle cx="30.05074761372431" cy="-11.105166664031874" r="0.8751784325960958"
          fill="black" stroke="none" />

  <circle cx="31.463666173653245" cy="-10.946582400190648" r="0.8751784325960958"
          fill="black" stroke="none" />

  <circle cx="32.635096384105736" cy="-10.735707357727646" r="0.8751784325960958"
          fill="black" stroke="none" />

  <circle cx="33.38086015600246" cy="-10.45540918699239" r="0.8751784325960958"
          fill="black" stroke="none" />

  <circle cx="33.646263303625496" cy="-10.115621078302597" r="0.8751784325960958"
          fill="black" stroke="none" />

  <circle cx="33.51798262112482" cy="-9.748508292559283" r="0.8751784325960958"
          fill="black" stroke="none" />

  <circle cx="33.18632047218966" cy="-9.388275663262263" r="0.8751784325960958"
          fill="black" stroke="none" />

  <circle cx="32.87423966456471" cy="-9.046694861016649" r="0.8751784325960958"
          fill="black" stroke="none" />

  <circle cx="32.76074715926489" cy="-8.69893329509543" r="0.8751784325960958"
          fill="black" stroke="none" />

  <circle cx="32.92593836363635" cy="-8.289256030772265" r="0.8751784325960958"
          fill="black" stroke="none" />

  <circle cx="33.334353131458556" cy="-7.755342577040734" r="0.8751784325960958"
          fill="black" stroke="none" />

  <circle cx="33.8574247441714" cy="-7.059449897502546" r="0.8751784325960958"
          fill="black" stroke="none" />

  <circle cx="34.321662372960844" cy="-6.210471678468879" r="0.8751784325960958"
          fill="black" stroke="none" />

  <circle cx="34.56235499707415" cy="-5.265490124213915" r="0.8751784325960958"
          fill="black" stroke="none" />

  <circle cx="34.46482487365381" cy="-4.310116801796984" r="0.8751784325960958"
          fill="black" stroke="none" />

  <circle cx="33.984119824777494" cy="-3.4277612422418855" r="0.8751784325960958"
          fill="black" stroke="none" />

  <circle cx="33.144326520393534" cy="-2.672994128682239" r="0.8751784325960958"
          fill="black" stroke="none" />

  <circle cx="32.025326606864525" cy="-2.060878432947082" r="0.8751784325960958"
          fill="black" stroke="none" />

  <circle cx="30.745428299929603" cy="-1.5747899476669738" r="0.8751784325960958"
          fill="black" stroke="none" />

  <circle cx="29.44422434451606" cy="-1.1854039728589485" r="0.8751784325960958"
          fill="black" stroke="none" />

  <circle cx="28.265173285190585" cy="-0.8687242225341133" r="0.8751784325960958"
          fill="black" stroke="none" />

  <circle cx="27.33568008152188" cy="-0.6135841571808066" r="0.8751784325960958"
          fill="black" stroke="none" />

  <circle cx="26.745212880605365" cy="-0.416852641653835" r="0.8751784325960958"
          fill="black" stroke="none" />

  <circle cx="26.527091704553037" cy="-0.2725541544801414" r="0.8751784325960958"
          fill="black" stroke="none" />

  <circle cx="26.652709279136573" cy="-0.16439400888895414" r="0.8751784325960958"
          fill="black" stroke="none" />

  <circle cx="27.04449512483143" cy="-0.0680145331491585" r="0.8751784325960958"
          fill="black" stroke="none" />

  <circle cx="27.60573879315662" cy="0.03796948836745788" r="0.8751784325960958"
          fill="black" stroke="none" />

  <circle cx="28.255458232838116" cy="0.15964810262428386" r="0.8751784325960958"
          fill="black" stroke="none" />

  <circle cx="28.951091198194327" cy="0.2832050365751482" r="0.8751784325960958"
          fill="black" stroke="none" />

  <circle cx="29.685645271985848" cy="0.38243669626657617" r="0.8751784325960958"
          fill="black" stroke="none" />

  <circle cx="30.4588617796538" cy="0.4349992149093991" r="0.8751784325960958"
          fill="black" stroke="none" />

  <circle cx="31.237901516881763" cy="0.4378990017288589" r="0.8751784325960958"
          fill="black" stroke="none" />

  <circle cx="31.932833365316668" cy="0.41240271996874817" r="0.8751784325960958"
          fill="black" stroke="none" />

  <circle cx="32.40849918273774" cy="0.39444121072731836" r="0.8751784325960958"
          fill="black" stroke="none" />

  <circle cx="32.53657327693409" cy="0.4153076473228118" r="0.8751784325960958"
          fill="black" stroke="none" />

  <circle cx="32.26759156547922" cy="0.48370003129264827" r="0.8751784325960958"
          fill="black" stroke="none" />

  <circle cx="31.685373989785788" cy="0.5799619302434474" r="0.8751784325960958"
          fill="black" stroke="none" />

  <circle cx="31.00710654858208" cy="0.6665781697394446" r="0.8751784325960958"
          fill="black" stroke="none" />

  <circle cx="30.51448755209958" cy="0.7094527359224312" r="0.8751784325960958"
          fill="black" stroke="none" />

  <circle cx="30.436291969959882" cy="0.6978886538281592" r="0.8751784325960958"
          fill="black" stroke="none" />

  <circle cx="30.83331496463598" cy="0.6515671475816283" r="0.8751784325960958"
          fill="black" stroke="none" />

  <circle cx="31.54532209021823" cy="0.6101628728259323" r="0.8751784325960958"
          fill="black" stroke="none" />

  <circle cx="32.237960917137386" cy="0.6113353956606136" r="0.8751784325960958"
          fill="black" stroke="none" />

  <circle cx="32.542291902705145" cy="0.6697516817674876" r="0.8751784325960958"
          fill="black" stroke="none" />

  <circle cx="32.23097391237952" cy="0.7693386925249759" r="0.8751784325960958"
          fill="black" stroke="none" />

  <circle cx="31.348044117876945" cy="0.8732681360324691" r="0.8751784325960958"
          fill="black" stroke="none" />

  <circle cx="30.22053887032129" cy="0.9456893270195156" r="0.8751784325960958"
          fill="black" stroke="none" />

  <circle cx="29.32907700110966" cy="0.9721574194214493" r="0.8751784325960958"
          fill="black" stroke="none" />

  <circle cx="29.08090603888604" cy="0.9663459448328089" r="0.8751784325960958"
          fill="black" stroke="none" />

  <circle cx="29.5817728899463" cy="0.9587634863034009" r="0.8751784325960958"
          fill="black" stroke="none" />

  <circle cx="30.514981397466414" cy="0.9741140535994017" r="0.8751784325960958"
          fill="black" stroke="none" />

</svg>
